<svg width="1235" height="666" viewBox="0 0 1235 666" fill="none" xmlns="http://www.w3.org/2000/svg">
<path d="M5.54386 59.2728C6.43841 58.1357 8.15154 56.0316 5.7504 55.6595C5.20725 55.5754 4.6999 55.2562 4.16693 55.4977C2.52529 56.2418 1 57.8799 1 59.8275C1 62.9383 4.41177 63.6119 6.89019 63.5717C11.0717 63.5037 12.3439 59.4296 13.8207 56.1295C15.3126 52.7959 16.9697 49.5163 18.5176 46.2066C20.269 42.4616 23.1415 39.4782 24.9585 35.7675C25.7377 34.1763 26.7551 32.7751 27.7583 31.3222C29.3145 29.0685 30.4241 26.7949 31.5372 24.2961C32.4504 22.2459 33.463 20.3737 34.5817 18.4332C35.0341 17.6485 34.8641 16.4464 35.7292 17.2853C36.3859 17.9223 37.4308 18.3407 38.3147 18.5026C42.1792 19.2102 45.7329 19.9592 49.7126 19.6428C53.7376 19.3228 57.7604 18.7461 61.7225 17.9787C63.0694 17.7178 62.4953 18.0319 61.8602 18.8493C60.7829 20.2356 59.8631 21.7049 58.8309 23.1096C57.4849 24.9415 57.0112 27.1478 56.2148 29.2421C55.3393 31.5443 54.2974 33.7434 53.4609 36.0834C51.8444 40.6057 49.4864 44.7299 46.5686 48.5255C44.8777 50.7252 42.789 54.567 39.6228 54.4115C34.723 54.1708 38.0316 44.5256 40.3725 42.6396C41.6326 41.6243 43.0108 42.7173 43.1646 44.0802C43.3759 45.9529 42.7335 48.5192 40.9156 49.4346C38.9976 50.4004 37.5272 50.2845 39.0032 47.7936C39.8962 46.2865 40.4273 47.9452 40.7932 47.2081" stroke="#00ADB5" stroke-opacity="0.5" stroke-width="1.66333" stroke-linecap="round" stroke-linejoin="round"/>
<path d="M367.399 178.972C373.262 172.837 373.571 170.723 374.579 163.254C375.135 159.141 375.974 155.2 376.003 151.017C376.054 143.536 377.965 133.949 385.097 129.801C399.13 121.639 415.621 142.888 405.639 155.312C401.84 160.041 396.675 162.92 392.365 167.187C390.637 168.899 389.388 170.92 387.337 172.404C385.37 173.827 382.926 175.6 382.33 177.855C381.826 179.76 381.74 182.381 379.947 183.709C377.47 185.543 378.449 184.522 375.693 183.793C373.798 183.292 371.403 181.047 370.199 179.42C369.339 178.259 368.086 180.628 368.729 178.198C369.281 176.111 369.493 178.025 368.12 177.661" stroke="#00ADB5" stroke-opacity="0.5" stroke-width="1.66333" stroke-linecap="round" stroke-linejoin="round"/>
<path d="M374.404 187.955C370.949 185.845 361.228 180.601 362.813 184.326C364.726 188.821 366.46 187.28 369.809 189.012C371.521 189.898 371.81 195.982 369.763 195.567C366.841 194.975 365.957 190.599 363.027 189.824C360.359 189.118 359.622 192.679 360.892 194.346C362.57 196.548 365.466 195.425 366.21 198.359C367.387 202.997 361.425 200.716 359.935 199.305C358.433 197.884 357.159 195.948 356.096 194.746" stroke="#00ADB5" stroke-opacity="0.5" stroke-width="1.66333" stroke-linecap="round" stroke-linejoin="round"/>
<path d="M367.7 177.832C367.667 178.15 367.171 180.225 367.995 180.443C368.438 180.56 368.713 180.345 369.058 180.677C369.465 181.068 369.747 181.809 370.106 182.294C370.422 182.721 371.624 182.997 371.747 183.458C371.948 184.211 372.612 184.77 373.3 185.036C374.191 185.381 374.409 185.932 375.444 185.973C375.761 185.986 375.842 185.802 376.122 185.876C376.554 185.991 376.686 186.247 377.108 185.97C377.575 185.665 378.215 185.633 378.55 185.07C379.006 184.304 379.989 184.098 378.568 184.272" stroke="#00ADB5" stroke-opacity="0.5" stroke-width="1.66333" stroke-linecap="round" stroke-linejoin="round"/>
<path d="M393.808 147.586C392.237 147.179 390.914 146.937 389.939 148.459C389.276 149.495 388.975 150.606 388.664 151.781C388.362 152.924 388.82 154.028 388.536 155.104C388.16 156.526 387.084 155.992 386.007 156.17C384.99 156.339 384.241 156.507 383.506 157.291C382.778 158.069 382.683 159.918 382.488 160.921C382.321 161.784 382.247 163.692 381.471 164.253C381.05 164.559 379.15 164.699 380.515 164.146" stroke="#00ADB5" stroke-opacity="0.5" stroke-width="1.66333" stroke-linecap="round" stroke-linejoin="round"/>
<path d="M402.85 166.959C403.886 168.126 404.981 169.164 406.246 170.062C406.777 170.438 407.448 171.037 407.56 170.081" stroke="#00ADB5" stroke-opacity="0.5" stroke-width="1.66333" stroke-linecap="round" stroke-linejoin="round"/>
<path d="M410.611 156.065C412.695 157.19 414.746 158.379 416.796 159.557C417.137 159.752 416.54 158.602 416.516 158.565" stroke="#00ADB5" stroke-opacity="0.5" stroke-width="1.66333" stroke-linecap="round" stroke-linejoin="round"/>
<path d="M414.263 144.74C416.657 145.015 419.066 145.207 421.467 145.406C422.573 145.497 422.984 145.754 422.623 144.7" stroke="#00ADB5" stroke-opacity="0.5" stroke-width="1.66333" stroke-linecap="round" stroke-linejoin="round"/>
<path d="M405.036 129.259C406.942 129.421 408.603 129.53 410.467 129.142C411.339 128.961 412.204 128.694 413.092 128.596C414.148 128.48 414.138 128.598 413.242 127.677" stroke="#00ADB5" stroke-opacity="0.5" stroke-width="1.66333" stroke-linecap="round" stroke-linejoin="round"/>
<path d="M391.253 117.169C390.495 118.96 390.288 120.097 390.594 121.983C390.76 122.999 390.799 124.239 390.74 125.274C390.72 125.63 390.708 125.833 390.869 126.147C390.929 126.265 390.914 125.052 390.906 124.864" stroke="#00ADB5" stroke-opacity="0.5" stroke-width="1.66333" stroke-linecap="round" stroke-linejoin="round"/>
<path d="M375.866 121.073C375.935 123.165 376.273 125.244 376.257 127.317C376.249 128.365 376.076 128.383 375.913 127.278" stroke="#00ADB5" stroke-opacity="0.5" stroke-width="1.66333" stroke-linecap="round" stroke-linejoin="round"/>
<path d="M366.566 133.53C368.102 135.781 369.17 138.354 370.157 140.881C370.281 141.197 370.48 141.351 370.638 141.623C370.997 142.241 370.446 140.914 370.384 140.732" stroke="#00ADB5" stroke-opacity="0.5" stroke-width="1.66333" stroke-linecap="round" stroke-linejoin="round"/>
<path d="M533.075 587.598C526.114 595.018 518.682 605.402 507.594 599.553C502.325 596.774 500.027 587.506 501.7 582.332C503.088 578.04 503.247 572.254 508.512 570.591C512.648 569.285 517.117 570.63 519.12 574.579C524.807 585.794 508.263 588.946 501.244 585.821C491.664 581.555 486.22 554.231 496.963 548.458C506.173 543.509 508.535 554.886 501.744 559.756C492.191 566.607 485.322 565.319 479.036 554.208C474.128 545.533 479.331 533.399 486.422 528.014C487.894 526.896 494.539 518.228 495.312 519.427C502.933 531.256 481.614 541.223 472.244 536.963C461.478 532.068 450.643 526.994 445.373 516.457C442.539 510.79 439.384 492.118 439.294 498.463C439.181 506.402 438.287 517.128 433.214 523.898C431.704 525.913 427.04 532.458 431.207 526.023C435.499 519.395 439.436 513.653 442.248 506.74C442.874 505.201 441.341 502.463 440.963 500.95C440.643 499.669 445.006 502.222 445.557 502.409C450.314 504.026 455.244 503.203 460.009 501.867C464.261 500.674 469.508 497.809 471.978 499.822" stroke="#00ADB5" stroke-opacity="0.2" stroke-width="4" stroke-linecap="round" stroke-linejoin="round"/>
<path d="M372.28 47.4183C370.971 47.6119 369.432 47.7141 369.12 49.2726C368.878 50.4805 368.97 51.7236 369.694 52.7715C370.931 54.5621 372.769 55.6071 374.983 55.2382C376.962 54.9083 379.68 53.1147 379.68 50.8872C379.68 49.631 378.776 48.3669 378.027 47.4269C377.225 46.4194 376.532 45.36 375.522 44.5362C374.16 43.425 373.06 43.3159 371.835 44.6261C371.165 45.3431 370.531 46.3212 370.238 47.2599C370.093 47.7226 370.199 48.0935 370.199 48.5575C370.199 49.1758 370.084 48.2639 370.199 47.9579" stroke="#00ADB5" stroke-opacity="0.5" stroke-linecap="round" stroke-linejoin="round"/>
<path d="M379.064 50.9577C380.178 51.9465 381.122 52.841 383.091 52.8892C384.47 52.923 385.849 52.5788 387.141 52.2084C388.066 51.9432 391.032 50.5384 388.629 50.4248" stroke="#00ADB5" stroke-opacity="0.5" stroke-linecap="round" stroke-linejoin="round"/>
<path d="M390.549 42.3308C389.08 43.9539 387.051 47.1345 387.813 49.5726C388.081 50.4299 388.47 51.0071 388.973 51.7395C389.987 53.2135 391.557 52.7541 392.982 52.3691C394.015 52.0899 395.242 51.2106 395.637 50.2107C396.183 48.8305 395.046 46.6728 394.095 45.7226C393.034 44.6617 392.194 43.3709 391.012 42.4422C390.697 42.1951 390.459 41.9271 390.048 42.0182C389.587 42.1207 389.397 42.5621 390.01 42.5621" stroke="#00ADB5" stroke-opacity="0.5" stroke-linecap="round" stroke-linejoin="round"/>
<path d="M519.086 289.24C514.88 290.048 511.822 291.262 509.156 294.69C507.466 296.862 507.837 300.282 508.944 302.585C510.768 306.379 515.252 308.522 519.298 308.708C524.012 308.925 530.564 307.54 531.53 301.919C532.048 298.905 529.169 296.056 527.821 293.585C526.725 291.575 525.073 288.865 522.765 288.014C521.823 287.667 519.636 287.788 518.95 288.726C518.644 289.145 518.25 289.587 518.027 290.058C517.846 290.439 518.04 289.087 517.996 288.695" stroke="#00ADB5" stroke-opacity="0.5" stroke-linecap="round" stroke-linejoin="round"/>
<path d="M520.858 299.595C519.722 300.178 517.88 300.565 518.874 301.843C519.101 302.134 519.424 302.118 519.7 301.843C519.935 301.608 521.121 300.372 520.244 300.079C518.457 299.483 519.11 303.051 520.388 301.472C521.075 300.624 520.114 299.79 519.253 300.306C518.227 300.922 519.039 301.997 519.843 301.063C520.45 300.36 519.966 299.821 519.306 300.481C518.715 301.071 519.315 302.014 519.896 301.215C520.492 300.395 519.813 299.701 519.094 300.42C518.262 301.252 519.163 301.165 519.752 300.617C520.347 300.065 519.292 300.146 518.95 300.579C518.155 301.585 519.401 301.442 519.601 300.579C519.896 299.312 518.589 302.223 519.223 300.004" stroke="#00ADB5" stroke-opacity="0.5" stroke-linecap="round" stroke-linejoin="round"/>
<path d="M516.225 295.371C517.436 296.968 518.676 298.483 519.692 300.079C519.974 300.522 519.749 300.966 519.904 300.957C520.477 300.925 521.064 300.821 521.675 300.821C523.073 300.821 524.173 300.14 525.52 300.14C527.151 300.14 529.548 299.716 526.852 298.369" stroke="#00ADB5" stroke-opacity="0.5" stroke-linecap="round" stroke-linejoin="round"/>
<path d="M514.863 289.104C514.608 287.816 513.365 284.694 515.68 285.024C516.511 285.143 517.069 286.003 517.557 286.546C518.829 287.959 518.693 289.664 516.634 289.785C516.094 289.817 515.335 290.887 514.726 290.126C514.037 289.265 514.741 289.322 514.863 288.287C514.942 287.609 514.5 287.665 514.31 287C514.164 286.49 514.467 285.931 514.59 285.562" stroke="#00ADB5" stroke-opacity="0.5" stroke-linecap="round" stroke-linejoin="round"/>
<path d="M515.68 287.605C515.668 287.931 515.166 290.863 516.233 290.383C516.59 290.223 516.898 289.989 517.043 289.619C517.183 289.26 517.034 289.046 516.876 288.695C516.47 287.792 515.291 286.389 515.65 288.423C515.877 289.706 517.31 289.406 517.421 288.181C517.506 287.245 516.326 285.991 515.574 287.06C515.043 287.817 515.99 289.486 516.543 288.317C516.824 287.723 516.152 286.215 515.438 286.954C514.706 287.713 515.806 289.312 516.528 288.665C517.242 288.025 516.757 286.073 515.983 286.818C515.275 287.5 516.337 288.856 516.876 287.817C517.478 286.659 516.153 285.787 515.741 287C515.373 288.083 516.52 289.248 516.785 287.772C516.987 286.648 514.923 286.051 514.923 287.393C514.923 288.63 516.029 288.504 516.029 287.378C516.029 286.206 514.847 286.47 515.34 287.454C515.832 288.439 516.492 286.691 515.938 286.137C515.291 285.49 514.434 286.49 515.196 287.113C515.715 287.538 516.425 285.776 515.552 285.448C514.798 285.165 515.215 286.705 515.476 286.357C515.881 285.816 515.26 285.455 515.688 285.562C516.065 285.656 516.981 285.857 517.24 286.19C517.443 286.452 518.269 287.908 518.269 288.287C518.269 289.444 516.499 290.068 515.484 289.778C514.755 289.57 514.539 290.084 514.795 289.914C515.415 289.501 515.544 288.423 515.544 288.832" stroke="#00ADB5" stroke-opacity="0.5" stroke-linecap="round" stroke-linejoin="round"/>
<path d="M515.544 308.587C514.843 310.075 514.22 311.571 513.394 312.977C513.209 313.294 512.86 313.94 512.819 314.309C512.709 315.303 513.707 311.939 513.909 311.448" stroke="#00ADB5" stroke-opacity="0.5" stroke-linecap="round" stroke-linejoin="round"/>
<path d="M529.305 305.726C531.03 307.905 532.933 309.458 534.278 311.849C534.41 312.085 534.64 312.272 534.823 312.455C535.435 313.067 533.687 311.148 533.12 310.494" stroke="#00ADB5" stroke-opacity="0.5" stroke-linecap="round" stroke-linejoin="round"/>
<path d="M28.6908 592C27.6041 593.2 10.251 614.611 18.9772 603.703C20.9728 601.209 22.8065 598.755 25.531 597.003C27.2104 595.923 28.8279 595.257 30.2707 593.814C31.8475 592.237 29.6119 592.341 29.2467 595.628C28.9287 598.49 29.1724 610.987 28.6908 610.959C25.4378 610.768 23.3051 607.566 20.2938 606.512C18.6806 605.947 13.8976 606.76 15.2322 605.693C18.4939 603.083 28.4846 595.6 25.531 598.554C23.2932 600.792 18.6944 609.201 20.2646 606.453C21.381 604.499 24.4005 598.133 23.951 599.197C23.0251 601.39 21.4137 605.147 21.5519 607.565C21.6831 609.86 26.2417 604.213 26.5257 603.645C28.6388 599.418 24.2667 608.923 25.8235 606.658C27.2258 604.618 31.9664 599.433 28.5738 604.522C27.8313 605.636 32.0884 600.498 31.324 601.597C31.1022 601.915 29.1727 605.152 30.3 604.025C34.3376 599.987 28.3883 604.186 27.6375 603.059" stroke="#00ADB5" stroke-opacity="0.5" stroke-linecap="round" stroke-linejoin="round"/>
<path d="M193.841 26.5484C194.905 31.3736 197.001 45.9721 197.001 41.031C197.001 37.6198 194.395 34.4364 193.87 31.0248C193.687 29.8324 194.065 26.3064 193.051 25.4951C192.357 24.94 198.915 30.0444 200.658 31.0248C203.839 32.8138 206.118 36.1552 208.88 32.6047C210.205 30.9001 214.106 30.6648 214.643 30.2349C218.543 27.1152 218.185 22.4596 219.091 18.3855C219.413 16.9327 218.593 23.3464 218.593 25.2318C218.593 27.6439 219.029 30.8371 219.676 33.1021C220.595 36.3189 220.227 27.241 219.354 25.4951C217.936 22.6589 218.067 20.1418 218.067 17.0689C218.067 15.8555 226.87 31.0635 225.322 32.2244C224.676 32.7095 216.055 30.3318 213.444 31.1711C211.195 31.894 209.14 32.7378 207.007 33.8043C206.424 34.0959 205.462 35.1576 205.837 34.8576C207.174 33.7879 211.265 30.8637 209.64 31.4052C207.409 32.149 205.217 34.308 203.204 35.5012C199.408 37.7505 198.18 37.4364 196.591 41.2943C196.362 41.8503 199.196 41.7792 199.751 41.9379C203.737 43.0767 206.242 39.9723 209.757 38.544C214.295 36.7006 219.513 32.9147 224.386 32.3414C228.065 31.9086 222.472 30.6186 222.28 30.2349" stroke="#00ADB5" stroke-opacity="0.5" stroke-linecap="round" stroke-linejoin="round"/>
<path d="M575.48 110.262C575.251 110.445 566.585 117.919 566.585 115.792C566.585 114.545 567.544 113.212 568.399 112.398C570.089 110.788 576.766 109.549 575.158 113.48C574.079 116.117 569.671 120.003 568.428 115.031C567.912 112.966 571.456 108.824 573.607 110.584C575.98 112.525 570.879 114.998 569.277 114.124C566.415 112.563 569.852 107.005 572.612 108.155C575.499 109.358 571.529 112.647 570.213 113.305C567.137 114.843 567.568 112.356 566 110.789" stroke="#00ADB5" stroke-opacity="0.5" stroke-linecap="round" stroke-linejoin="round"/>
<path d="M638.146 468C638.448 475.741 638.313 479.964 644.875 475.08C646.737 473.695 645.946 476.973 645.489 477.772C644.727 479.107 640.256 485.816 644.758 483.243C645.898 482.592 648.971 481.292 648.971 483.799C648.971 484.195 647.593 489.039 648.942 487.69C651.152 485.48 651.192 477.148 651.312 473.91C651.338 473.203 651.647 472.381 651.019 472.74C647.791 474.584 646.258 484.242 644.582 488.012C643.136 491.267 638.965 487.432 636.566 485.906C632.018 483.012 634.878 485.067 634.986 484.852" stroke="#00ADB5" stroke-opacity="0.5" stroke-linecap="round" stroke-linejoin="round"/>
</svg>
