<svg width="548" height="757" viewBox="0 0 548 757" fill="none" xmlns="http://www.w3.org/2000/svg">
<path d="M5.72367 331.274C12.4911 319.055 18.8881 302.673 35.6123 307.154C43.5593 309.283 49.7344 321.129 49.2487 328.662C48.8457 334.909 50.5811 342.8 44.1332 346.69C39.0686 349.746 32.6683 349.312 28.6745 344.582C17.3328 331.149 38.2904 321.737 48.6826 323.792C62.8673 326.597 79.3042 361.937 66.9494 373.098C56.3564 382.668 49.3867 367.982 56.7858 359.272C67.1942 347.019 76.7683 346.63 88.8718 359.735C98.3223 369.968 95.4801 388.028 87.8549 397.529C86.2712 399.503 80.3438 413.315 78.9126 411.93C64.7901 398.266 89.81 378.134 103.713 380.996C119.687 384.285 135.813 387.795 146.371 400.439C152.049 407.238 162.529 431.563 160.515 422.936C157.995 412.141 155.576 397.327 160.05 386.575C161.382 383.376 165.386 373.057 162.005 383.073C158.523 393.389 155.216 402.394 153.799 412.637C153.484 414.916 156.446 418.15 157.457 420.083C158.313 421.721 151.649 419.617 150.853 419.534C143.977 418.82 137.693 421.468 131.802 424.759C126.544 427.697 120.526 433.21 116.561 431.25" stroke="#00ADB5" stroke-opacity="0.2" stroke-width="4" stroke-linecap="round" stroke-linejoin="round"/>
<path d="M502.135 30.5287C500.297 27.1968 500.405 26.2449 500.824 22.8912C501.055 21.0443 501.144 19.2398 501.611 17.4229C502.446 14.1737 502.718 9.79836 500.101 7.18226C494.954 2.03458 485.367 9.35546 488.27 15.8863C489.375 18.3719 491.284 20.2122 492.663 22.5567C493.216 23.497 493.526 24.5162 494.244 25.3948C494.934 26.2374 495.79 27.2861 495.79 28.3323C495.79 29.2161 495.527 30.362 496.152 31.1433C497.015 32.2226 496.708 31.6675 497.986 31.6675C498.865 31.6675 500.161 30.9691 500.87 30.4021C501.376 29.9974 501.647 31.1681 501.647 30.0406C501.647 29.0728 501.335 29.8779 501.972 29.8779" stroke="#00ADB5" stroke-linecap="round" stroke-linejoin="round"/>
<path d="M498.067 33.6199C499.807 33.1012 504.623 31.9427 503.509 33.3758C502.164 35.1049 501.589 34.2384 499.938 34.6051C499.095 34.7926 498.272 37.3972 499.206 37.4522C500.541 37.5307 501.426 35.7349 502.786 35.7349C504.023 35.7349 503.934 37.3632 503.192 37.9403C502.213 38.7023 501.086 37.8832 500.427 39.0701C499.385 40.9457 502.231 40.6405 503.039 40.1999C503.853 39.756 504.627 39.0628 505.226 38.6634" stroke="#00ADB5" stroke-linecap="round" stroke-linejoin="round"/>
<path d="M502.135 30C502.113 30.1417 502.09 31.0982 501.708 31.0982C501.502 31.0982 501.408 30.9735 501.22 31.0778C500.999 31.2006 500.792 31.4895 500.581 31.6586C500.394 31.8075 499.842 31.7891 499.735 31.9749C499.562 32.2784 499.21 32.4446 498.881 32.4811C498.455 32.5284 498.298 32.7423 497.844 32.6415C497.705 32.6107 497.692 32.5217 497.562 32.5217C497.361 32.5217 497.275 32.6176 497.123 32.4494C496.956 32.2633 496.682 32.1761 496.601 31.8936C496.492 31.5094 496.089 31.3073 496.685 31.5456" stroke="#00ADB5" stroke-linecap="round" stroke-linejoin="round"/>
<path d="M494.285 13.8936C495.013 13.8975 495.614 13.9444 495.862 14.7161C496.031 15.2411 496.034 15.7571 496.034 16.3023C496.034 16.8324 495.709 17.2586 495.709 17.7575C495.709 18.4171 496.236 18.3091 496.683 18.51C497.104 18.6997 497.41 18.8583 497.638 19.2828C497.865 19.7031 497.694 20.516 497.663 20.9729C497.637 21.3662 497.45 22.2019 497.722 22.5343C497.87 22.715 498.677 22.9939 498.149 22.5976" stroke="#00ADB5" stroke-linecap="round" stroke-linejoin="round"/>
<path d="M488.143 21.2554C487.561 21.6425 486.967 21.9669 486.315 22.2112C486.042 22.3136 485.683 22.4964 485.744 22.0688" stroke="#00ADB5" stroke-linecap="round" stroke-linejoin="round"/>
<path d="M486.029 15.6423C484.996 15.8909 483.97 16.1711 482.946 16.4468C482.776 16.4926 483.167 16.0621 483.181 16.0491" stroke="#00ADB5" stroke-linecap="round" stroke-linejoin="round"/>
<path d="M485.744 10.314C484.674 10.1586 483.608 9.96573 482.544 9.77626C482.054 9.68903 481.847 9.75325 482.124 9.33789" stroke="#00ADB5" stroke-linecap="round" stroke-linejoin="round"/>
<path d="M491.519 4.66062C490.674 4.51214 489.942 4.36906 489.178 3.98725C488.821 3.80853 488.477 3.59372 488.103 3.44946C487.658 3.27803 487.649 3.33023 488.143 3.03369" stroke="#00ADB5" stroke-linecap="round" stroke-linejoin="round"/>
<path d="M498.881 1C499.005 1.86324 498.964 2.38027 498.615 3.16246C498.427 3.58413 498.267 4.1171 498.174 4.57246C498.142 4.72928 498.124 4.81854 498.018 4.93626C497.979 4.98033 498.124 4.45648 498.149 4.37587" stroke="#00ADB5" stroke-linecap="round" stroke-linejoin="round"/>
<path d="M505.104 4.45728C504.834 5.35625 504.449 6.21859 504.218 7.11911C504.102 7.5747 504.175 7.6024 504.372 7.14171" stroke="#00ADB5" stroke-linecap="round" stroke-linejoin="round"/>
<path d="M507.707 10.9243C506.783 11.7241 506.025 12.7169 505.308 13.6991C505.218 13.8222 505.114 13.866 505.014 13.9658C504.787 14.1925 505.178 13.6804 505.226 13.6087" stroke="#00ADB5" stroke-linecap="round" stroke-linejoin="round"/>
<path d="M314.922 7.11328C314.359 7.91268 313.625 8.59845 313.233 9.49348C313.093 9.81494 313.046 10.1638 312.896 10.4746C312.744 10.7908 312.561 11.1612 312.448 11.4898C312.225 12.1389 311.702 12.6459 311.344 13.2088C311.133 13.54 310.785 14.0555 310.461 14.2923C310.296 14.4128 309.853 14.992 310.049 15.0409C310.505 15.1548 310.891 15.3971 311.297 15.6359C311.854 15.9643 312.41 16.2121 312.907 16.632C313.536 17.1628 314.282 17.5409 314.897 18.0908C315.379 18.5219 315.798 19.0214 316.287 19.4494C316.71 19.8189 317.218 20.0913 317.648 20.4539C317.68 20.4807 317.986 20.7377 317.949 20.793C317.911 20.8502 317.455 20.2643 317.418 20.2044" stroke="#00ADB5" stroke-linecap="round" stroke-linejoin="round"/>
<path d="M324.674 6.46069C323.775 8.59621 322.792 10.6941 321.901 12.8335C321.348 14.1606 320.883 15.502 320.412 16.8623C320.042 17.9317 319.584 18.9751 319.184 20.0317C319.045 20.3986 318.95 20.7733 318.868 21.1557C318.735 21.7816 318.749 21.0527 318.762 20.7803" stroke="#00ADB5" stroke-linecap="round" stroke-linejoin="round"/>
<path d="M326.67 6C327.452 6.89138 328.202 7.7882 329.033 8.63187C329.713 9.32136 330.013 10.3177 330.394 11.1827C330.789 12.0803 331.184 12.8237 331.767 13.6013C331.836 13.6933 332.04 13.9211 332.04 14.0406C332.04 14.0981 331.765 14.0965 331.72 14.1025C331.568 14.1228 331.387 14.2516 331.26 14.3307C328.948 15.7655 327.385 17.8394 326.026 20.1362C325.794 20.5287 325.622 21.0966 325.286 21.3988C325.069 21.5939 324.892 21.8505 324.635 21.9789C324.394 22.0997 324.565 21.6722 324.597 21.4329" stroke="#00ADB5" stroke-linecap="round" stroke-linejoin="round"/>
<path d="M546.732 263C545.803 264.022 540.729 268.491 544.199 269.91C545.031 270.251 546.125 269.13 546.479 268.461C547.222 267.053 547.328 264.195 544.959 264.534C543.33 264.767 543.206 269.021 544.649 268.967C547.093 268.877 546.294 263.698 545.1 266.195C542.931 270.728 546.794 268.395 545.409 266.856C544.722 266.093 543.519 271.995 545.845 269.178C548.177 266.356 543.791 266.223 544.762 269.136C545.528 271.435 546.556 264.519 544.846 268.559C543.362 272.067 546.169 267.816 545.325 268.123C543.719 268.707 543.301 271.754 544.846 268.573C545.837 266.533 542.372 269.558 543.326 269.558C544.23 269.558 545.896 266.48 544.143 267.813C542.359 269.168 545.24 267.118 545.451 266.167C545.566 265.65 543.845 268.116 544.959 266.237C545.539 265.257 544.827 266.161 544.579 266.547C543.989 267.465 544.669 265.928 544.818 265.829C545.106 265.637 544.471 266.454 544.452 266.8C544.399 267.755 544.664 266.289 544.705 266.04" stroke="#00ADB5" stroke-linecap="round" stroke-linejoin="round"/>
<path d="M172.696 22.9868C176.35 21.9272 178.63 21.2136 182.196 21.2136C183.851 21.2136 183.334 20.1982 182.266 22.2269C181.506 23.671 180.389 25.1291 179.395 26.4067C178.941 26.99 178.604 28.9592 178.213 29.2636C178.027 29.4082 176.881 27.6617 176.622 27.5467C175.758 27.1627 175.067 26.347 174.117 26.0549C173.534 25.8753 169.567 24.918 169.909 24.7038C171.321 23.8213 172.027 24.0785 173.583 23.7327C176.261 23.1375 175.111 23.3325 172.696 23.4935" stroke="#00ADB5" stroke-linecap="round" stroke-linejoin="round"/>
<path d="M170.923 5.50769C170.2 8.43455 169.345 11.1291 168.192 13.8674C167.456 15.6168 169.009 13.8141 169.909 13.6141C172.611 13.0136 175.699 11.5196 178.269 10.3771C179.418 9.86632 175.747 6.82514 174.849 6.12692C173.301 4.92263 171.934 5.00104 170.163 5.00104" stroke="#00ADB5" stroke-linecap="round" stroke-linejoin="round"/>
<path d="M332.966 726C331.357 728.059 324.448 736.298 330.335 738.162C332.162 738.741 334.54 737.411 336.509 737.603C339.293 737.875 340.859 740.242 341.544 742.7C342.333 745.53 337.98 750.564 340.073 752.086C343.656 754.692 348.818 750.285 351.779 753.785C353.458 755.768 351.693 758.65 352.732 753.971" stroke="#00ADB5" stroke-linecap="round" stroke-linejoin="round"/>
<path d="M177.554 726.064C178.048 727.363 178.525 728.466 179.67 729.304C180.121 729.635 180.657 729.635 181.179 729.776C181.858 729.96 182.666 729.574 183.275 729.305C183.763 729.09 184.131 729.979 184.183 730.304C184.273 730.863 183.956 731.327 183.976 731.87C183.999 732.523 183.857 733.235 183.393 733.733C183.078 734.071 183.036 734.488 182.77 734.854C182.517 735.202 182.048 735.502 181.707 735.768C180.723 736.538 179.518 736.844 178.337 737.153C177.771 737.301 177.15 737.417 176.56 737.375C175.856 737.326 175.201 737.512 174.51 737.301C174.033 737.155 173.396 736.91 173.084 736.505C172.763 736.09 172.624 735.688 172.036 735.63C170.808 735.509 169.684 736.226 168.445 736.108C167.345 736.004 167.044 734.591 166.788 733.725C166.611 733.127 166.319 732.037 166.583 731.419C167.073 730.269 167.742 729.406 168.612 728.505C169.382 727.706 170.583 727.318 171.646 727.121C172.731 726.921 173.92 726.807 175.03 726.727C175.766 726.673 176.524 726.817 177.263 726.817C177.868 726.818 177.934 727.003 177.137 726.769" stroke="#00ADB5" stroke-linecap="round" stroke-linejoin="round"/>
<path d="M183.743 733.28C184.949 733.62 186.157 734.006 187.389 734.238C187.943 734.342 188.517 734.325 189.061 734.469C189.694 734.637 190.396 734.682 191.044 734.718C191.509 734.744 192.324 734.701 192.652 735.093C192.892 735.38 193.391 735.509 193.675 735.813C194.04 736.204 194.4 736.774 194.863 737.031C195.317 737.284 196.228 737.513 196.698 737.22C196.959 737.057 197.257 737.048 197.514 736.887C197.848 736.678 198.118 736.493 198.485 736.324C198.807 736.177 199.436 735.748 199.712 736.151C200.389 737.137 199.486 737.295 198.686 737.697C198.273 737.904 197.751 737.979 197.32 738.176C197.025 738.31 197.263 738.477 197.102 738.637C196.858 738.878 196.529 738.92 196.259 739.11C195.855 739.394 194.962 739.19 194.532 739.106C193.736 738.95 193.013 738.78 192.237 738.51C190.239 737.815 188.492 736.54 186.543 735.736C185.802 735.431 185.062 735.2 184.264 735.092C183.811 735.031 183.359 734.768 182.89 734.812C182.462 734.853 182.233 734.768 182.932 734.93" stroke="#00ADB5" stroke-linecap="round" stroke-linejoin="round"/>
<path d="M198.635 736.586C198.445 735.834 198.321 735.005 197.916 734.356C197.86 734.266 197.996 734.4 198.01 734.468C198.204 735.371 199.114 736.292 199.589 737.087C199.943 737.678 200.688 738.461 200.754 739.167C200.774 739.372 200.121 738.542 200.021 738.451" stroke="#00ADB5" stroke-linecap="round" stroke-linejoin="round"/>
<path d="M197.242 735.932C197.816 736.734 198.492 738.163 199.38 738.706C199.466 738.759 199.579 738.793 199.638 738.877C199.844 739.169 199.595 738.642 199.547 738.556" stroke="#00ADB5" stroke-linecap="round" stroke-linejoin="round"/>
<path d="M196.519 736.605C197.006 737.588 197.53 739.418 198.704 739.873C198.874 739.938 198.815 739.762 198.805 739.655" stroke="#00ADB5" stroke-linecap="round" stroke-linejoin="round"/>
<path d="M196.741 737.673C195.361 737.738 193.964 737.885 192.712 737.211C192.102 736.883 191.694 736.654 191.009 736.583C190.277 736.508 189.662 736.407 188.975 736.141C188.296 735.879 187.731 735.549 187.079 735.289C186.741 735.154 186.392 734.777 186.013 734.893C185.822 734.951 185.637 734.871 185.449 734.825C184.89 734.689 184.38 734.384 183.881 734.1C183.543 733.907 182.974 733.964 183.589 734.202" stroke="#00ADB5" stroke-linecap="round" stroke-linejoin="round"/>
<path d="M185.19 733.868C185.124 734.421 184.84 735.278 184.892 735.832C184.893 735.843 185.429 735.306 185.501 735.23" stroke="#00ADB5" stroke-linecap="round" stroke-linejoin="round"/>
<path d="M187.682 733.995C187.428 734.791 187.177 735.588 186.91 736.38C186.848 736.566 186.835 736.557 186.89 736.49C187.01 736.346 187.142 736.22 187.276 736.09" stroke="#00ADB5" stroke-linecap="round" stroke-linejoin="round"/>
<path d="M189.369 734.561C189.17 735.51 188.949 736.459 188.786 737.416C188.768 737.523 188.726 737.674 188.82 737.564C189.009 737.343 189.171 737.094 189.345 736.862" stroke="#00ADB5" stroke-linecap="round" stroke-linejoin="round"/>
<path d="M191.453 734.847C191.04 735.945 190.586 737.043 190.232 738.162C190.173 738.346 190.124 738.411 190.26 738.361C190.446 738.294 190.619 738.204 190.795 738.116" stroke="#00ADB5" stroke-linecap="round" stroke-linejoin="round"/>
<path d="M193.017 736.03C192.98 736.13 191.681 739.182 192.259 738.884" stroke="#00ADB5" stroke-linecap="round" stroke-linejoin="round"/>
<path d="M194.033 736.538C193.91 737.434 193.806 738.337 193.743 739.227" stroke="#00ADB5" stroke-linecap="round" stroke-linejoin="round"/>
<path d="M195.083 737.407C195.102 737.808 195.12 738.21 195.137 738.611" stroke="#00ADB5" stroke-linecap="round" stroke-linejoin="round"/>
<path d="M176.348 731.199C176.143 730.798 175.261 728.292 174.551 728.345C174.274 728.365 173.997 728.397 173.725 728.457C172.881 728.641 172.49 729.277 172.152 730.044C171.721 731.019 171.799 732.017 172.19 732.998C172.561 733.93 173.681 734.453 174.555 733.983C174.736 733.886 174.801 734.158 175.003 733.958C175.199 733.763 175.065 733.66 174.982 733.385" stroke="#00ADB5" stroke-linecap="round" stroke-linejoin="round"/>
<path d="M174.01 730.15C175.262 730.513 176.524 730.993 177.825 731.149C178.165 731.19 178.455 731.253 178.773 731.406C179.447 731.727 180.158 731.999 180.888 732.159C181.58 732.311 182.244 732.262 182.928 732.483C183.172 732.562 183.932 733.1 183.583 732.872" stroke="#00ADB5" stroke-linecap="round" stroke-linejoin="round"/>
<path d="M183.092 734.068C181.682 733.977 180.322 733.769 178.927 733.663C178.154 733.604 177.497 733.449 176.696 733.525C176.123 733.579 175.664 733.829 175.077 733.752C174.401 733.664 174.715 733.497 175.145 733.188" stroke="#00ADB5" stroke-linecap="round" stroke-linejoin="round"/>
<path d="M183.035 733.468C182.129 733.133 180.618 732.366 179.523 732.47C178.9 732.529 178.243 732.632 177.607 732.649C176.851 732.668 175.822 732.174 175.142 731.884C174.917 731.788 174.737 731.652 174.497 731.603C174.198 731.541 174.187 731.606 174.489 731.375" stroke="#00ADB5" stroke-linecap="round" stroke-linejoin="round"/>
<path d="M175.252 729.851C174.618 730.941 173.299 732.885 174.706 734.016C174.925 734.192 175.381 734.434 175.647 734.518C176.012 734.633 175.669 734.182 175.573 733.873" stroke="#00ADB5" stroke-linecap="round" stroke-linejoin="round"/>
<path d="M176.445 730.947C176.519 731.528 176.473 732.72 176.818 733.258C176.83 733.275 176.807 733.215 176.793 733.2C176.743 733.148 176.805 733.025 176.818 732.969" stroke="#00ADB5" stroke-linecap="round" stroke-linejoin="round"/>
<path d="M178.725 731.396C178.653 731.834 178.141 733.443 178.859 733.44" stroke="#00ADB5" stroke-linecap="round" stroke-linejoin="round"/>
<path d="M180.592 731.946C180.296 732.508 178.899 734.81 180.574 734.306" stroke="#00ADB5" stroke-linecap="round" stroke-linejoin="round"/>
<path d="M181.488 732.465C181.4 733.018 181.311 733.571 181.222 734.124" stroke="#00ADB5" stroke-linecap="round" stroke-linejoin="round"/>
<path d="M181.738 735.103C181.173 735.83 179.837 737.301 178.741 737.444C177.847 737.561 176.977 737.611 176.07 737.697C175.41 737.76 174.718 737.953 174.084 737.946C173.252 737.938 173.122 736.674 172.183 737.068C171.869 737.2 171.67 737.13 171.465 737.435C171.288 737.699 171.073 737.898 170.764 738.019C170.044 738.301 169.335 737.943 168.777 737.482C168.428 737.193 167.748 736.84 167.503 736.483C167.382 736.307 167.419 735.92 167.399 735.707C167.38 735.509 167.214 735.122 167.116 734.951C166.971 734.699 167.151 734.344 166.997 734.021" stroke="#00ADB5" stroke-linecap="round" stroke-linejoin="round"/>
<path d="M177.374 726.081C176.595 726.399 175.944 726.642 175.295 727.111C175.028 727.304 174.769 727.306 174.432 727.264C174.04 727.215 173.113 727.02 172.739 727.276C172.165 727.671 171.523 727.724 170.852 727.788C170.206 727.849 170.021 728.887 169.721 729.25C169.275 729.789 168.626 729.635 168.488 730.465C168.458 730.647 168.482 730.924 168.381 731.074C168.305 731.187 168.102 731.331 168.09 731.471C168.065 731.761 168.158 732.138 168.068 732.407C167.992 732.632 167.869 732.802 167.779 733.009C167.679 733.238 167.842 733.521 167.746 733.769C167.42 734.613 167.769 734.216 168.168 733.608" stroke="#00ADB5" stroke-linecap="round" stroke-linejoin="round"/>
</svg>
