<svg width="1234" height="666" viewBox="0 0 1234 666" fill="none" xmlns="http://www.w3.org/2000/svg">
<path fill-rule="evenodd" clip-rule="evenodd" d="M402.722 135.353C398.24 129.695 391.041 126.724 384.515 130.52C381.172 132.464 379.012 135.705 377.678 139.439C376.344 143.174 375.86 147.341 375.834 151.023C375.813 154.152 375.343 157.174 374.88 160.159C374.713 161.231 374.548 162.299 374.404 163.365C373.903 167.069 373.564 169.584 372.576 171.935C371.829 173.715 370.725 175.37 368.973 177.391C368.965 177.441 368.955 177.482 368.946 177.513C368.9 177.671 368.819 177.821 368.718 177.951C368.694 177.982 368.668 178.013 368.64 178.044C368.621 178.103 368.6 178.17 368.578 178.246C368.771 178.245 368.984 178.278 369.199 178.374C369.467 178.493 369.689 178.685 369.867 178.925C370.428 179.683 371.282 180.604 372.221 181.391C373.176 182.192 374.136 182.785 374.905 182.989C375.658 183.188 376.169 183.411 376.548 183.603C376.658 183.659 376.779 183.724 376.871 183.774C376.917 183.798 376.955 183.819 376.983 183.833C377.066 183.877 377.11 183.897 377.135 183.906C377.155 183.899 377.192 183.885 377.251 183.855C377.476 183.742 377.822 183.507 378.452 183.04C379.134 182.535 379.535 181.755 379.823 180.766C379.967 180.274 380.075 179.758 380.181 179.224C380.193 179.165 380.205 179.105 380.217 179.046C380.31 178.578 380.407 178.092 380.526 177.642C380.88 176.303 381.763 175.168 382.741 174.22C383.719 173.272 384.867 172.441 385.84 171.737L385.849 171.73C386.796 171.045 387.571 170.226 388.344 169.336C388.534 169.117 388.725 168.891 388.92 168.661C389.501 167.977 390.111 167.259 390.78 166.596C392.598 164.797 394.569 163.236 396.487 161.717C396.886 161.401 397.282 161.087 397.674 160.773C399.972 158.935 402.152 157.08 403.991 154.791C408.653 148.989 407.207 141.016 402.722 135.353ZM366.845 179.674C366.529 179.874 366.106 179.843 365.824 179.573C365.492 179.255 365.48 178.729 365.797 178.397C365.974 178.212 366.145 178.031 366.311 177.854C366.28 177.725 366.28 177.586 366.316 177.449C366.426 177.035 366.829 176.777 367.243 176.839C369.218 174.631 370.325 172.999 371.043 171.291C371.928 169.184 372.247 166.908 372.755 163.143C372.909 162.005 373.081 160.894 373.252 159.797C373.709 156.852 374.15 154.008 374.171 151.011C374.197 147.212 374.695 142.845 376.112 138.879C377.529 134.912 379.89 131.286 383.679 129.082C391.186 124.716 399.248 128.289 404.025 134.321C408.799 140.348 410.607 149.212 405.287 155.833C403.327 158.273 401.025 160.222 398.714 162.072C398.307 162.397 397.902 162.718 397.497 163.039C395.582 164.556 393.697 166.049 391.95 167.778C391.337 168.386 390.795 169.025 390.227 169.693C390.023 169.933 389.815 170.178 389.6 170.426C388.803 171.344 387.928 172.279 386.824 173.077C385.833 173.795 384.78 174.56 383.898 175.414C383.013 176.273 382.376 177.152 382.134 178.068C382.029 178.464 381.943 178.896 381.848 179.372C381.836 179.43 381.824 179.49 381.812 179.55C381.706 180.084 381.586 180.663 381.42 181.231C381.091 182.36 380.553 183.554 379.442 184.377C378.834 184.827 378.373 185.153 377.999 185.341C377.576 185.554 377.161 185.645 376.696 185.511C376.507 185.458 376.34 185.374 376.211 185.307C376.146 185.273 376.093 185.244 376.042 185.216C375.968 185.176 375.896 185.138 375.796 185.087C375.506 184.94 375.105 184.762 374.48 184.597C373.355 184.299 372.17 183.519 371.153 182.666C370.122 181.801 369.178 180.789 368.535 179.922C368.501 179.932 368.457 179.952 368.38 179.985C368.338 180.002 368.287 180.025 368.223 180.052L368.214 180.056C368.139 180.087 367.922 180.179 367.681 180.178C367.523 180.177 367.307 180.138 367.105 179.984C366.983 179.89 366.901 179.78 366.845 179.674Z" fill="#00ADB5" fill-opacity="0.5"/>
<path fill-rule="evenodd" clip-rule="evenodd" d="M366.038 183.184C368.757 184.316 372.092 186.179 373.838 187.245C374.23 187.485 374.353 187.997 374.114 188.389C373.874 188.781 373.363 188.904 372.971 188.665C371.261 187.62 368.007 185.806 365.399 184.72C364.749 184.449 364.153 184.23 363.638 184.079C363.148 183.935 362.776 183.866 362.523 183.857C362.537 183.898 362.555 183.946 362.578 184C363.035 185.072 363.455 185.723 363.848 186.141C364.228 186.545 364.61 186.762 365.055 186.923C365.39 187.043 365.723 187.122 366.13 187.218C366.326 187.264 366.539 187.314 366.778 187.375C367.477 187.554 368.279 187.801 369.191 188.273C369.918 188.649 370.347 189.465 370.599 190.199C370.867 190.981 371.01 191.898 371.027 192.761C371.043 193.609 370.938 194.497 370.634 195.18C370.481 195.525 370.25 195.879 369.898 196.124C369.521 196.386 369.069 196.478 368.598 196.382C366.807 196.02 365.682 194.525 364.785 193.332C364.768 193.309 364.751 193.287 364.734 193.265C363.732 191.934 362.948 190.928 361.814 190.628C361.337 190.502 361.03 190.581 360.824 190.707C360.601 190.844 360.4 191.098 360.266 191.474C359.987 192.261 360.114 193.265 360.554 193.842C361.126 194.593 361.844 194.838 362.772 195.154C362.903 195.198 363.038 195.244 363.177 195.293C363.708 195.48 364.315 195.724 364.839 196.17C365.386 196.634 365.792 197.27 366.016 198.155C366.338 199.422 366.251 200.524 365.524 201.25C364.833 201.94 363.822 202.019 362.982 201.927C362.104 201.831 361.168 201.525 360.366 201.162C359.573 200.803 358.829 200.35 358.363 199.909C357.566 199.155 356.841 198.276 356.198 197.458C356.013 197.223 355.837 196.996 355.668 196.778C355.231 196.215 354.841 195.713 354.473 195.296C354.168 194.952 354.201 194.427 354.545 194.122C354.889 193.818 355.414 193.85 355.719 194.194C356.125 194.654 356.565 195.221 357.015 195.801C357.178 196.011 357.341 196.221 357.505 196.429C358.139 197.235 358.802 198.034 359.506 198.701C359.786 198.966 360.346 199.327 361.053 199.647C361.751 199.964 362.512 200.203 363.163 200.274C363.853 200.349 364.205 200.216 364.348 200.074C364.454 199.967 364.671 199.616 364.404 198.564C364.256 197.981 364.021 197.657 363.763 197.438C363.483 197.2 363.121 197.037 362.625 196.862C362.514 196.823 362.395 196.784 362.271 196.743C361.358 196.44 360.132 196.034 359.231 194.85C358.4 193.761 358.261 192.151 358.699 190.917C358.925 190.282 359.328 189.674 359.954 189.29C360.598 188.894 361.383 188.793 362.239 189.02C363.969 189.477 365.074 190.949 365.96 192.128C365.995 192.174 366.029 192.219 366.063 192.264C367.062 193.591 367.831 194.53 368.929 194.752C368.939 194.754 368.947 194.755 368.952 194.756C368.974 194.739 369.039 194.675 369.115 194.504C369.278 194.136 369.378 193.525 369.364 192.793C369.35 192.076 369.229 191.332 369.025 190.738C368.805 190.094 368.556 189.817 368.427 189.751C367.665 189.357 366.994 189.147 366.366 188.987C366.201 188.945 366.028 188.904 365.851 188.862C365.397 188.755 364.919 188.642 364.491 188.487C363.844 188.254 363.225 187.906 362.637 187.28C362.062 186.669 361.548 185.827 361.048 184.652C360.832 184.144 360.663 183.482 360.994 182.91C361.349 182.296 362.024 182.193 362.47 182.193C362.959 182.193 363.528 182.312 364.107 182.483C364.699 182.657 365.355 182.9 366.038 183.184ZM362.295 183.873C362.295 183.873 362.298 183.871 362.307 183.869C362.3 183.872 362.295 183.873 362.295 183.873Z" fill="#00ADB5" fill-opacity="0.5"/>
<path fill-rule="evenodd" clip-rule="evenodd" d="M366.786 177.005C367.243 177.052 367.575 177.461 367.527 177.918C367.52 177.984 367.498 178.118 367.475 178.253C367.461 178.331 367.448 178.408 367.438 178.473C367.402 178.703 367.368 178.963 367.357 179.211C367.349 179.399 367.356 179.545 367.372 179.649C367.416 179.648 367.479 179.646 367.575 179.648C367.702 179.65 367.883 179.662 368.083 179.732C368.289 179.804 368.472 179.921 368.635 180.078C368.937 180.368 369.162 180.754 369.324 181.042C369.362 181.109 369.397 181.172 369.431 181.232C369.558 181.46 369.656 181.637 369.763 181.784C369.769 181.788 369.805 181.818 369.899 181.873C370.001 181.933 370.114 181.99 370.254 182.06C370.292 182.079 370.332 182.1 370.375 182.121C370.55 182.21 370.776 182.327 370.97 182.467C371.142 182.591 371.443 182.839 371.551 183.244C371.662 183.659 372.07 184.055 372.6 184.26C373.039 184.43 373.384 184.663 373.615 184.818C373.671 184.855 373.72 184.889 373.762 184.915C373.965 185.043 374.135 185.125 374.455 185.141C374.465 185.138 374.482 185.132 374.508 185.122C374.564 185.101 374.685 185.056 374.837 185.037C375 185.016 375.166 185.028 375.334 185.072C375.507 185.118 375.645 185.177 375.739 185.219C375.739 185.219 375.74 185.22 375.74 185.22C375.891 185.13 376.04 185.064 376.162 185.013C376.238 184.981 376.295 184.958 376.346 184.938C376.413 184.911 376.468 184.889 376.539 184.858C376.725 184.774 376.79 184.717 376.829 184.654C376.785 184.569 376.755 184.474 376.743 184.373C376.687 183.917 377.011 183.502 377.467 183.446C377.786 183.407 378.086 183.372 378.285 183.386C378.339 183.389 378.459 183.4 378.592 183.453C378.725 183.505 379.032 183.672 379.119 184.067C379.193 184.404 379.042 184.655 379.002 184.72C378.945 184.81 378.882 184.875 378.852 184.906C378.795 184.963 378.724 185.023 378.679 185.06C378.675 185.064 378.671 185.067 378.668 185.07C378.613 185.117 378.562 185.16 378.51 185.207C378.406 185.304 378.322 185.399 378.265 185.495C377.969 185.992 377.543 186.23 377.219 186.376C377.126 186.417 377.006 186.465 376.912 186.503C376.869 186.521 376.831 186.536 376.804 186.547C376.689 186.595 376.616 186.632 376.563 186.666C376.394 186.777 376.199 186.871 375.973 186.909C375.736 186.948 375.532 186.914 375.37 186.864C375.257 186.828 375.139 186.774 375.081 186.747C375.072 186.743 375.064 186.74 375.058 186.737C375.037 186.728 375.019 186.72 375.002 186.713C374.959 186.728 374.905 186.745 374.849 186.759C374.722 186.791 374.577 186.811 374.411 186.804C373.711 186.776 373.257 186.563 372.875 186.322C372.771 186.257 372.683 186.198 372.604 186.145C372.399 186.008 372.25 185.908 372 185.812C371.19 185.498 370.311 184.823 369.983 183.806C369.907 183.754 369.793 183.691 369.624 183.605C369.595 183.591 369.564 183.575 369.532 183.559C369.387 183.487 369.212 183.399 369.058 183.309C368.883 183.206 368.623 183.039 368.437 182.789C368.255 182.543 368.088 182.241 367.954 182C367.926 181.95 367.9 181.902 367.875 181.859C367.723 181.589 367.612 181.416 367.515 181.311C367.499 181.311 367.48 181.312 367.454 181.312L367.454 181.312C367.411 181.313 367.351 181.315 367.286 181.314C367.149 181.312 366.977 181.298 366.782 181.247C366.178 181.087 365.909 180.592 365.8 180.226C365.691 179.863 365.681 179.464 365.695 179.139C365.71 178.801 365.755 178.469 365.795 178.214C365.813 178.098 365.831 177.994 365.845 177.912C365.847 177.903 365.849 177.894 365.85 177.885C365.858 177.841 365.863 177.807 365.868 177.779C365.872 177.754 365.873 177.745 365.873 177.745C365.873 177.745 365.873 177.745 365.873 177.746C365.92 177.289 366.329 176.957 366.786 177.005ZM370.037 183.849C370.037 183.849 370.034 183.846 370.029 183.841C370.035 183.846 370.038 183.849 370.037 183.849Z" fill="#00ADB5" fill-opacity="0.5"/>
<path fill-rule="evenodd" clip-rule="evenodd" d="M393.613 147.794C393.498 148.239 393.045 148.506 392.6 148.391C391.796 148.183 391.22 148.068 390.75 148.125C390.364 148.172 390.002 148.341 389.639 148.908C389.056 149.818 388.783 150.805 388.468 151.994C388.358 152.411 388.38 152.837 388.423 153.406C388.424 153.428 388.426 153.45 388.428 153.472C388.467 153.988 388.516 154.649 388.34 155.316C388.218 155.777 388.015 156.173 387.688 156.465C387.358 156.76 386.983 156.878 386.656 156.926C386.377 156.967 386.083 156.964 385.858 156.961C385.836 156.961 385.815 156.96 385.795 156.96C385.535 156.957 385.332 156.96 385.143 156.991C384.153 157.155 383.647 157.289 383.113 157.86C382.924 158.061 382.751 158.504 382.612 159.187C382.548 159.505 382.498 159.834 382.45 160.16C382.445 160.198 382.439 160.236 382.434 160.274C382.393 160.553 382.352 160.838 382.305 161.08C382.274 161.237 382.247 161.437 382.212 161.691C382.206 161.739 382.199 161.789 382.192 161.84C382.149 162.151 382.097 162.512 382.022 162.87C381.948 163.224 381.847 163.605 381.696 163.95C381.548 164.288 381.323 164.664 380.959 164.927C380.702 165.113 380.354 165.206 380.13 165.256C379.87 165.313 379.578 165.351 379.333 165.353C379.22 165.355 379.058 165.35 378.899 165.309C378.827 165.291 378.673 165.245 378.525 165.125C378.344 164.98 378.159 164.704 378.203 164.34C378.238 164.053 378.4 163.872 378.468 163.804C378.551 163.72 378.64 163.658 378.707 163.616C378.844 163.531 379.015 163.452 379.202 163.376C379.497 163.256 379.821 163.318 380.049 163.509C380.082 163.463 380.125 163.392 380.172 163.284C380.258 163.087 380.331 162.832 380.394 162.531C380.456 162.233 380.502 161.92 380.544 161.613C380.55 161.568 380.556 161.523 380.562 161.478C380.597 161.227 380.632 160.97 380.672 160.762C380.711 160.562 380.746 160.321 380.788 160.034C380.793 159.997 380.799 159.959 380.804 159.92C380.852 159.593 380.908 159.223 380.982 158.856C381.122 158.169 381.36 157.299 381.899 156.723C382.834 155.724 383.827 155.523 384.871 155.35C385.22 155.292 385.556 155.294 385.812 155.297L385.832 155.297C386.105 155.3 386.271 155.302 386.413 155.281C386.536 155.262 386.568 155.236 386.579 155.226C386.593 155.213 386.665 155.142 386.732 154.891C386.832 154.512 386.807 154.111 386.764 153.529L386.762 153.506C386.722 152.971 386.671 152.284 386.86 151.568C387.168 150.406 387.495 149.172 388.239 148.011C388.851 147.055 389.638 146.585 390.55 146.474C391.378 146.373 392.249 146.582 393.017 146.781C393.461 146.896 393.728 147.349 393.613 147.794ZM379.586 165.028C379.583 165.03 379.583 165.03 379.586 165.028Z" fill="#00ADB5" fill-opacity="0.5"/>
<path fill-rule="evenodd" clip-rule="evenodd" d="M401.298 166.337C401.642 166.032 402.168 166.063 402.472 166.407C403.477 167.538 404.526 168.53 405.728 169.384C405.783 169.423 405.841 169.465 405.894 169.504C405.908 169.514 405.921 169.524 405.934 169.533C406.108 169.334 406.374 169.222 406.657 169.255C407.113 169.308 407.439 169.722 407.386 170.178C407.351 170.478 407.253 170.891 406.914 171.173C406.519 171.503 406.068 171.445 405.812 171.365C405.565 171.288 405.344 171.149 405.193 171.047C405.097 170.982 404.979 170.896 404.883 170.826C404.837 170.792 404.795 170.762 404.765 170.74C403.436 169.797 402.295 168.713 401.228 167.511C400.923 167.167 400.955 166.641 401.298 166.337Z" fill="#00ADB5" fill-opacity="0.5"/>
<path fill-rule="evenodd" clip-rule="evenodd" d="M408.879 155.67C409.097 155.265 409.601 155.115 410.005 155.333C411.641 156.215 413.256 157.137 414.858 158.057C414.913 157.985 414.981 157.922 415.061 157.869C415.445 157.618 415.961 157.725 416.212 158.11C416.242 158.155 416.275 158.219 416.286 158.239C416.286 158.241 416.287 158.242 416.287 158.243C416.308 158.283 416.335 158.336 416.365 158.396C416.423 158.515 416.498 158.675 416.563 158.833C416.614 158.959 416.705 159.188 416.727 159.403C416.733 159.465 416.74 159.572 416.716 159.696C416.693 159.816 416.623 160.048 416.397 160.225C416.154 160.417 415.885 160.426 415.717 160.399C415.562 160.374 415.445 160.314 415.382 160.277C415.161 160.15 414.94 160.023 414.719 159.896C412.888 158.843 411.065 157.794 409.216 156.796C408.811 156.578 408.66 156.074 408.879 155.67Z" fill="#00ADB5" fill-opacity="0.5"/>
<path fill-rule="evenodd" clip-rule="evenodd" d="M421.354 143.913C421.789 143.765 422.262 143.997 422.41 144.431C422.5 144.692 422.594 145.007 422.581 145.302C422.574 145.471 422.531 145.697 422.375 145.907C422.213 146.124 421.999 146.232 421.824 146.282C421.549 146.361 421.246 146.328 421.087 146.31C421.083 146.31 421.079 146.309 421.075 146.309C420.997 146.3 420.924 146.291 420.85 146.283C420.711 146.266 420.573 146.249 420.399 146.235C420.223 146.22 420.046 146.205 419.869 146.191C417.645 146.008 415.401 145.823 413.168 145.567C412.712 145.514 412.384 145.102 412.437 144.646C412.489 144.189 412.901 143.862 413.358 143.914C415.563 144.167 417.781 144.35 420.011 144.534C420.186 144.548 420.361 144.562 420.536 144.577C420.625 144.584 420.713 144.593 420.797 144.602C420.834 144.295 421.042 144.02 421.354 143.913ZM421.441 144.669C421.441 144.669 421.44 144.669 421.437 144.669C421.44 144.669 421.441 144.669 421.441 144.669Z" fill="#00ADB5" fill-opacity="0.5"/>
<path fill-rule="evenodd" clip-rule="evenodd" d="M411.662 127.08C411.991 126.76 412.517 126.767 412.838 127.096C412.911 127.171 412.983 127.245 413.052 127.315C413.173 127.437 413.281 127.546 413.357 127.63C413.419 127.696 413.5 127.789 413.566 127.892C413.61 127.961 413.78 128.226 413.718 128.58C413.642 129.019 413.302 129.204 413.165 129.262C413.025 129.322 412.884 129.344 412.808 129.356C412.714 129.37 412.574 129.383 412.43 129.397C412.346 129.406 412.261 129.414 412.183 129.423C411.64 129.482 411.147 129.602 410.602 129.734C410.301 129.807 409.985 129.884 409.636 129.956C407.642 130.371 405.873 130.249 403.966 130.087C403.508 130.048 403.169 129.646 403.207 129.188C403.246 128.731 403.649 128.391 404.106 128.43C406.012 128.592 407.564 128.688 409.297 128.328C409.534 128.278 409.795 128.216 410.069 128.15C410.5 128.046 410.965 127.934 411.429 127.853C411.37 127.582 411.448 127.288 411.662 127.08ZM412.593 127.705C412.594 127.705 412.592 127.706 412.589 127.706C412.592 127.706 412.593 127.705 412.593 127.705Z" fill="#00ADB5" fill-opacity="0.5"/>
<path fill-rule="evenodd" clip-rule="evenodd" d="M390.577 116.403C391 116.582 391.198 117.07 391.019 117.493C390.653 118.358 390.441 119.016 390.347 119.66C390.255 120.298 390.272 120.965 390.415 121.849C390.544 122.643 390.601 123.55 390.598 124.402C390.679 124.524 390.73 124.67 390.737 124.827C390.742 124.942 390.748 125.308 390.745 125.628C390.743 125.786 390.74 125.953 390.731 126.08C390.728 126.128 390.72 126.23 390.697 126.328C390.69 126.356 390.676 126.409 390.65 126.471L390.649 126.472C390.633 126.51 390.563 126.678 390.386 126.813C390.28 126.895 390.116 126.979 389.906 126.986C389.696 126.994 389.528 126.922 389.416 126.848C389.231 126.726 389.149 126.565 389.13 126.528L389.129 126.527C388.865 126.012 388.888 125.616 388.908 125.258C388.909 125.247 388.909 125.237 388.91 125.226C388.966 124.239 388.927 123.061 388.774 122.116C388.611 121.115 388.578 120.271 388.701 119.421C388.824 118.577 389.095 117.77 389.487 116.845C389.666 116.422 390.154 116.224 390.577 116.403ZM389.069 125.994C389.069 125.994 389.069 125.993 389.07 125.991Z" fill="#00ADB5" fill-opacity="0.5"/>
<path fill-rule="evenodd" clip-rule="evenodd" d="M374.838 120.242C375.297 120.227 375.682 120.586 375.697 121.046C375.726 121.926 375.804 122.804 375.885 123.707C375.897 123.847 375.91 123.988 375.922 124.129C376.013 125.171 376.097 126.243 376.089 127.323C376.087 127.6 376.074 127.843 376.045 128.033C376.032 128.119 376.009 128.246 375.958 128.371C375.934 128.431 375.881 128.545 375.778 128.657C375.667 128.777 375.44 128.949 375.11 128.936C374.805 128.924 374.609 128.759 374.526 128.676C374.438 128.586 374.384 128.495 374.356 128.441C374.298 128.331 374.26 128.215 374.235 128.126C374.181 127.937 374.133 127.689 374.09 127.399C374.044 127.085 374.18 126.786 374.418 126.609C374.396 125.844 374.335 125.07 374.265 124.275C374.253 124.137 374.241 123.999 374.228 123.86C374.148 122.96 374.065 122.031 374.034 121.101C374.019 120.642 374.379 120.257 374.838 120.242ZM374.397 127.807C374.397 127.807 374.397 127.805 374.398 127.803Z" fill="#00ADB5" fill-opacity="0.5"/>
<path fill-rule="evenodd" clip-rule="evenodd" d="M365.097 132.843C365.477 132.585 365.994 132.682 366.253 133.062C367.718 135.208 368.762 137.621 369.688 139.958C369.907 140.045 370.088 140.223 370.171 140.463C370.171 140.463 370.171 140.463 370.171 140.464C370.171 140.465 370.174 140.472 370.179 140.486L370.203 140.548C370.217 140.585 370.234 140.627 370.253 140.676C370.26 140.694 370.267 140.713 370.275 140.732C370.329 140.872 370.396 141.044 370.451 141.194C370.477 141.268 370.504 141.344 370.526 141.413C370.526 141.414 370.527 141.416 370.527 141.418C370.54 141.458 370.582 141.591 370.589 141.726L370.589 141.726C370.591 141.761 370.598 141.889 370.548 142.041C370.521 142.123 370.462 142.262 370.328 142.388C370.179 142.53 369.986 142.609 369.788 142.617C369.476 142.63 369.269 142.466 369.234 142.438C369.233 142.437 369.232 142.437 369.231 142.436C369.166 142.385 369.121 142.334 369.1 142.31C369.026 142.222 368.961 142.113 368.919 142.041C368.886 141.984 368.857 141.947 368.799 141.872C368.778 141.845 368.753 141.812 368.722 141.772C368.619 141.636 368.485 141.447 368.382 141.184C367.395 138.657 366.356 136.164 364.879 133.999C364.62 133.62 364.718 133.102 365.097 132.843ZM368.947 141.939C368.947 141.939 368.945 141.935 368.944 141.927C368.946 141.936 368.947 141.939 368.947 141.939Z" fill="#00ADB5" fill-opacity="0.5"/>
<path fill-rule="evenodd" clip-rule="evenodd" d="M519.693 287.393C520.493 287.282 521.365 287.334 521.938 287.545C523.213 288.015 524.271 288.982 525.136 290.05C526.004 291.122 526.708 292.334 527.26 293.346C527.583 293.938 528.002 294.56 528.455 295.224C528.485 295.268 528.515 295.312 528.545 295.356C528.967 295.974 529.412 296.626 529.806 297.295C530.644 298.718 531.313 300.315 531.023 302.003C530.503 305.027 528.472 306.893 526.019 307.961C523.579 309.023 520.68 309.318 518.275 309.208C514.108 309.016 509.421 306.811 507.493 302.801C506.91 301.588 506.522 300.086 506.501 298.595C506.48 297.106 506.826 295.585 507.761 294.383C510.198 291.25 512.962 289.904 516.497 289.067C516.504 288.905 516.505 288.798 516.5 288.751C516.469 288.476 516.667 288.229 516.941 288.198C517.179 288.172 517.396 288.317 517.47 288.534C517.496 288.499 517.522 288.465 517.546 288.431C517.788 288.101 518.138 287.871 518.503 287.712C518.871 287.551 519.285 287.449 519.693 287.393ZM517.754 289.816C517.894 289.787 518.037 289.759 518.181 289.731C518.452 289.679 518.63 289.417 518.577 289.146C518.56 289.053 518.517 288.971 518.458 288.905C518.563 288.807 518.71 288.712 518.903 288.628C519.167 288.513 519.488 288.431 519.83 288.383C520.53 288.286 521.223 288.347 521.592 288.483C522.626 288.864 523.547 289.677 524.359 290.679C525.168 291.678 525.837 292.826 526.382 293.824C526.733 294.468 527.18 295.129 527.629 295.788C527.658 295.83 527.686 295.872 527.715 295.914C528.141 296.538 528.568 297.164 528.944 297.802C529.753 299.175 530.265 300.509 530.037 301.834C529.591 304.432 527.862 306.068 525.62 307.044C523.364 308.026 520.63 308.315 518.321 308.209C514.396 308.028 510.115 305.947 508.394 302.368C507.871 301.278 507.52 299.919 507.501 298.581C507.482 297.243 507.796 295.968 508.55 294.997C510.741 292.18 513.196 290.912 516.454 290.106C516.454 290.108 516.454 290.109 516.454 290.111C516.458 290.142 516.465 290.206 516.489 290.275C516.501 290.308 516.528 290.373 516.583 290.44C516.642 290.511 516.755 290.605 516.925 290.622C517.086 290.639 517.208 290.576 517.27 290.533C517.331 290.49 517.371 290.443 517.392 290.417C517.434 290.363 517.462 290.307 517.479 290.272C517.548 290.125 517.642 289.974 517.754 289.816Z" fill="#00ADB5" fill-opacity="0.5"/>
<path fill-rule="evenodd" clip-rule="evenodd" d="M520.302 299.366C520.429 299.612 520.332 299.913 520.086 300.04C520.052 300.057 520.017 300.074 519.982 300.092C520.032 300.199 520.056 300.311 520.062 300.419C520.063 300.45 520.063 300.481 520.062 300.512C520.096 300.616 520.117 300.726 520.121 300.841C520.133 301.171 520.011 301.498 519.777 301.787C519.586 302.022 519.372 302.208 519.128 302.305C519.031 302.344 518.932 302.367 518.835 302.375C518.673 302.482 518.484 302.552 518.276 302.555C517.948 302.56 517.671 302.396 517.48 302.15C517.183 301.768 517.021 301.353 517.118 300.925C517.196 300.575 517.426 300.321 517.663 300.135C517.665 300.133 517.667 300.131 517.669 300.129C517.691 300.049 517.715 299.961 517.742 299.866C517.818 299.601 518.095 299.447 518.36 299.523C518.402 299.535 518.441 299.552 518.477 299.573C518.505 299.563 518.535 299.555 518.564 299.547C518.65 299.526 518.737 299.515 518.826 299.512C518.874 299.492 518.92 299.472 518.966 299.452C519.207 299.348 519.428 299.253 519.629 299.15C519.875 299.024 520.176 299.121 520.302 299.366Z" fill="#00ADB5" fill-opacity="0.5"/>
<path fill-rule="evenodd" clip-rule="evenodd" d="M514.923 294.973C515.143 294.806 515.457 294.849 515.624 295.069C515.915 295.454 516.211 295.836 516.506 296.219C517.421 297.404 518.334 298.586 519.114 299.811C519.251 300.027 519.308 300.242 519.331 300.421C519.399 300.414 519.469 300.407 519.54 300.399C519.6 300.393 519.662 300.386 519.725 300.38C520.023 300.349 520.343 300.321 520.675 300.321C521.297 300.321 521.859 300.17 522.484 299.998C522.497 299.995 522.51 299.991 522.524 299.988C523.121 299.823 523.785 299.64 524.52 299.64C524.909 299.64 525.34 299.614 525.722 299.558C526.071 299.507 526.334 299.436 526.492 299.362C526.456 299.327 526.406 299.284 526.338 299.233C526.18 299.116 525.95 298.977 525.629 298.816C525.382 298.692 525.282 298.392 525.405 298.145C525.529 297.898 525.829 297.798 526.076 297.922C526.428 298.098 526.713 298.267 526.934 298.43C527.149 298.59 527.333 298.767 527.446 298.969C527.57 299.188 527.615 299.452 527.507 299.712C527.411 299.946 527.223 300.096 527.062 300.191C526.742 300.379 526.293 300.485 525.868 300.547C525.428 300.612 524.947 300.64 524.52 300.64C523.925 300.64 523.378 300.789 522.749 300.963L522.742 300.965C522.132 301.133 521.448 301.321 520.675 301.321C520.396 301.321 520.118 301.345 519.826 301.375C519.77 301.38 519.714 301.386 519.656 301.392C519.421 301.417 519.174 301.443 518.932 301.457C518.777 301.465 518.59 301.41 518.464 301.243C518.369 301.118 518.353 300.986 518.348 300.94C518.342 300.881 518.342 300.824 518.343 300.79C518.343 300.77 518.344 300.755 518.344 300.742C518.345 300.723 518.345 300.706 518.345 300.683C518.347 300.552 518.333 300.447 518.27 300.348C517.517 299.165 516.644 298.033 515.736 296.858C515.435 296.469 515.131 296.075 514.827 295.673C514.66 295.453 514.703 295.14 514.923 294.973Z" fill="#00ADB5" fill-opacity="0.5"/>
<path fill-rule="evenodd" clip-rule="evenodd" d="M514.288 288.713C514.313 288.819 514.336 288.918 514.353 289.007C514.406 289.277 514.232 289.539 513.964 289.594C513.99 289.642 514.037 289.713 514.117 289.814C514.159 289.867 514.188 289.886 514.2 289.892C514.209 289.897 514.215 289.898 514.224 289.899C514.256 289.9 514.329 289.887 514.472 289.811C514.566 289.761 514.641 289.714 514.729 289.659C514.789 289.62 514.856 289.578 514.939 289.529C515.093 289.437 515.336 289.302 515.605 289.286C516.054 289.26 516.351 289.149 516.538 289.018C516.717 288.892 516.816 288.732 516.856 288.545C516.941 288.147 516.766 287.525 516.186 286.88C516.091 286.775 515.992 286.656 515.896 286.542C515.861 286.5 515.826 286.458 515.792 286.418C515.661 286.262 515.532 286.115 515.397 285.983C515.123 285.715 514.87 285.557 514.609 285.519C514.351 285.482 514.191 285.502 514.09 285.539C514.093 285.599 514.085 285.66 514.065 285.72C514.036 285.806 513.998 285.902 513.964 285.989C513.956 286.01 513.948 286.031 513.94 286.051C513.898 286.16 513.86 286.264 513.829 286.368C513.821 286.395 513.814 286.422 513.808 286.447C513.821 286.651 513.853 286.87 513.896 287.097C513.928 287.145 513.966 287.19 514.011 287.245C514.031 287.269 514.053 287.295 514.076 287.324C514.153 287.419 514.25 287.551 514.311 287.736C514.373 287.922 514.386 288.122 514.359 288.345C514.344 288.479 514.318 288.602 514.288 288.713ZM512.803 286.367C512.789 285.917 512.85 285.417 513.144 285.036C513.499 284.574 514.071 284.432 514.751 284.529C515.321 284.611 515.762 284.941 516.097 285.268C516.266 285.434 516.42 285.611 516.557 285.773C516.599 285.823 516.638 285.87 516.676 285.915C516.766 286.024 516.848 286.121 516.929 286.211C517.62 286.979 518.013 287.917 517.834 288.755C517.741 289.186 517.5 289.564 517.114 289.836C516.736 290.102 516.244 290.25 515.666 290.284C515.664 290.285 515.648 290.288 515.615 290.302C515.573 290.319 515.519 290.347 515.449 290.389C515.414 290.41 515.367 290.439 515.315 290.472C515.202 290.543 515.06 290.632 514.94 290.695C514.75 290.795 514.485 290.909 514.187 290.898C513.854 290.885 513.564 290.724 513.336 290.438C513.148 290.203 513.005 289.973 512.952 289.728C512.891 289.452 512.957 289.23 513.038 289.059C513.081 288.967 513.122 288.894 513.16 288.826C513.191 288.772 513.219 288.721 513.245 288.668C513.232 288.617 513.218 288.565 513.204 288.51C513.163 288.353 513.118 288.182 513.072 287.997C513.028 287.819 512.984 287.632 512.945 287.442C512.902 287.353 512.862 287.252 512.829 287.137C512.752 286.865 512.762 286.6 512.803 286.367Z" fill="#00ADB5" fill-opacity="0.5"/>
<path fill-rule="evenodd" clip-rule="evenodd" d="M514.205 284.934C514.394 284.889 514.575 284.923 514.727 284.98C514.827 285.018 514.915 285.066 514.993 285.122C515.179 285.168 515.428 285.232 515.667 285.313C515.835 285.369 516.013 285.438 516.173 285.522C516.325 285.602 516.505 285.717 516.634 285.883C516.767 286.053 517.042 286.519 517.274 286.963C517.393 287.192 517.51 287.432 517.598 287.644C517.642 287.75 517.682 287.856 517.712 287.955C517.739 288.044 517.769 288.165 517.769 288.287C517.769 289.152 517.111 289.73 516.468 290.029C516.437 290.043 516.406 290.057 516.374 290.07C516.14 290.449 515.781 290.685 515.438 290.839C515.227 290.934 514.972 290.98 514.719 290.88C514.471 290.782 514.327 290.585 514.245 290.415C514.22 290.363 514.198 290.309 514.179 290.252C514.145 290.279 514.109 290.305 514.072 290.33C514.018 290.366 513.921 290.424 513.797 290.443C513.734 290.452 513.615 290.46 513.485 290.398C513.332 290.325 513.233 290.187 513.202 290.036C513.176 289.909 513.204 289.804 513.224 289.748C513.246 289.686 513.276 289.636 513.301 289.601C513.353 289.529 513.416 289.471 513.478 289.426C513.546 289.377 513.624 289.335 513.712 289.302C513.8 289.182 513.876 289.031 513.939 288.876C513.963 288.817 513.983 288.763 514.001 288.714C514.003 288.709 514.005 288.703 514.007 288.698C514.011 288.686 514.016 288.674 514.02 288.661C513.892 288.589 513.779 288.487 513.69 288.362C513.507 288.107 513.423 287.77 513.423 287.394C513.423 287.244 513.442 287.103 513.48 286.972C513.439 286.87 513.412 286.764 513.402 286.656C513.373 286.36 513.464 286.081 513.625 285.866C513.615 285.685 513.636 285.452 513.763 285.252C513.855 285.106 514.003 284.982 514.205 284.934Z" fill="#00ADB5" fill-opacity="0.5"/>
<path fill-rule="evenodd" clip-rule="evenodd" d="M514.757 308.135C515.007 308.252 515.114 308.55 514.996 308.8C514.825 309.164 514.657 309.532 514.487 309.902C513.986 310.998 513.478 312.11 512.863 313.167C512.816 313.31 512.768 313.454 512.721 313.594C512.592 313.979 512.464 314.344 512.372 314.553C512.349 314.605 512.32 314.665 512.287 314.719C512.272 314.743 512.242 314.79 512.197 314.835C512.174 314.858 512.132 314.897 512.072 314.93C512.01 314.963 511.902 315.005 511.763 314.988C511.452 314.948 511.356 314.681 511.342 314.639C511.317 314.565 511.313 314.498 511.312 314.468C511.309 314.398 511.315 314.322 511.322 314.254C511.353 313.981 511.483 313.661 511.599 313.412C511.716 313.162 511.848 312.921 511.945 312.755C511.984 312.637 512.022 312.519 512.06 312.403C512.226 311.893 512.378 311.426 512.447 311.258C512.525 311.069 512.705 310.953 512.898 310.948C513.123 310.48 513.34 310.005 513.561 309.523C513.734 309.144 513.909 308.761 514.092 308.374C514.21 308.124 514.508 308.017 514.757 308.135Z" fill="#00ADB5" fill-opacity="0.5"/>
<path fill-rule="evenodd" clip-rule="evenodd" d="M527.994 305.334C528.211 305.162 528.525 305.199 528.697 305.415C529.308 306.188 529.937 306.874 530.568 307.562C530.814 307.831 531.06 308.1 531.306 308.374C532.128 309.292 532.926 310.254 533.602 311.409C533.665 311.481 533.727 311.55 533.787 311.617C534.001 311.857 534.186 312.067 534.279 312.179C534.301 312.205 534.326 312.236 534.345 312.262C534.347 312.264 534.38 312.308 534.406 312.364C534.413 312.38 534.431 312.422 534.442 312.479L534.442 312.479C534.448 312.511 534.483 312.695 534.352 312.872C534.189 313.091 533.951 313.079 533.879 313.068C533.799 313.057 533.742 313.029 533.724 313.02C533.682 312.999 533.651 312.976 533.643 312.97L533.643 312.969C533.63 312.959 533.619 312.95 533.611 312.944C533.596 312.931 533.581 312.917 533.568 312.905C533.542 312.881 533.509 312.848 533.469 312.808C533.433 312.772 533.395 312.736 533.351 312.694C533.345 312.689 533.34 312.684 533.334 312.678C533.285 312.631 533.229 312.578 533.174 312.521C533.064 312.409 532.939 312.267 532.842 312.094C532.824 312.063 532.806 312.031 532.788 311.999C532.728 311.933 532.667 311.865 532.606 311.796C532.276 311.426 531.938 311.049 531.742 310.822C531.619 310.681 531.59 310.49 531.649 310.326C531.304 309.886 530.939 309.463 530.561 309.042C530.331 308.784 530.094 308.525 529.853 308.263C529.214 307.565 528.548 306.839 527.913 306.036C527.741 305.82 527.778 305.505 527.994 305.334Z" fill="#00ADB5" fill-opacity="0.5"/>
<path fill-rule="evenodd" clip-rule="evenodd" d="M28.0264 591.629C28.2311 591.815 28.2467 592.131 28.0614 592.336C27.7939 592.631 26.4995 594.202 24.8472 596.219C25.1673 596.026 25.4879 595.842 25.7998 595.662C26.1227 595.476 26.4363 595.295 26.7303 595.117C27.1808 594.844 27.6143 594.56 28.0319 594.237C28.3398 593.302 28.812 592.714 29.2334 592.466C29.3704 592.385 29.5954 592.286 29.8422 592.34C29.9847 592.371 30.1269 592.453 30.2226 592.598C30.3124 592.734 30.3313 592.879 30.3268 592.99C30.3185 593.199 30.2244 593.401 30.1177 593.571C30.0033 593.752 29.8395 593.952 29.6242 594.168C29.3866 594.405 29.1448 594.622 28.9001 594.824C28.8342 595.074 28.7796 595.359 28.7436 595.683C28.6251 596.75 28.586 599.213 28.5566 601.876C28.5989 601.864 28.6483 601.854 28.7025 601.852C28.8333 601.847 29.0275 601.889 29.1615 602.068C29.384 601.813 29.5862 601.583 29.7414 601.411C29.8676 601.272 30.0015 601.126 30.084 601.061C30.0972 601.05 30.128 601.026 30.1693 601.004C30.1891 600.993 30.2307 600.972 30.287 600.958C30.3334 600.946 30.4654 600.918 30.6158 600.984C30.8002 601.065 30.8814 601.225 30.9057 601.342C30.9259 601.439 30.9119 601.518 30.9058 601.547C30.8926 601.612 30.869 601.661 30.862 601.676L30.862 601.676C30.8473 601.707 30.828 601.74 30.8071 601.773C30.891 601.805 30.9877 601.861 31.0663 601.96C31.1608 602.079 31.1919 602.213 31.1929 602.325C31.1946 602.515 31.1101 602.681 31.0505 602.784C30.9803 602.905 30.8826 603.039 30.7638 603.186C30.525 603.48 30.1618 603.87 29.6535 604.378C29.576 604.456 29.503 604.523 29.4353 604.578C29.3778 604.624 29.2855 604.692 29.1734 604.73C29.1158 604.75 29.0077 604.778 28.8775 604.751C28.7262 604.721 28.6028 604.628 28.5286 604.505C28.5094 606.199 28.4847 607.806 28.4357 608.999C28.4106 609.607 28.3788 610.119 28.3365 610.484C28.3158 610.662 28.2902 610.826 28.2552 610.955C28.2389 611.014 28.2117 611.101 28.1631 611.182C28.1334 611.232 27.9785 611.477 27.6614 611.458C25.8776 611.353 24.4278 610.422 23.1078 609.463C22.8921 609.307 22.6802 609.15 22.4707 608.994C22.1976 608.792 21.9285 608.593 21.6603 608.401C21.6266 608.419 21.5933 608.436 21.5604 608.452C21.3115 608.571 20.9357 608.697 20.5806 608.532C20.1849 608.348 20.0722 607.936 20.0527 607.594C20.0487 607.524 20.0461 607.454 20.0447 607.383C19.8535 607.284 19.6597 607.193 19.4622 607.111C19.4102 607.199 19.375 607.257 19.3572 607.282L19.3569 607.283C19.3537 607.287 19.3375 607.31 19.3146 607.336C19.3071 607.344 19.2882 607.362 19.2765 607.373C19.2575 607.389 19.2017 607.428 19.1636 607.448C19.0837 607.479 18.842 607.488 18.6945 607.432C18.5726 607.333 18.4598 607.122 18.446 607.039C18.4444 606.996 18.4493 606.929 18.4533 606.905C18.4565 606.889 18.4629 606.864 18.4659 606.853C18.4662 606.852 18.4664 606.852 18.4666 606.851C18.219 606.823 17.9335 606.805 17.6195 606.796C17.1725 606.782 16.706 606.785 16.2515 606.788C16.2319 606.788 16.2124 606.789 16.1929 606.789C16.1339 606.859 16.0835 606.919 16.0423 606.968C15.9909 607.029 15.948 607.079 15.92 607.109C15.913 607.117 15.9027 607.128 15.8913 607.139C15.886 607.145 15.8756 607.155 15.8623 607.166C15.8555 607.172 15.8391 607.185 15.8291 607.193C15.8132 607.204 15.7677 607.231 15.7371 607.246C15.6703 607.271 15.4368 607.281 15.2829 607.223C15.1585 607.114 15.0677 606.905 15.0433 606.783C14.9564 606.78 14.8725 606.776 14.7923 606.771C14.5417 606.756 14.2932 606.73 14.0942 606.672C13.9961 606.644 13.8736 606.598 13.7646 606.516C13.6469 606.427 13.5189 606.273 13.5018 606.049C13.4861 605.844 13.5725 605.681 13.6451 605.58C13.7202 605.475 13.8185 605.383 13.9199 605.302C15.1574 604.312 17.3549 602.627 19.4518 601.072C19.9828 600.433 20.5295 599.807 21.1102 599.208C23.9729 595.705 26.8871 592.143 27.3201 591.664C27.5055 591.46 27.8217 591.444 28.0264 591.629ZM16.9045 604.244C16.1574 604.816 15.478 605.344 14.9294 605.777C15.141 605.787 15.3866 605.791 15.6579 605.791C15.6631 605.791 15.6682 605.791 15.6734 605.791C15.9578 605.431 16.3624 604.923 16.9045 604.244ZM17.0212 605.786C17.2331 605.787 17.4446 605.79 17.6498 605.796C18.1068 605.81 18.5729 605.841 18.9774 605.916C19.0426 605.803 19.1137 605.68 19.19 605.549C19.762 604.474 20.5649 602.857 21.2464 601.473C21.374 601.213 21.4973 600.963 21.6137 600.725C21.2493 600.99 20.8721 601.266 20.4888 601.549C20.1657 601.944 19.8486 602.332 19.5413 602.708C18.5543 603.916 17.6699 604.997 17.0212 605.786ZM19.9568 606.235C19.9912 606.171 20.0266 606.105 20.0628 606.037C20.0988 605.976 20.136 605.912 20.1742 605.847C20.1485 606 20.1261 606.152 20.1075 606.302C20.0575 606.279 20.0073 606.257 19.9568 606.235ZM21.672 607.192C21.4718 607.059 21.2684 606.93 21.0614 606.806C21.1353 605.82 21.4317 604.649 21.8271 603.454C21.9061 603.215 21.9884 602.977 22.0729 602.741C22.364 602.287 22.6617 601.833 22.9566 601.4C23.6767 600.341 24.3612 599.431 24.8845 598.907C25.0731 598.719 25.22 598.562 25.3232 598.437C25.3742 598.375 25.4229 598.311 25.4618 598.249L25.462 598.248C25.4869 598.208 25.563 598.085 25.5697 597.927C25.574 597.828 25.5517 597.675 25.4303 597.544C25.3148 597.42 25.1751 597.387 25.096 597.378C24.9823 597.366 24.8808 597.391 24.8231 597.41C25.3162 597.094 25.7841 596.825 26.2557 596.554C26.5818 596.366 26.9096 596.178 27.2489 595.972C27.413 595.873 27.5768 595.771 27.74 595.665C27.6119 596.939 27.5779 599.785 27.5481 602.657C27.5293 602.676 27.5103 602.695 27.491 602.715C27.3481 602.744 27.2289 602.759 27.135 602.759C27.0797 602.758 27.0471 602.754 27.0298 602.749C26.9275 602.62 26.7712 602.553 26.6147 602.56C26.6151 602.53 26.6132 602.468 26.5898 602.395C26.5618 602.309 26.4659 602.114 26.2212 602.059C26.0224 602.015 25.8762 602.104 25.8427 602.125C25.7921 602.157 25.7582 602.191 25.7437 602.206C25.7122 602.238 25.6894 602.27 25.6786 602.286C25.6536 602.322 25.6282 602.364 25.605 602.404C25.5106 602.568 25.3413 602.895 25.0785 603.421C25.0795 603.419 25.0754 603.427 25.0622 603.448C25.0499 603.468 25.0331 603.494 25.0112 603.526C24.9673 603.59 24.9082 603.673 24.8347 603.772C24.6881 603.969 24.4911 604.221 24.2602 604.503C23.7978 605.068 23.2083 605.742 22.6272 606.326C22.2817 606.672 21.9559 606.97 21.672 607.192ZM22.5224 607.789C22.7162 607.93 22.9073 608.072 23.0961 608.212C23.2984 608.363 23.498 608.511 23.6955 608.654C24.8922 609.524 26.0313 610.237 27.3368 610.422C27.3389 610.404 27.3411 610.387 27.3432 610.368C27.381 610.043 27.4117 609.561 27.4365 608.957C27.4782 607.942 27.5023 606.615 27.5205 605.18C27.4578 605.184 27.3683 605.178 27.2724 605.132C27.0624 605.031 27.0049 604.854 26.991 604.736C26.3119 605.519 25.6323 606.364 25.2355 606.941C25.1352 607.087 25.0418 607.212 24.9574 607.299C24.9204 607.337 24.8517 607.404 24.7585 607.451C24.7103 607.476 24.6203 607.514 24.5032 607.512C24.3675 607.51 24.2331 607.456 24.133 607.352C24.0461 607.262 24.0127 607.163 23.9988 607.107C23.984 607.048 23.981 606.995 23.9807 606.959C23.98 606.889 23.9899 606.821 23.9995 606.768C24.0194 606.66 24.055 606.532 24.0963 606.399C24.1222 606.316 24.1525 606.225 24.1864 606.127C23.9121 606.434 23.6238 606.742 23.3357 607.031C23.0697 607.298 22.7939 607.559 22.5224 607.789ZM26.3142 603.454C26.239 603.64 26.1532 603.851 26.0627 604.072C26.0095 604.203 25.9546 604.338 25.8994 604.474C26.134 604.196 26.3738 603.92 26.608 603.659C26.5028 603.612 26.4018 603.546 26.3142 603.454ZM30.554 602.73C30.554 602.73 30.5528 602.73 30.5506 602.73ZM24.2335 606.608C24.2335 606.608 24.2349 606.607 24.2376 606.605C24.2348 606.607 24.2334 606.609 24.2335 606.608ZM27.2856 610.707C27.2856 610.707 27.2858 610.707 27.2863 610.705ZM27.0135 602.744C27.0137 602.744 27.0154 602.745 27.0182 602.746C27.0148 602.745 27.0134 602.744 27.0135 602.744ZM25.1216 598.364C25.1327 598.36 25.1311 598.362 25.1197 598.365C25.1203 598.365 25.1209 598.364 25.1216 598.364ZM24.6113 597.723C24.6107 597.723 24.6101 597.725 24.6093 597.726C24.6155 597.714 24.618 597.712 24.6113 597.723ZM29.7697 593.313C29.7697 593.314 29.7666 593.315 29.7609 593.317C29.7669 593.314 29.7698 593.313 29.7697 593.313Z" fill="#00ADB5" fill-opacity="0.5"/>
<path fill-rule="evenodd" clip-rule="evenodd" d="M217.564 18.3602C217.564 18.3918 217.564 18.4234 217.564 18.4549C217.569 18.431 217.574 18.4071 217.579 18.3833C217.574 18.3756 217.569 18.3679 217.564 18.3602ZM218.328 17.7037C218.14 17.4244 217.973 17.1909 217.835 17.0149C217.719 16.8674 217.584 16.7097 217.452 16.6172C217.416 16.5913 217.356 16.554 217.28 16.5287C217.205 16.504 217.062 16.4743 216.903 16.5394C216.731 16.6094 216.644 16.7458 216.606 16.8455C216.571 16.9367 216.567 17.02 216.567 17.0689C216.567 17.3142 216.566 17.557 216.565 17.7976C216.558 19.499 216.552 21.0907 216.874 22.7046C216.771 23.3293 216.654 23.9447 216.505 24.5479C216.009 26.546 215.167 28.3759 213.331 29.8445C213.335 29.8415 213.334 29.8418 213.328 29.8449C213.312 29.8525 213.259 29.8773 213.145 29.9136C213.003 29.9585 212.817 30.006 212.588 30.0603C212.466 30.0889 212.334 30.1191 212.194 30.1512C211.815 30.2378 211.375 30.3384 210.927 30.4591C210.409 30.5986 209.86 30.7702 209.343 30.9915C209.328 30.9776 209.312 30.9643 209.295 30.9518C209.184 30.8703 209.07 30.8489 209.002 30.8423C208.93 30.8352 208.864 30.8405 208.812 30.8476C208.709 30.8618 208.596 30.893 208.482 30.9309C207.287 31.3291 206.128 32.0961 205.047 32.8799C204.791 33.0653 204.541 33.2509 204.294 33.4341C204.243 33.4122 204.191 33.389 204.138 33.3644C203.532 33.0801 202.9 32.6347 202.189 32.1206C202.141 32.086 202.093 32.051 202.045 32.0159C201.387 31.5396 200.672 31.0213 199.903 30.5891C199.068 30.1191 197.025 28.6233 195.241 27.2843C194.357 26.6209 193.55 26.0053 193.005 25.5897C192.92 25.5242 192.84 25.4636 192.768 25.4085C192.612 25.2892 192.49 25.1958 192.41 25.135C192.358 25.0956 192.31 25.0589 192.287 25.0434L192.274 25.0348L192.274 25.0348C192.271 25.0325 192.258 25.0241 192.241 25.0148C192.231 25.0094 192.201 24.9954 192.182 24.9874C192.138 24.9724 191.936 24.9572 191.786 25.0013C191.566 25.2049 191.522 25.6009 191.564 25.6976C191.582 25.7281 191.614 25.7706 191.625 25.7838C191.641 25.8026 191.656 25.8163 191.659 25.8193L191.66 25.8196C191.665 25.8247 191.67 25.8289 191.673 25.8312L191.686 25.843C191.699 25.8535 191.718 25.8685 191.739 25.8856C191.856 25.9793 191.991 26.2106 192.095 26.6493C192.194 27.0676 192.246 27.5855 192.273 28.1414C192.295 28.6018 192.3 29.0695 192.305 29.5113C192.306 29.6014 192.307 29.6903 192.308 29.7779C192.314 30.2789 192.324 30.761 192.376 31.1009C192.621 32.6931 193.298 34.2337 193.942 35.6969C193.974 35.7713 194.007 35.8455 194.039 35.9195C194.137 36.4769 194.234 37.0209 194.328 37.541C194.61 39.1019 194.872 40.4616 195.08 41.3051C195.075 41.3755 195.08 41.4495 195.101 41.5247C195.122 41.5985 195.153 41.662 195.19 41.7157C195.24 41.8879 195.294 42.0474 195.353 42.1659C195.378 42.216 195.439 42.3345 195.553 42.4227C195.618 42.4734 195.741 42.5453 195.909 42.5373C196.085 42.5288 196.208 42.4383 196.276 42.3646C196.322 42.3151 196.355 42.2611 196.378 42.211C196.527 42.2317 196.68 42.2485 196.83 42.2629C197.114 42.29 197.415 42.3104 197.687 42.3288C197.78 42.3352 197.87 42.3413 197.955 42.3474C198.318 42.3733 198.537 42.3968 198.614 42.4187C200.778 43.0371 202.538 42.4903 204.161 41.6474C204.777 41.3272 205.389 40.9563 205.992 40.5901C206.171 40.4812 206.35 40.3727 206.528 40.266C207.315 39.7948 208.104 39.3493 208.946 39.0073C210.527 38.365 212.202 37.4838 213.89 36.5955C214.65 36.1958 215.413 35.7946 216.171 35.4131C217.027 34.9822 217.881 34.5743 218.728 34.2136C218.831 34.2706 218.977 34.313 219.147 34.2668C219.332 34.2164 219.434 34.0882 219.48 34.0195C219.509 33.9746 219.533 33.9264 219.553 33.8778C220.873 33.365 222.175 32.9873 223.445 32.838C223.574 32.8228 223.696 32.8062 223.81 32.788C223.934 32.7923 224.053 32.7911 224.158 32.7811C224.268 32.7706 224.463 32.7441 224.622 32.6244C224.669 32.5894 224.71 32.551 224.746 32.5103C224.808 32.4739 224.868 32.4308 224.921 32.3791C225.045 32.26 225.147 32.081 225.135 31.8569C225.127 31.6973 225.062 31.5694 224.997 31.4774C224.987 31.3557 224.97 31.2303 224.947 31.1032C224.846 30.5306 224.616 29.8103 224.308 29.0155C223.69 27.4188 222.724 25.427 221.717 23.5225C220.708 21.6159 219.65 19.7812 218.841 18.4955C218.781 18.4005 218.723 18.3082 218.665 18.2188C218.665 18.1919 218.663 18.1381 218.651 18.0818L218.651 18.08C218.647 18.0614 218.626 17.959 218.548 17.8617C218.509 17.8135 218.437 17.7435 218.328 17.7037ZM217.108 26.0446C216.554 27.6608 215.672 29.1949 214.121 30.4905C214.514 30.4942 214.928 30.5168 215.351 30.5515C216.076 30.6111 216.856 30.7092 217.642 30.8247C217.353 29.2508 217.161 27.5478 217.108 26.0446ZM217.851 31.8673C216.959 31.7308 216.076 31.6144 215.27 31.5482C214.083 31.4508 213.145 31.4709 212.597 31.6471C210.905 32.1911 209.324 32.8041 207.735 33.5312C207.174 34.0983 206.599 34.4467 205.995 34.5932C205.661 34.8479 205.367 35.0735 205.149 35.248C205.121 35.2709 205.087 35.2966 205.052 35.3189C205.036 35.3294 205.008 35.3468 204.972 35.3629C204.972 35.3631 204.971 35.3634 204.971 35.3637C204.953 35.3718 204.845 35.4225 204.704 35.4078C204.609 35.3979 204.47 35.3543 204.364 35.2235C204.265 35.1009 204.252 34.9701 204.252 34.9005C204.254 34.7839 204.297 34.6972 204.305 34.6795L204.306 34.678C204.308 34.6743 204.31 34.6706 204.311 34.667C203.687 35.1277 203.063 35.5733 202.459 35.9314C201.544 36.4732 200.776 36.8687 200.126 37.2038C200.091 37.2218 200.056 37.2396 200.022 37.2573C199.343 37.6071 198.814 37.8844 198.356 38.2044C197.646 38.7004 197.082 39.3154 196.484 40.5265C196.495 40.6939 196.501 40.8621 196.501 41.031C196.501 41.0961 196.501 41.1585 196.5 41.2182C196.628 41.2363 196.77 41.2526 196.925 41.2674C197.194 41.2931 197.474 41.3121 197.742 41.3303C197.839 41.3368 197.934 41.3433 198.027 41.3499C198.344 41.3726 198.688 41.3998 198.889 41.4572C200.71 41.9777 202.195 41.5416 203.7 40.76C204.284 40.4566 204.856 40.1094 205.454 39.7469C205.638 39.6351 205.824 39.522 206.014 39.4081C206.811 38.9312 207.653 38.453 208.569 38.0809C210.104 37.4574 211.705 36.6149 213.369 35.7392C214.14 35.3337 214.924 34.9211 215.721 34.5198C216.546 34.1046 217.383 33.7031 218.225 33.3412C218.215 33.3082 218.205 33.2743 218.195 33.2395C218.072 32.8104 217.957 32.3494 217.851 31.8673ZM219.703 32.7529C220.087 32.6136 220.472 32.4855 220.856 32.371C220.723 32.348 220.588 32.3245 220.451 32.3008C220.209 32.2587 219.962 32.2157 219.711 32.1726C219.712 32.378 219.709 32.5728 219.703 32.7529ZM219.687 31.1539C220.014 31.2097 220.333 31.2652 220.641 31.3188C221.38 31.4473 222.058 31.5652 222.635 31.6521C223.069 31.7175 223.429 31.7626 223.702 31.7811C223.664 31.7635 223.624 31.7455 223.583 31.7273C223.207 31.5617 222.755 31.397 222.327 31.2411C222.228 31.205 222.13 31.1694 222.034 31.1343C221.788 31.0438 221.554 30.9551 221.373 30.8748C221.284 30.8351 221.194 30.7915 221.116 30.7448C221.078 30.7214 221.033 30.6913 220.989 30.6541C220.951 30.6216 220.882 30.5573 220.832 30.4585C220.709 30.2115 220.809 29.9112 221.056 29.7877C221.261 29.6853 221.502 29.7366 221.649 29.898C221.676 29.9127 221.718 29.9336 221.779 29.9608C221.926 30.0263 222.132 30.1047 222.38 30.1958C222.467 30.228 222.56 30.2616 222.655 30.2964C223.034 30.4344 223.464 30.5907 223.841 30.7498C223.734 30.3578 223.576 29.8955 223.375 29.3765C222.778 27.8331 221.833 25.8811 220.833 23.9901C220.046 22.5017 219.229 21.0607 218.53 19.8997C218.511 20.1029 218.489 20.3174 218.467 20.5389L218.46 20.6063C218.359 21.6254 218.245 22.7813 218.171 23.735C218.334 24.2402 218.54 24.7499 218.801 25.2715C218.938 25.546 219.05 25.9274 219.144 26.3457C219.24 26.773 219.324 27.2732 219.397 27.805C219.542 28.8689 219.643 30.0826 219.686 31.139C219.687 31.144 219.687 31.1489 219.687 31.1539ZM218.123 26.3726C218.138 26.4333 218.153 26.4974 218.168 26.5647C218.256 26.9554 218.336 27.4258 218.406 27.9403C218.535 28.8799 218.627 29.9473 218.675 30.9094C218.392 29.4374 218.194 27.8225 218.123 26.3726ZM196.23 38.9639C196.692 38.2839 197.188 37.8009 197.783 37.3847C198.306 37.0198 198.895 36.7129 199.564 36.3684C199.597 36.3512 199.631 36.3338 199.664 36.3164C200.316 35.9811 201.061 35.5975 201.949 35.0711C202.419 34.7927 202.896 34.462 203.387 34.1049C202.79 33.7835 202.193 33.3576 201.603 32.9308C201.558 32.8981 201.513 32.8654 201.467 32.8326C200.801 32.3498 200.129 31.8636 199.413 31.4606C198.506 30.9502 196.398 29.4036 194.641 28.0841C194.236 27.7804 193.848 27.4868 193.493 27.2178C193.831 28.8852 194.244 31.2599 194.652 33.6109C194.77 34.2912 194.888 34.9695 195.004 35.6281C195.033 35.6948 195.062 35.7617 195.091 35.8287C195.531 36.8392 195.963 37.8849 196.23 38.9639ZM205.179 35.1611C205.179 35.1611 205.179 35.1612 205.179 35.1612C205.177 35.1632 205.177 35.1643 205.177 35.1645" fill="#00ADB5" fill-opacity="0.5"/>
<path fill-rule="evenodd" clip-rule="evenodd" d="M568.306 113.151C568.5 113.084 568.726 112.989 568.99 112.858C569.407 112.649 570.155 112.122 570.822 111.483C570.393 111.561 569.961 111.672 569.553 111.809C569.414 111.856 569.28 111.905 569.151 111.955C568.816 112.323 568.525 112.736 568.306 113.151ZM568.572 111.112C568.297 111.228 568.035 111.357 567.797 111.495C567.891 111.126 568.051 110.744 568.267 110.376C568.655 109.716 569.196 109.149 569.774 108.817C570.348 108.486 570.914 108.406 571.42 108.617C571.727 108.745 571.903 108.884 572.002 109.008C572.095 109.125 572.137 109.248 572.14 109.389C572.143 109.496 572.124 109.617 572.082 109.75C571.623 109.617 571.145 109.637 570.685 109.764C569.95 109.967 569.25 110.443 568.667 111.017C568.635 111.048 568.604 111.08 568.572 111.112ZM572.367 111.369C572.341 111.367 572.314 111.366 572.288 111.365C572.232 111.434 572.175 111.504 572.116 111.572C572.201 111.503 572.285 111.435 572.367 111.369ZM568.09 114.59C568.072 114.582 568.055 114.572 568.037 114.563C567.984 114.534 567.932 114.503 567.882 114.472C567.876 114.562 567.876 114.646 567.883 114.725C567.951 114.682 568.02 114.636 568.09 114.59ZM566.974 115.271C566.964 115.232 566.953 115.192 566.943 115.152C566.864 114.833 566.86 114.492 566.913 114.147C566.836 114.114 566.764 114.076 566.695 114.034C566.664 114.084 566.633 114.135 566.603 114.186C566.31 114.685 566.122 115.189 566.09 115.653C566.227 115.62 566.435 115.544 566.721 115.403C566.802 115.363 566.887 115.318 566.974 115.271ZM565.988 113.289C565.901 113.416 565.818 113.547 565.74 113.68C565.369 114.312 565.085 115.046 565.085 115.792C565.085 116.004 565.14 116.251 565.333 116.44C565.525 116.627 565.767 116.673 565.96 116.672C566.323 116.671 566.753 116.503 567.165 116.299C567.212 116.275 567.261 116.251 567.31 116.225C567.639 116.942 568.082 117.438 568.634 117.707C569.432 118.094 570.306 117.933 571.074 117.558C571.846 117.181 572.587 116.556 573.2 115.866C573.813 115.176 574.325 114.392 574.62 113.67C575.063 112.589 574.999 111.678 574.365 111.067C574.355 111.057 574.345 111.047 574.335 111.038C574.341 111.033 574.347 111.027 574.353 111.022C574.476 110.919 574.576 110.834 574.651 110.771L574.756 110.683L574.783 110.66C574.786 110.658 574.788 110.656 574.789 110.655C574.791 110.653 574.792 110.652 574.791 110.653C575.007 110.48 575.043 110.166 574.87 109.95C574.698 109.734 574.383 109.699 574.168 109.871C574.147 109.887 574.084 109.941 573.985 110.024C573.849 110.139 573.644 110.312 573.387 110.527C573.335 110.512 573.282 110.497 573.228 110.484C573.15 110.399 573.064 110.316 572.97 110.236C573.082 109.951 573.148 109.657 573.14 109.361C573.131 109.014 573.019 108.678 572.782 108.383C572.551 108.093 572.219 107.867 571.805 107.694C570.93 107.33 570.032 107.513 569.274 107.95C568.52 108.385 567.864 109.089 567.405 109.87C566.948 110.647 566.66 111.547 566.703 112.393C566.687 112.411 566.67 112.429 566.654 112.447C566.604 112.354 566.552 112.255 566.497 112.148C566.445 112.047 566.39 111.94 566.329 111.825C566.094 111.383 565.799 110.881 565.354 110.435C565.158 110.24 564.842 110.24 564.646 110.435C564.451 110.63 564.451 110.947 564.646 111.142C564.985 111.481 565.224 111.877 565.446 112.294C565.49 112.377 565.534 112.464 565.58 112.553C565.707 112.798 565.84 113.057 565.988 113.289ZM569.577 114.78C569.096 115.123 568.623 115.445 568.18 115.722C568.446 116.342 568.768 116.66 569.071 116.807C569.482 117.007 570.011 116.964 570.635 116.66C571.255 116.357 571.896 115.827 572.452 115.202C573.007 114.577 573.451 113.887 573.695 113.291C574.03 112.472 573.911 112.061 573.719 111.837C573.705 111.975 573.675 112.111 573.629 112.242C573.405 112.891 572.827 113.432 572.201 113.831C571.56 114.24 570.79 114.55 570.065 114.702C569.905 114.735 569.741 114.762 569.577 114.78Z" fill="#00ADB5" fill-opacity="0.5"/>
<path fill-rule="evenodd" clip-rule="evenodd" d="M637.126 467.5C637.402 467.49 637.634 467.705 637.645 467.98C637.658 468.306 637.67 468.625 637.682 468.936C637.74 470.485 637.791 471.854 637.9 473.012C638.032 474.419 638.244 475.42 638.595 476.022C638.763 476.31 638.948 476.48 639.149 476.572C639.352 476.665 639.623 476.702 640.006 476.631C640.801 476.484 641.944 475.894 643.576 474.679C643.833 474.488 644.083 474.347 644.326 474.282C644.58 474.215 644.862 474.224 645.105 474.393C645.332 474.55 645.439 474.787 645.491 474.985C645.545 475.187 645.558 475.409 645.551 475.622C645.539 476.049 645.445 476.532 645.33 476.952C645.216 477.367 645.068 477.767 644.923 478.02C644.826 478.191 644.678 478.433 644.502 478.723C643.943 479.641 643.092 481.038 642.609 482.169C642.452 482.537 642.347 482.849 642.301 483.088C642.279 483.204 642.275 483.279 642.276 483.325C642.3 483.323 642.33 483.319 642.369 483.311C642.596 483.267 642.962 483.122 643.51 482.809C643.85 482.615 644.369 482.356 644.942 482.153C645.196 481.277 645.462 480.379 645.742 479.502C646.243 477.936 646.799 476.407 647.442 475.147C648.076 473.903 648.832 472.842 649.771 472.306C649.871 472.248 649.988 472.194 650.114 472.168C650.243 472.142 650.428 472.139 650.603 472.251C650.773 472.36 650.845 472.522 650.876 472.631C650.906 472.74 650.911 472.847 650.911 472.93C650.909 473.084 650.885 473.265 650.864 473.418L650.861 473.445C650.838 473.619 650.817 473.78 650.811 473.929C650.801 474.218 650.79 474.551 650.779 474.918C650.729 476.583 650.657 478.956 650.408 481.24C650.256 482.634 650.036 484.014 649.71 485.193C649.388 486.356 648.943 487.397 648.295 488.044C648.195 488.144 648.089 488.235 647.978 488.302C647.871 488.366 647.717 488.434 647.533 488.426C647.324 488.417 647.158 488.311 647.05 488.175C646.956 488.054 646.913 487.919 646.89 487.816C646.843 487.608 646.844 487.36 646.86 487.123C646.876 486.877 646.912 486.6 646.957 486.319C647.048 485.757 647.181 485.144 647.289 484.656C647.3 484.604 647.311 484.555 647.322 484.506C647.362 484.323 647.398 484.163 647.425 484.033C647.442 483.951 647.455 483.886 647.463 483.838C647.468 483.807 647.47 483.791 647.471 483.787C647.469 483.272 647.315 483.065 647.181 482.968C647.019 482.852 646.747 482.793 646.343 482.834C646.153 482.853 645.954 482.893 645.753 482.946C645.728 483.031 645.704 483.116 645.68 483.2C645.559 483.619 645.439 484.032 645.321 484.435C644.892 485.896 644.474 487.238 644.039 488.215C643.617 489.165 642.948 489.67 642.115 489.768C641.338 489.859 640.499 489.585 639.712 489.202C638.914 488.812 638.095 488.272 637.341 487.747C637.088 487.571 636.844 487.397 636.61 487.231C636.131 486.891 635.692 486.579 635.297 486.328C634.598 485.882 634.075 485.556 633.693 485.32C633.681 485.316 633.67 485.312 633.66 485.309C633.546 485.266 633.418 485.2 633.306 485.138C633.082 485.015 632.831 484.854 632.722 484.768C632.708 484.757 632.683 484.738 632.659 484.714C632.649 484.704 632.624 484.679 632.598 484.643C632.585 484.626 632.561 484.591 632.54 484.542C632.523 484.502 632.482 484.392 632.509 484.25C632.544 484.071 632.665 483.948 632.792 483.89C632.893 483.843 632.982 483.843 633.016 483.844C633.088 483.846 633.144 483.863 633.158 483.868L633.159 483.868C633.199 483.881 633.234 483.897 633.251 483.905C633.328 483.941 633.456 484.012 633.639 484.12C633.745 484.182 633.874 484.259 634.03 484.354C634.091 484.36 634.151 484.376 634.209 484.405C634.295 484.448 634.363 484.512 634.41 484.588C634.776 484.814 635.243 485.108 635.834 485.484C636.251 485.749 636.725 486.086 637.217 486.435C637.447 486.598 637.68 486.764 637.913 486.926C638.661 487.448 639.426 487.949 640.15 488.303C640.887 488.662 641.512 488.832 641.998 488.774C642.429 488.724 642.824 488.487 643.125 487.809C643.529 486.901 643.931 485.622 644.361 484.154C644.436 483.9 644.511 483.642 644.587 483.379C644.366 483.481 644.168 483.585 644.006 483.677C643.429 484.007 642.949 484.216 642.562 484.292C642.181 484.367 641.727 484.335 641.456 483.949C641.23 483.626 641.259 483.211 641.319 482.901C641.384 482.559 641.521 482.171 641.689 481.777C642.206 480.567 643.133 479.045 643.688 478.135C643.847 477.874 643.976 477.662 644.055 477.524C644.139 477.377 644.261 477.069 644.366 476.687C644.469 476.311 644.542 475.912 644.552 475.592C644.556 475.449 644.547 475.341 644.531 475.266C644.455 475.296 644.338 475.359 644.173 475.481C642.525 476.708 641.225 477.422 640.189 477.614C639.658 477.713 639.168 477.68 638.734 477.482C638.3 477.284 637.975 476.945 637.731 476.526C637.258 475.715 637.037 474.514 636.904 473.105C636.792 471.917 636.74 470.513 636.682 468.964C636.67 468.655 636.659 468.34 636.646 468.02C636.635 467.744 636.85 467.511 637.126 467.5ZM644.505 475.186C644.505 475.186 644.505 475.186 644.506 475.187ZM646.069 481.861C646.126 481.852 646.184 481.845 646.241 481.839C646.748 481.788 647.315 481.832 647.765 482.157C648.242 482.501 648.471 483.069 648.471 483.799C648.471 483.872 648.458 483.953 648.449 484.007C648.437 484.073 648.422 484.152 648.404 484.238C648.375 484.374 648.338 484.542 648.297 484.727C648.287 484.774 648.276 484.822 648.265 484.872C648.157 485.361 648.03 485.948 647.944 486.478C647.915 486.661 647.891 486.834 647.875 486.99C648.21 486.507 648.502 485.807 648.746 484.927C649.052 483.821 649.264 482.501 649.414 481.131C649.658 478.891 649.728 476.568 649.779 474.902C649.791 474.53 649.801 474.19 649.812 473.892C649.817 473.749 649.832 473.604 649.849 473.473C649.324 473.925 648.818 474.649 648.333 475.601C647.727 476.788 647.19 478.256 646.695 479.806C646.478 480.486 646.27 481.176 646.069 481.861ZM647.457 487.448C647.457 487.448 647.458 487.447 647.46 487.446C647.458 487.447 647.457 487.448 647.457 487.448ZM647.868 487.609C647.869 487.611 647.869 487.612 647.869 487.612C647.869 487.612 647.869 487.611 647.868 487.609ZM642.208 483.323C642.209 483.322 642.213 483.323 642.219 483.325C642.211 483.324 642.208 483.323 642.208 483.323Z" fill="#00ADB5" fill-opacity="0.5"/>
</svg>
