<svg width="1157" height="830" viewBox="0 0 1157 830" fill="none" xmlns="http://www.w3.org/2000/svg">
<rect x="384.196" y="414.056" width="45.0309" height="92.9437" rx="3.51536" fill="#00ADB5" stroke="black" stroke-width="1.64486" stroke-linejoin="round"/>
<rect x="266.395" y="440.895" width="45.0309" height="66.1053" rx="3.51536" fill="#EEEEEE" stroke="black" stroke-width="1.64486" stroke-linejoin="round"/>
<rect x="475.338" y="311.026" width="45.0309" height="195.974" rx="3.51536" fill="#00ADB5" stroke="black" stroke-width="1.64486" stroke-linejoin="round"/>
<path d="M326.169 287.168L372.468 287.168C372.468 287.168 365.089 354.602 355.046 365.658C345.004 376.713 292.445 407.034 292.445 407.034L274.744 396.17L307.742 344.203C307.742 344.203 304.113 323.938 326.169 287.168Z" fill="#00ADB5" stroke="black" stroke-width="1.39887"/>
<path d="M293.193 406.426L274.744 396.173L265.407 406.226C265.407 406.226 281.148 415.349 292.129 418.925L287.478 412.79L293.193 406.426Z" fill="#EEEEEE" stroke="black" stroke-width="1.39887" stroke-linejoin="round"/>
<path d="M326.366 286.186L376.953 286.119C376.953 286.119 405.075 310.849 408.618 325.358C412.161 339.868 408.121 392.524 408.121 392.524L387.675 401.564L366.567 345.947C366.567 345.947 344.498 325.041 326.366 286.186Z" fill="#00ADB5"/>
<path d="M326.366 286.186L326.365 285.487C326.126 285.487 325.904 285.609 325.776 285.811C325.648 286.012 325.631 286.265 325.732 286.482L326.366 286.186ZM376.953 286.119L377.415 285.594L377.217 285.42L376.952 285.42L376.953 286.119ZM408.121 392.524L408.403 393.164L408.786 392.995L408.818 392.578L408.121 392.524ZM387.675 401.564L387.021 401.812L387.283 402.502L387.958 402.204L387.675 401.564ZM366.567 345.947L367.221 345.698L367.164 345.549L367.048 345.439L366.567 345.947ZM326.367 286.885L376.954 286.819L376.952 285.42L326.365 285.487L326.367 286.885ZM407.838 391.885L387.392 400.924L387.958 402.204L408.403 393.164L407.838 391.885ZM388.329 401.316L367.221 345.698L365.913 346.195L387.021 401.812L388.329 401.316ZM366.567 345.947C367.048 345.439 367.048 345.439 367.048 345.439C367.048 345.439 367.047 345.439 367.047 345.438C367.047 345.438 367.046 345.437 367.045 345.436C367.042 345.434 367.039 345.43 367.034 345.425C367.024 345.416 367.008 345.401 366.988 345.382C366.947 345.342 366.885 345.282 366.804 345.203C366.641 345.043 366.397 344.802 366.081 344.481C365.448 343.839 364.521 342.877 363.351 341.6C361.011 339.047 357.698 335.234 353.819 330.209C346.061 320.16 336.04 305.263 327 285.89L325.732 286.482C334.823 305.964 344.903 320.948 352.712 331.064C356.617 336.123 359.955 339.965 362.319 342.545C363.502 343.836 364.44 344.81 365.085 345.464C365.407 345.79 365.656 346.037 365.825 346.202C365.91 346.285 365.974 346.347 366.018 346.389C366.04 346.41 366.056 346.426 366.068 346.437C366.073 346.443 366.078 346.447 366.081 346.45C366.082 346.451 366.083 346.452 366.084 346.453C366.085 346.453 366.085 346.454 366.085 346.454C366.085 346.454 366.086 346.454 366.567 345.947ZM376.953 286.119C376.492 286.645 376.492 286.645 376.492 286.645C376.492 286.645 376.492 286.645 376.493 286.645C376.493 286.646 376.495 286.647 376.496 286.649C376.499 286.652 376.504 286.656 376.511 286.662C376.524 286.673 376.544 286.691 376.57 286.714C376.623 286.761 376.702 286.831 376.804 286.922C377.01 287.106 377.312 287.377 377.698 287.728C378.471 288.43 379.58 289.449 380.922 290.718C383.607 293.257 387.222 296.791 390.946 300.775C394.672 304.762 398.497 309.189 401.608 313.514C404.729 317.855 407.086 322.032 407.938 325.524L409.297 325.192C408.379 321.43 405.891 317.075 402.743 312.698C399.585 308.306 395.716 303.83 391.968 299.82C388.219 295.809 384.582 292.254 381.883 289.702C380.534 288.426 379.418 287.4 378.639 286.692C378.249 286.339 377.944 286.065 377.736 285.879C377.632 285.786 377.552 285.715 377.498 285.667C377.471 285.643 377.45 285.625 377.437 285.613C377.43 285.607 377.424 285.602 377.421 285.599C377.419 285.597 377.418 285.596 377.417 285.595C377.416 285.595 377.416 285.595 377.416 285.594C377.415 285.594 377.415 285.594 376.953 286.119ZM407.938 325.524C408.804 329.067 409.216 335.007 409.336 341.986C409.455 348.945 409.282 356.873 408.999 364.356C408.716 371.837 408.322 378.867 407.998 384.026C407.837 386.606 407.693 388.718 407.59 390.184C407.538 390.918 407.496 391.49 407.468 391.878C407.453 392.072 407.442 392.221 407.435 392.32C407.431 392.37 407.428 392.408 407.426 392.433C407.425 392.446 407.424 392.455 407.424 392.462C407.424 392.465 407.423 392.467 407.423 392.469C407.423 392.469 407.423 392.47 407.423 392.47C407.423 392.471 407.423 392.471 408.121 392.524C408.818 392.578 408.818 392.578 408.818 392.577C408.818 392.577 408.818 392.576 408.818 392.575C408.818 392.574 408.818 392.571 408.819 392.568C408.819 392.562 408.82 392.552 408.821 392.539C408.823 392.514 408.826 392.476 408.829 392.425C408.837 392.325 408.848 392.176 408.863 391.981C408.891 391.591 408.933 391.018 408.985 390.283C409.089 388.813 409.233 386.698 409.395 384.114C409.718 378.947 410.113 371.905 410.397 364.409C410.681 356.914 410.854 348.957 410.734 341.962C410.615 334.988 410.204 328.904 409.297 325.192L407.938 325.524Z" fill="black"/>
<path fill-rule="evenodd" clip-rule="evenodd" d="M370.736 203.685C371.886 203.265 372.982 202.651 373.982 201.799C381.53 195.369 378.293 185.667 373.725 180.616C369.158 175.565 341.214 177.58 354.396 200.979C354.451 201.012 354.508 201.046 354.565 201.08C356.039 205.769 354.796 209.792 353.305 214.618C352.697 216.586 352.047 218.689 351.524 221.024L365.505 220.022C369.347 214.805 370.804 209.545 370.736 203.685Z" fill="#F5B9AB"/>
<path d="M373.982 201.799L374.515 202.425L374.515 202.425L373.982 201.799ZM370.736 203.685L370.454 202.912C370.126 203.032 369.909 203.345 369.913 203.694L370.736 203.685ZM373.725 180.616L373.116 181.168L373.725 180.616ZM354.396 200.979L353.679 201.383C353.749 201.506 353.85 201.61 353.971 201.683L354.396 200.979ZM354.565 201.08L355.35 200.833C355.289 200.639 355.158 200.474 354.982 200.371L354.565 201.08ZM353.305 214.618L354.091 214.861L354.091 214.861L353.305 214.618ZM351.524 221.024L350.721 220.844C350.664 221.098 350.731 221.364 350.901 221.561C351.07 221.758 351.323 221.863 351.583 221.845L351.524 221.024ZM365.505 220.022L365.563 220.843C365.803 220.826 366.024 220.704 366.167 220.51L365.505 220.022ZM373.449 201.173C372.528 201.958 371.518 202.523 370.454 202.912L371.017 204.457C372.254 204.006 373.436 203.345 374.515 202.425L373.449 201.173ZM373.116 181.168C375.304 183.587 377.166 187.12 377.58 190.783C377.99 194.407 376.988 198.158 373.449 201.173L374.515 202.425C378.524 199.011 379.678 194.695 379.214 190.598C378.755 186.539 376.715 182.696 374.335 180.064L373.116 181.168ZM355.112 200.575C351.872 194.824 351.243 190.532 352.011 187.412C352.774 184.315 354.959 182.196 357.756 180.872C360.565 179.543 363.934 179.048 366.883 179.198C368.353 179.273 369.695 179.507 370.788 179.863C371.897 180.224 372.68 180.687 373.116 181.168L374.335 180.064C373.629 179.283 372.539 178.703 371.297 178.299C370.04 177.89 368.552 177.636 366.966 177.555C363.803 177.394 360.153 177.918 357.053 179.385C353.94 180.859 351.326 183.315 350.414 187.019C349.507 190.7 350.328 195.435 353.679 201.383L355.112 200.575ZM354.982 200.371C354.927 200.338 354.873 200.306 354.82 200.274L353.971 201.683C354.03 201.718 354.089 201.754 354.149 201.789L354.982 200.371ZM354.091 214.861C355.571 210.069 356.912 205.803 355.35 200.833L353.781 201.326C355.167 205.736 354.021 209.514 352.519 214.375L354.091 214.861ZM352.326 221.204C352.842 218.905 353.482 216.832 354.091 214.861L352.519 214.375C351.912 216.341 351.253 218.472 350.721 220.844L352.326 221.204ZM365.446 219.202L351.465 220.204L351.583 221.845L365.563 220.843L365.446 219.202ZM369.913 203.694C369.98 209.389 368.571 214.471 364.842 219.535L366.167 220.51C370.123 215.138 371.629 209.701 371.558 203.675L369.913 203.694Z" fill="black"/>
<path d="M351.888 186.849C349.7 189.893 352.056 197.41 353.795 199.29C339.389 191.297 348.509 173.262 352.954 176.551C353.678 169.883 361.329 167.53 366.545 173.169C379.622 162.609 380.31 180.603 375.694 183.34C371.079 186.076 365.479 183.47 362.573 184.882C359.667 186.293 357.873 194.84 356.932 190.096C355.99 185.352 354.622 183.044 351.888 186.849Z" fill="#00ADB5" stroke="black" stroke-width="1.64486"/>
<path d="M378.642 287.265C393.721 277.236 387.428 242.581 385.283 232.728C384.897 230.956 384.325 229.255 383.632 227.579C377.932 213.8 363.871 202.702 350.403 209.103C321.718 222.736 325.982 266.223 326.253 287.591L378.642 287.265Z" fill="#EEEEEE" stroke="black" stroke-width="1.64486" stroke-linejoin="round"/>
<path d="M423.997 240.372L411.895 225.603L371.116 254.133L357.936 227.604L340.87 254.133C340.87 254.133 359.358 282.848 368.75 282.014C385.866 280.493 423.997 240.372 423.997 240.372Z" fill="#EEEEEE"/>
<path d="M358.839 229.54L371.001 253.319L411.894 225.604L423.997 240.373C423.997 240.373 388.051 280.245 367.045 282.111C360.434 282.699 341.173 253.846 341.173 253.846" stroke="black" stroke-width="1.64486"/>
<path d="M415.918 222.938L411.125 226.015L423.158 241.26L426.942 238.194C430.969 234.932 431.607 229.031 428.37 224.984C425.356 221.214 419.981 220.331 415.918 222.938Z" fill="#F5B9AB" stroke="black" stroke-width="1.64486" stroke-linejoin="round"/>
<path d="M408.369 390.606L387.675 401.395L391.235 414.877L418.866 397.861L410.736 398.965L408.369 390.606Z" fill="#EEEEEE" stroke="black" stroke-width="1.39887" stroke-linejoin="round"/>
<ellipse cx="392.685" cy="529" rx="95" ry="12" fill="black" fill-opacity="0.5"/>
<path d="M5.72367 404.274C12.4911 392.055 18.8881 375.673 35.6123 380.154C43.5593 382.283 49.7344 394.129 49.2487 401.662C48.8457 407.909 50.5811 415.8 44.1332 419.69C39.0686 422.746 32.6683 422.312 28.6745 417.582C17.3328 404.149 38.2904 394.737 48.6826 396.792C62.8673 399.597 79.3042 434.937 66.9494 446.098C56.3564 455.668 49.3867 440.982 56.7858 432.272C67.1942 420.019 76.7683 419.63 88.8718 432.735C98.3223 442.968 95.4801 461.028 87.8549 470.529C86.2712 472.503 80.3438 486.315 78.9126 484.93C64.7901 471.266 89.81 451.134 103.713 453.996C119.687 457.285 135.813 460.795 146.371 473.439C152.049 480.238 162.529 504.563 160.515 495.936C157.995 485.141 155.576 470.327 160.05 459.575C161.382 456.376 165.386 446.057 162.005 456.073C158.523 466.389 155.216 475.394 153.799 485.637C153.484 487.916 156.446 491.15 157.457 493.083C158.313 494.721 151.649 492.617 150.853 492.534C143.977 491.82 137.693 494.468 131.802 497.759C126.544 500.697 120.526 506.21 116.561 504.25" stroke="#00ADB5" stroke-opacity="0.2" stroke-width="4" stroke-linecap="round" stroke-linejoin="round"/>
<path d="M1092.24 698.397C1100.2 694.281 1108.32 688.898 1115.43 683.394C1119.24 680.449 1123.34 677.923 1127.03 674.875C1127.54 674.445 1128.82 672.419 1129.59 673.083C1130.81 674.131 1131.99 675.95 1132.74 677.366C1134.9 681.479 1137.88 685.606 1140.94 689.069C1143.36 691.817 1145.33 694.137 1147.18 697.33C1148.18 699.076 1150.69 701.459 1150.51 703.4C1150.01 708.813 1144.95 713.826 1141.48 717.367C1136.38 722.57 1131.38 727.8 1125.32 731.799C1121.55 734.28 1117.31 735.59 1113.46 737.811C1109.92 739.857 1110.21 739.583 1106.84 736.609C1103.51 733.68 1101.45 730.502 1099.2 726.595C1098.02 724.562 1095.92 722.806 1094.29 721.125C1093.06 719.853 1092.61 717.68 1091.94 716.079C1091.24 714.399 1091.3 709.582 1089.77 708.579C1088.26 707.595 1086.52 705.434 1086.94 703.497C1087.29 701.916 1100.45 692.647 1089.46 702.994" stroke="#00ADB5" stroke-opacity="0.5" stroke-linecap="round" stroke-linejoin="round"/>
<path d="M1088.05 705.941C1091.05 707.396 1093.96 709.485 1096.93 710.85C1097.91 711.304 1099.6 711.219 1100.39 711.84C1102.54 713.521 1108.76 712.5 1111.4 712.742C1114.38 713.016 1122.55 717.104 1123.64 712.079C1125.7 702.634 1128.01 693.231 1130.06 683.824C1130.44 682.047 1129.92 680.292 1130.27 678.669C1131.35 673.729 1126.61 676.846 1125.01 677.772" stroke="#00ADB5" stroke-opacity="0.5" stroke-linecap="round" stroke-linejoin="round"/>
<path d="M332.966 799C331.357 801.059 324.448 809.298 330.335 811.162C332.162 811.741 334.54 810.411 336.509 810.603C339.293 810.875 340.859 813.242 341.544 815.7C342.333 818.53 337.98 823.564 340.073 825.086C343.656 827.692 348.818 823.285 351.779 826.785C353.458 828.768 351.693 831.65 352.732 826.971" stroke="#00ADB5" stroke-linecap="round" stroke-linejoin="round"/>
<path d="M177.554 799.064C178.048 800.363 178.525 801.466 179.67 802.304C180.121 802.635 180.657 802.635 181.179 802.776C181.858 802.96 182.667 802.574 183.275 802.305C183.763 802.09 184.131 802.979 184.183 803.304C184.273 803.863 183.956 804.327 183.976 804.87C183.999 805.523 183.857 806.235 183.393 806.733C183.078 807.071 183.036 807.488 182.77 807.854C182.517 808.202 182.048 808.502 181.707 808.768C180.723 809.538 179.518 809.844 178.337 810.153C177.771 810.301 177.15 810.417 176.56 810.375C175.856 810.325 175.201 810.512 174.51 810.301C174.033 810.155 173.396 809.91 173.084 809.505C172.763 809.09 172.624 808.688 172.036 808.63C170.808 808.508 169.684 809.226 168.445 809.108C167.345 809.004 167.044 807.591 166.788 806.725C166.611 806.127 166.319 805.037 166.583 804.419C167.073 803.269 167.742 802.406 168.612 801.505C169.382 800.706 170.583 800.318 171.646 800.121C172.731 799.92 173.92 799.807 175.03 799.726C175.766 799.673 176.524 799.817 177.263 799.817C177.868 799.817 177.934 800.003 177.137 799.769" stroke="#00ADB5" stroke-linecap="round" stroke-linejoin="round"/>
<path d="M183.743 806.28C184.949 806.621 186.157 807.006 187.389 807.238C187.943 807.342 188.517 807.325 189.061 807.469C189.694 807.637 190.396 807.682 191.044 807.718C191.509 807.744 192.324 807.701 192.652 808.093C192.892 808.38 193.391 808.509 193.675 808.813C194.04 809.204 194.4 809.774 194.863 810.031C195.317 810.284 196.228 810.513 196.698 810.22C196.96 810.057 197.257 810.048 197.514 809.887C197.848 809.678 198.118 809.494 198.485 809.325C198.807 809.177 199.436 808.748 199.712 809.151C200.389 810.137 199.486 810.295 198.686 810.697C198.273 810.904 197.751 810.979 197.32 811.176C197.025 811.31 197.263 811.477 197.102 811.637C196.858 811.878 196.529 811.92 196.259 812.11C195.855 812.394 194.962 812.19 194.532 812.106C193.736 811.95 193.013 811.78 192.237 811.51C190.239 810.815 188.492 809.54 186.544 808.736C185.802 808.431 185.062 808.2 184.264 808.092C183.811 808.031 183.359 807.768 182.89 807.813C182.462 807.853 182.233 807.768 182.932 807.93" stroke="#00ADB5" stroke-linecap="round" stroke-linejoin="round"/>
<path d="M198.635 809.586C198.445 808.834 198.321 808.005 197.916 807.356C197.86 807.266 197.996 807.4 198.01 807.468C198.204 808.371 199.114 809.292 199.589 810.087C199.943 810.678 200.688 811.461 200.754 812.167C200.774 812.372 200.121 811.542 200.021 811.451" stroke="#00ADB5" stroke-linecap="round" stroke-linejoin="round"/>
<path d="M197.242 808.932C197.816 809.734 198.492 811.163 199.38 811.706C199.466 811.759 199.579 811.793 199.638 811.877C199.844 812.169 199.595 811.642 199.547 811.556" stroke="#00ADB5" stroke-linecap="round" stroke-linejoin="round"/>
<path d="M196.519 809.605C197.006 810.588 197.53 812.418 198.704 812.873C198.874 812.938 198.815 812.762 198.805 812.655" stroke="#00ADB5" stroke-linecap="round" stroke-linejoin="round"/>
<path d="M196.741 810.673C195.361 810.738 193.964 810.885 192.712 810.211C192.102 809.883 191.694 809.654 191.009 809.583C190.277 809.508 189.662 809.407 188.975 809.141C188.296 808.879 187.731 808.549 187.079 808.289C186.741 808.154 186.392 807.777 186.013 807.893C185.822 807.951 185.637 807.871 185.449 807.825C184.89 807.689 184.38 807.384 183.881 807.1C183.543 806.907 182.974 806.964 183.589 807.202" stroke="#00ADB5" stroke-linecap="round" stroke-linejoin="round"/>
<path d="M185.19 806.868C185.124 807.421 184.84 808.278 184.892 808.832C184.893 808.843 185.429 808.306 185.501 808.23" stroke="#00ADB5" stroke-linecap="round" stroke-linejoin="round"/>
<path d="M187.682 806.995C187.428 807.791 187.177 808.588 186.91 809.38C186.848 809.566 186.835 809.557 186.891 809.49C187.01 809.345 187.142 809.22 187.276 809.09" stroke="#00ADB5" stroke-linecap="round" stroke-linejoin="round"/>
<path d="M189.369 807.561C189.17 808.51 188.949 809.459 188.786 810.416C188.768 810.523 188.726 810.674 188.82 810.564C189.009 810.343 189.171 810.094 189.345 809.862" stroke="#00ADB5" stroke-linecap="round" stroke-linejoin="round"/>
<path d="M191.453 807.847C191.04 808.945 190.586 810.043 190.232 811.162C190.173 811.346 190.124 811.411 190.26 811.361C190.446 811.294 190.619 811.204 190.795 811.116" stroke="#00ADB5" stroke-linecap="round" stroke-linejoin="round"/>
<path d="M193.017 809.03C192.98 809.129 191.681 812.181 192.259 811.884" stroke="#00ADB5" stroke-linecap="round" stroke-linejoin="round"/>
<path d="M194.033 809.538C193.91 810.434 193.806 811.337 193.743 812.227" stroke="#00ADB5" stroke-linecap="round" stroke-linejoin="round"/>
<path d="M195.083 810.407C195.102 810.808 195.12 811.21 195.137 811.611" stroke="#00ADB5" stroke-linecap="round" stroke-linejoin="round"/>
<path d="M176.348 804.199C176.143 803.798 175.261 801.292 174.551 801.345C174.274 801.365 173.997 801.397 173.725 801.457C172.881 801.641 172.49 802.277 172.152 803.044C171.721 804.019 171.799 805.017 172.19 805.998C172.561 806.93 173.681 807.453 174.555 806.983C174.736 806.886 174.801 807.158 175.003 806.958C175.199 806.763 175.065 806.66 174.982 806.385" stroke="#00ADB5" stroke-linecap="round" stroke-linejoin="round"/>
<path d="M174.01 803.15C175.262 803.513 176.524 803.993 177.825 804.149C178.165 804.19 178.454 804.253 178.773 804.406C179.447 804.728 180.158 804.999 180.888 805.159C181.58 805.311 182.244 805.262 182.928 805.483C183.172 805.562 183.932 806.1 183.583 805.872" stroke="#00ADB5" stroke-linecap="round" stroke-linejoin="round"/>
<path d="M183.092 807.068C181.682 806.977 180.322 806.768 178.927 806.663C178.154 806.604 177.497 806.449 176.696 806.525C176.123 806.579 175.664 806.829 175.077 806.752C174.401 806.664 174.715 806.497 175.145 806.188" stroke="#00ADB5" stroke-linecap="round" stroke-linejoin="round"/>
<path d="M183.035 806.468C182.129 806.133 180.618 805.366 179.523 805.47C178.9 805.529 178.243 805.632 177.607 805.649C176.851 805.668 175.822 805.174 175.142 804.884C174.917 804.788 174.737 804.652 174.497 804.603C174.198 804.541 174.187 804.606 174.489 804.375" stroke="#00ADB5" stroke-linecap="round" stroke-linejoin="round"/>
<path d="M175.252 802.851C174.618 803.941 173.299 805.885 174.706 807.016C174.925 807.192 175.381 807.434 175.647 807.518C176.012 807.633 175.669 807.182 175.573 806.873" stroke="#00ADB5" stroke-linecap="round" stroke-linejoin="round"/>
<path d="M176.445 803.948C176.519 804.528 176.473 805.72 176.818 806.258C176.83 806.276 176.807 806.215 176.793 806.2C176.743 806.148 176.805 806.026 176.818 805.969" stroke="#00ADB5" stroke-linecap="round" stroke-linejoin="round"/>
<path d="M178.725 804.397C178.653 804.835 178.141 806.443 178.859 806.441" stroke="#00ADB5" stroke-linecap="round" stroke-linejoin="round"/>
<path d="M180.592 804.945C180.296 805.508 178.899 807.81 180.574 807.306" stroke="#00ADB5" stroke-linecap="round" stroke-linejoin="round"/>
<path d="M181.488 805.465C181.4 806.018 181.311 806.571 181.222 807.124" stroke="#00ADB5" stroke-linecap="round" stroke-linejoin="round"/>
<path d="M181.738 808.103C181.173 808.83 179.837 810.3 178.741 810.444C177.847 810.561 176.977 810.611 176.07 810.697C175.41 810.76 174.718 810.953 174.084 810.946C173.252 810.938 173.122 809.674 172.183 810.068C171.869 810.199 171.67 810.13 171.465 810.435C171.288 810.699 171.073 810.898 170.764 811.019C170.044 811.301 169.335 810.943 168.777 810.482C168.428 810.193 167.748 809.84 167.503 809.483C167.382 809.307 167.419 808.92 167.399 808.707C167.38 808.509 167.214 808.122 167.116 807.951C166.971 807.699 167.151 807.344 166.997 807.021" stroke="#00ADB5" stroke-linecap="round" stroke-linejoin="round"/>
<path d="M177.374 799.081C176.595 799.399 175.944 799.642 175.295 800.111C175.028 800.304 174.769 800.306 174.432 800.264C174.04 800.215 173.113 800.02 172.739 800.276C172.165 800.671 171.523 800.724 170.852 800.788C170.206 800.849 170.021 801.887 169.721 802.25C169.275 802.789 168.626 802.635 168.488 803.465C168.458 803.647 168.482 803.924 168.381 804.074C168.305 804.187 168.102 804.33 168.09 804.471C168.065 804.761 168.158 805.138 168.068 805.407C167.992 805.632 167.869 805.802 167.779 806.009C167.679 806.237 167.842 806.521 167.746 806.768C167.42 807.613 167.769 807.216 168.168 806.608" stroke="#00ADB5" stroke-linecap="round" stroke-linejoin="round"/>
<path d="M214.877 27.7685C215.444 27.0485 216.529 25.7161 215.008 25.4805C214.664 25.4272 214.343 25.2251 214.005 25.3781C212.966 25.8492 212 26.8865 212 28.1198C212 30.0897 214.16 30.5162 215.73 30.4907C218.378 30.4477 219.183 27.8679 220.119 25.7781C221.063 23.6672 222.113 21.5904 223.093 19.4946C224.202 17.1231 226.021 15.234 227.171 12.8842C227.665 11.8766 228.309 10.9893 228.944 10.0693C229.93 8.64221 230.632 7.20248 231.337 5.62012C231.915 4.32188 232.557 3.13635 233.265 1.90757C233.552 1.41067 233.444 0.649436 233.992 1.18067C234.408 1.58402 235.069 1.84898 235.629 1.95148C238.076 2.39958 240.326 2.87387 242.846 2.6735C245.395 2.47085 247.943 2.10566 250.452 1.61974C251.304 1.45455 250.941 1.65342 250.539 2.17101C249.857 3.04892 249.274 3.9793 248.62 4.86883C247.768 6.02885 247.468 7.42591 246.964 8.75212C246.409 10.21 245.75 11.6025 245.22 13.0842C244.196 15.9479 242.703 18.5595 240.856 20.963C239.785 22.3559 238.462 24.7887 236.457 24.6902C233.355 24.5378 235.45 18.4301 236.932 17.2358C237.73 16.5929 238.603 17.2851 238.7 18.1481C238.834 19.334 238.427 20.959 237.276 21.5387C236.061 22.1503 235.13 22.0769 236.065 20.4996C236.63 19.5452 236.967 20.5955 237.198 20.1288" stroke="#00ADB5" stroke-opacity="0.5" stroke-width="2" stroke-linecap="round" stroke-linejoin="round"/>
</svg>
