<svg width="60" height="91" viewBox="0 0 60 91" fill="none" xmlns="http://www.w3.org/2000/svg">
<path d="M13.5426 67.3113C17.6419 59.8814 17.4 57.7588 16.4651 50.2799C15.9503 46.1615 15.7535 42.1376 14.7116 38.0859C12.8485 30.8403 12.2438 21.0835 18.0776 15.2497C29.5567 3.77057 50.9338 20.0959 44.4611 34.6594C41.9977 40.2022 37.741 44.306 34.6656 49.5342C33.4322 51.6309 32.7414 53.9038 31.1383 55.863C29.601 57.7419 27.6918 60.0805 27.6918 62.4136C27.6918 64.3843 28.2793 66.9397 26.8855 68.6819C24.9601 71.0887 25.6446 69.8509 22.794 69.8509C20.8344 69.8509 17.9447 68.2934 16.3644 67.0292C15.2361 66.1265 14.631 68.7372 14.631 66.2229C14.631 64.0647 15.3257 65.8601 13.9054 65.8601" stroke="#00ADB5" stroke-opacity="0.5" stroke-width="1.66333" stroke-linecap="round" stroke-linejoin="round"/>
<path d="M22.6126 74.2045C18.7327 73.0478 7.99336 70.4646 10.479 73.6603C13.4779 77.5162 14.7605 75.5837 18.4404 76.4015C20.3222 76.8197 22.157 82.6279 20.073 82.7505C17.0965 82.9256 15.1228 78.9209 12.0914 78.9209C9.33232 78.9209 9.52994 82.5521 11.1844 83.8389C13.3692 85.5381 15.8816 83.7116 17.352 86.3583C19.6756 90.5408 13.3285 89.8604 11.527 88.8777C9.71212 87.8878 7.98543 86.342 6.64941 85.4513" stroke="#00ADB5" stroke-opacity="0.5" stroke-width="1.66333" stroke-linecap="round" stroke-linejoin="round"/>
<path d="M13.5426 66.1322C13.592 66.4481 13.6433 68.5811 14.4949 68.5811C14.9535 68.5811 15.1644 68.303 15.5833 68.5357C16.076 68.8095 16.5381 69.4538 17.0093 69.8307C17.4246 70.163 18.6572 70.1219 18.8939 70.5362C19.2806 71.213 20.0658 71.5835 20.7986 71.6649C21.7487 71.7705 22.1001 72.2474 23.1114 72.0226C23.4205 71.954 23.4517 71.7556 23.7413 71.7556C24.1883 71.7556 24.3813 71.9694 24.7188 71.5943C25.0924 71.1792 25.7028 70.9848 25.8828 70.3548C26.1276 69.4981 27.0248 69.0474 25.6964 69.5788" stroke="#00ADB5" stroke-opacity="0.5" stroke-width="1.66333" stroke-linecap="round" stroke-linejoin="round"/>
<path d="M31.0475 30.2151C29.4247 30.2239 28.0835 30.3285 27.5304 32.0493C27.154 33.2201 27.1474 34.3708 27.1474 35.5866C27.1474 36.7686 27.873 37.719 27.873 38.8316C27.873 40.3024 26.6968 40.0616 25.7013 40.5096C24.7609 40.9327 24.0795 41.2862 23.5698 42.2329C23.065 43.1703 23.4465 44.9829 23.5144 46.0019C23.5728 46.8788 23.9899 48.7425 23.3834 49.4838C23.0538 49.8866 21.2529 50.5085 22.431 49.6249" stroke="#00ADB5" stroke-opacity="0.5" stroke-width="1.66333" stroke-linecap="round" stroke-linejoin="round"/>
<path d="M44.7433 46.6318C46.0427 47.4951 47.367 48.2185 48.8197 48.7632C49.4288 48.9916 50.2308 49.3992 50.0946 48.4458" stroke="#00ADB5" stroke-opacity="0.5" stroke-width="1.66333" stroke-linecap="round" stroke-linejoin="round"/>
<path d="M49.4595 34.1152C51.7623 34.6696 54.0496 35.2945 56.3325 35.9091C56.7122 36.0113 55.8408 35.0513 55.8085 35.0222" stroke="#00ADB5" stroke-opacity="0.5" stroke-width="1.66333" stroke-linecap="round" stroke-linejoin="round"/>
<path d="M50.0945 22.2336C52.4793 21.8869 54.857 21.4568 57.2295 21.0343C58.3218 20.8398 58.7843 20.983 58.1668 20.0568" stroke="#00ADB5" stroke-opacity="0.5" stroke-width="1.66333" stroke-linecap="round" stroke-linejoin="round"/>
<path d="M37.2152 9.62628C39.0994 9.29517 40.7326 8.97612 42.4355 8.1247C43.2326 7.72616 44 7.24714 44.834 6.92544C45.8251 6.54317 45.8454 6.65955 44.7433 5.99829" stroke="#00ADB5" stroke-opacity="0.5" stroke-width="1.66333" stroke-linecap="round" stroke-linejoin="round"/>
<path d="M20.7985 1.46332C20.5235 3.38832 20.6144 4.54127 21.3931 6.28552C21.8129 7.22583 22.168 8.41433 22.3757 9.42978C22.4472 9.77947 22.4871 9.97852 22.7233 10.241C22.8118 10.3393 22.4873 9.17113 22.4311 8.99139" stroke="#00ADB5" stroke-opacity="0.5" stroke-width="1.66333" stroke-linecap="round" stroke-linejoin="round"/>
<path d="M6.92139 9.17279C7.5235 11.1775 8.38172 13.1005 8.89662 15.1086C9.15713 16.1245 8.99426 16.1863 8.55398 15.159" stroke="#00ADB5" stroke-opacity="0.5" stroke-width="1.66333" stroke-linecap="round" stroke-linejoin="round"/>
<path d="M1.1167 23.5941C3.17739 25.3776 4.86737 27.5915 6.46798 29.7818C6.66857 30.0563 6.90049 30.1538 7.12304 30.3764C7.62861 30.882 6.75585 29.7399 6.64938 29.5802" stroke="#00ADB5" stroke-opacity="0.5" stroke-width="1.66333" stroke-linecap="round" stroke-linejoin="round"/>
</svg>
