<svg width="70" height="57" viewBox="0 0 70 57" fill="none" xmlns="http://www.w3.org/2000/svg">
<path d="M8.25671 38.4246C11.9608 29.6906 10.4437 22.0801 10.4437 13.0287C10.4437 11.268 10.1242 5.9044 11.9746 4.94445C14.8928 3.43054 17.6197 2.42034 21.0628 2.42034C23.3518 2.42034 25.6516 2.48628 27.9397 2.42034C30.228 2.35439 32.4447 1.42352 34.7072 1.14638C38.9169 0.630722 43.2954 1.34878 47.4525 1.34878C50.7532 1.34878 54.1677 1.77741 57.3426 1.77741C57.9062 1.77741 60.2042 2.04617 60.5744 2.37272C61.7077 3.37214 61.3831 4.9749 62.2754 5.84932" stroke="#00ADB5" stroke-opacity="0.5" stroke-width="1.66333" stroke-linecap="round" stroke-linejoin="round"/>
<path d="M62.0576 6.62329C62.2017 9.2007 62.2557 12.8175 63.3161 15.336C64.0033 16.968 63.4554 19.14 63.5944 20.8782C63.8614 24.2149 63.3645 27.4671 63.3645 30.7042C63.3645 35.0467 63.5824 39.3335 63.5824 43.6523C63.5824 47.3591 59.9605 46.7384 57.0962 46.2177C54.6218 45.7678 51.3013 46.6699 48.7224 46.7017C43.7471 46.7631 38.7486 47.1373 33.7656 47.1373C29.6039 47.1373 26.5135 45.9288 22.6811 44.4751C20.6346 43.6989 19.3976 43.8701 17.1993 43.8701C15.1174 43.8701 13.4053 43.5446 11.3183 44.1968C10.0972 44.5784 7.91056 44.249 7.21603 42.9988C6.38324 41.4998 8.0389 40.8497 8.0389 39.6226C8.0389 38.5924 7.9094 35.6461 8.25672 38.4246" stroke="#00ADB5" stroke-opacity="0.5" stroke-width="1.66333" stroke-linecap="round" stroke-linejoin="round"/>
<path d="M33.0881 12.2865C33.0881 12.2865 33.9594 12.7221 34.8306 13.5934C35.7019 14.2469 37.5359 13.9202 39.0781 13.9202C39.8895 13.9202 40.7465 13.2876 41.4741 12.9642C42.948 12.3091 42.0689 13.5413 41.7161 14.2469C41.3255 15.028 41.7715 16.4803 42.4785 16.9697C43.6448 17.7771 44.7986 17.0802 45.9393 16.5098C46.4129 16.273 46.2829 16.1632 46.4294 16.4856C46.6282 16.9229 46.5928 17.5574 46.5928 18.0345C46.5928 19.1204 46.5215 20.9245 45.9393 21.8705C45.1735 23.115 44.3997 23.9205 43.1682 24.8353C41.9516 25.739 40.3443 27.316 38.7272 27.316C35.5671 27.316 32.2129 26.6273 30.6316 23.5526C29.9613 22.2492 28.7317 21.1821 28.7317 19.6923C28.7317 18.4493 28.3205 16.9598 28.7317 15.7716C29.2303 14.3313 30.4743 12.9642 30.0387 12.9642C30.2608 13.0277 32.2168 11.8509 33.0881 12.2865Z" stroke="#00ADB5" stroke-opacity="0.5" stroke-width="1.66333" stroke-linecap="round" stroke-linejoin="round"/>
<path d="M36.682 11.5242C37.9075 11.0706 40.7063 10.1204 41.3651 8.63809C41.8743 7.49255 40.1914 7.27673 39.2959 7.27673C38.2097 7.27673 36.9226 8.77785 36.6336 9.72718C36.473 10.2551 36.3203 10.7954 36.1617 11.3306C36.0853 11.5885 36.1873 11.7756 36.2404 12.0143C36.2808 12.1961 37.9425 11.3236 37.88 11.0737" stroke="#00ADB5" stroke-opacity="0.5" stroke-width="1.66333" stroke-linecap="round" stroke-linejoin="round"/>
<path d="M58.2473 36.0332L10.4655 37.0827C5.36392 37.1947 1.28674 41.3624 1.28674 46.4652C1.28674 51.6483 5.48846 55.85 10.6715 55.85H58.4649C63.9378 55.85 68.3745 51.4133 68.3745 45.9404C68.3745 40.3823 63.8041 35.9112 58.2473 36.0332Z" fill="#00ADB5" fill-opacity="0.5" stroke="#00ADB5" stroke-opacity="0.5" stroke-width="1.66333"/>
<path d="M21.0288 36.8196C21.7522 37.9413 22.3768 39.2874 23.2068 40.325C23.6243 40.8469 23.5573 40.7408 24.3667 40.441C25.7178 39.9406 27.2487 40.2992 28.6583 40.2992C29.8958 40.2992 31.3347 39.6532 32.5375 39.9771C33.9309 40.3522 35.5735 39.636 36.945 39.6033C38.5976 39.564 40.173 39.7193 41.8166 39.7193C42.8075 39.7193 43.7734 39.1394 44.6905 39.1394C45.2226 39.1394 46.7393 39.5611 46.7783 38.5852C46.7973 38.1098 47.0103 37.648 47.0103 37.1676C47.0103 36.5177 46.6213 36.7991 45.9664 36.4716" stroke="#00ADB5" stroke-opacity="0.5" stroke-width="1.66333" stroke-linecap="round" stroke-linejoin="round"/>
</svg>
