<svg width="44" height="34" viewBox="0 0 44 34" fill="none" xmlns="http://www.w3.org/2000/svg">
<path d="M7.9198 3.77642C14.2475 4.04325 21.1182 3.65498 27.4202 2.87803C30.7923 2.46228 34.1936 2.37357 37.5271 1.86073C37.9969 1.78846 39.4959 1.07132 39.7335 1.68898C40.1084 2.66389 40.1877 4.05651 40.143 5.08437C40.0132 8.07021 40.3811 11.3282 41.0282 14.24C41.5415 16.5498 41.9266 18.4751 41.9266 20.8459C41.9266 22.1426 42.6169 24.2747 41.8209 25.2982C39.6016 28.1516 34.7337 29.3173 31.3573 30.1733C26.3958 31.4311 21.4884 32.7367 16.362 33.0138C13.1822 33.1857 10.1225 32.5514 6.98177 32.5514C4.08878 32.5514 4.36395 32.492 3.34857 29.7505C2.34849 27.0503 2.21237 24.6189 2.21237 21.7178C2.21237 20.2077 1.54801 18.5546 1.14223 17.0938C0.83488 15.9873 1.32771 14.6328 1.48573 13.5266C1.65147 12.3664 3.39138 9.70358 2.80689 8.65151C2.23402 7.62034 1.93016 5.85541 2.87295 4.91262C3.64276 4.14281 14.9796 3.21484 4.59047 5.44108" stroke="#00ADB5" stroke-opacity="0.5" stroke-width="1.66333" stroke-linecap="round" stroke-linejoin="round"/>
<path d="M2.68799 6.63016C4.00778 8.40363 5.05403 10.5046 6.38725 12.2187C6.83036 12.7884 7.8903 13.2819 8.15761 13.8834C8.8813 15.5117 13.048 16.9422 14.5785 17.9261C16.3061 19.0368 19.861 23.9396 22.3073 21.4933C26.9058 16.8948 31.6392 12.3991 36.2192 7.81921C37.0845 6.95389 37.3844 5.80846 38.1745 5.01834C40.5797 2.61307 36.5761 2.8252 35.2679 2.8252" stroke="#00ADB5" stroke-opacity="0.5" stroke-width="1.66333" stroke-linecap="round" stroke-linejoin="round"/>
</svg>
