<svg width="215" height="228" viewBox="0 0 215 228" fill="none" xmlns="http://www.w3.org/2000/svg">
<path d="M33.1005 201.02C33.4809 202.976 34.448 204.248 35.1977 206.028C35.7081 207.24 36.6624 208.179 37.1939 209.368C37.7678 210.653 38.6273 212.162 39.4276 213.305C40.1136 214.285 40.5632 215.214 41.4288 216.08C42.9589 217.61 44.1165 219.433 45.6536 220.941C47.888 223.133 51.6716 225.994 54.9269 225.813C55.9726 225.755 57.1305 226.079 58.1562 225.924C59.036 225.791 60.1046 225.747 60.9862 225.899C62.435 226.149 64.0071 225.897 65.3929 226.197C66.1409 226.359 66.9551 226.122 67.7125 226.263C68.6945 226.444 69.845 226.49 70.8458 226.49C74.1211 226.49 77.388 226.47 80.6548 226.055C82.4247 225.831 84.1785 226.417 85.9307 226.106C87.5754 225.814 89.7661 226.116 91.3128 225.439C93.2139 224.607 95.1051 223.299 96.5736 221.831C97.3101 221.094 97.869 220.214 98.3676 219.304C99.0226 218.108 99.3872 216.818 100.045 215.625C102.341 211.464 103.65 206.833 105.508 202.496C105.946 201.473 106.667 200.645 107.191 199.701C107.324 199.462 107.384 199.157 107.601 198.928C108.411 198.07 106.859 197.978 106.145 197.654" stroke="#00ADB5" stroke-opacity="0.5" stroke-width="1.66333" stroke-linecap="round" stroke-linejoin="round"/>
<path d="M32.7367 201.202C34.3623 199.075 35.7413 197.512 38.1036 196.31C40.0818 195.303 42.1331 194.107 43.9203 192.793C46.6668 190.773 50.4463 189.873 53.79 189.265C57.4293 188.603 61.0115 187.83 64.7158 187.83C65.8619 187.83 66.9961 188.175 68.1422 188.194C69.5144 188.216 70.89 188.26 72.2558 188.376C74.352 188.554 76.5036 188.512 78.6031 188.558C81.5323 188.621 84.3362 190.138 87.265 190.372C89.0071 190.511 91.0388 190.772 92.733 191.246C93.3675 191.424 94.0914 191.545 94.6837 191.832C95.4205 192.19 95.9371 192.796 96.6141 193.217C98.7995 194.577 101.242 195.216 103.603 196.249C104.327 196.566 105.571 197.108 106.373 197.108C107.476 197.108 107.419 199.145 107.419 197.108" stroke="#00ADB5" stroke-opacity="0.5" stroke-width="1.66333" stroke-linecap="round" stroke-linejoin="round"/>
<path d="M107.237 198.382C105.887 200.19 104.926 200.879 103.012 201.935C101.509 202.764 99.8447 203.35 98.1604 203.658C96.5887 203.945 94.8717 204.172 93.2786 204.3C91.9525 204.406 90.6001 204.251 89.2459 204.406C86.1834 204.755 83.0931 205.544 80.1393 206.407C75.9223 207.639 71.8503 207.768 67.4952 208.004C62.7408 208.262 57.9735 207.898 53.3148 206.933C51.7437 206.607 50.0829 206.899 48.4836 206.837C46.7221 206.767 44.9964 206.282 43.339 205.71C42.6415 205.469 41.9986 205.098 41.267 204.931C40.4105 204.736 39.5399 204.813 38.6897 204.608C37.505 204.322 36.1221 203.804 35.1219 203.112C34.6867 202.811 34.0332 202.562 33.6917 202.106C33.5921 201.974 33.4643 201.678 33.4643 201.52C33.4643 201.144 33.1558 201.239 33.6462 201.566" stroke="#00ADB5" stroke-opacity="0.5" stroke-width="1.66333" stroke-linecap="round" stroke-linejoin="round"/>
<path d="M68.1219 216.848C69.229 216.725 70.6921 216.746 70.2343 215.321C70.0874 214.864 69.7171 214.816 69.3247 214.685C68.1546 214.295 66.0602 215.05 65.6204 216.272C64.8312 218.464 66.3248 220.831 68.6728 220.072C69.3115 219.865 70.4448 219.414 70.8509 218.834C71.3384 218.137 70.6065 218.343 70.1231 217.666" stroke="#00ADB5" stroke-opacity="0.5" stroke-width="1.66333" stroke-linecap="round" stroke-linejoin="round"/>
<path d="M64.7563 214.483C66.521 213.775 67.4239 213.482 69.2086 213.482C69.9279 213.482 70.2877 213.431 70.9217 213.846C71.9692 214.531 72.3297 215.833 72.2205 216.979C72.1283 217.947 71.8079 219.274 71.4675 220.193C71.2143 220.877 70.5877 220.995 69.9464 221.123C69.3602 221.24 68.0825 220.913 67.6217 221.169C67.1326 221.44 65.6353 221.532 65.2566 221.027C64.9083 220.563 64.5348 220.362 64.2813 219.799C64.0393 219.261 63.9301 218.747 63.7355 218.212C63.4683 217.477 62.988 215.471 63.9831 215.028C64.5664 214.769 64.8161 214.614 65.4841 214.614C65.6736 214.614 65.8361 214.756 66.0298 214.756C66.3094 214.756 65.4907 214.574 65.2112 214.574" stroke="#00ADB5" stroke-opacity="0.5" stroke-width="1.66333" stroke-linecap="round" stroke-linejoin="round"/>
<path d="M67.9399 207.205C69.223 205.546 70.3939 203.835 71.72 202.223C72.4324 201.356 73.3174 200.611 74.0851 199.782C76.2835 197.407 78.5237 194.809 80.2 192.035C81.8512 189.301 84.1048 186.325 86.5523 184.272C87.8452 183.188 89.0005 181.989 90.1252 180.74C91.2165 179.527 91.7192 177.831 92.7531 176.55C93.5537 175.558 98.7946 168.807 99.7068 172.912C100.065 174.525 98.4917 175.653 97.5035 176.641C96.3821 177.763 95.2553 179.187 94.2995 180.462C93.3781 181.69 92.2582 182.77 91.3634 184.009C90.1458 185.695 87.9306 186.901 87.0425 188.81C86.31 190.385 85.0945 191.651 84.1822 193.111C82.9178 195.134 81.4365 196.823 79.9473 198.675C78.7672 200.142 76.9177 201.348 76.0813 203.021C75.3826 204.418 74.1441 205.007 73.0138 205.912C72.5217 206.305 71.9237 206.524 71.4876 207.069C71.3425 207.25 71.0828 207.46 70.9468 207.256C70.8693 207.14 70.5734 207.4 70.6285 207.529C70.8224 207.981 70.3507 206.44 70.305 206.296" stroke="#00ADB5" stroke-opacity="0.5" stroke-width="1.66333" stroke-linecap="round" stroke-linejoin="round"/>
<path d="M67.2122 207.66C67.5608 207.837 69.7592 209.506 69.7592 208.161C69.7592 207.753 70.2823 207.074 70.4667 206.66C70.6061 206.346 69.3499 206.647 69.1628 206.887C68.9185 207.201 68.4448 207.456 69.2134 207.478C69.8039 207.495 70.2654 207.241 70.7143 206.892C70.8433 206.792 72.5788 207.066 71.0327 207.023C70.2105 207.001 69.4114 207.023 68.6221 207.023C67.9398 207.023 69.3224 206.842 69.5217 206.842C69.6807 206.842 68.3686 207.622 68.142 207.367C68.0869 207.305 67.9912 207.134 68.2128 207.023" stroke="#00ADB5" stroke-opacity="0.5" stroke-width="1.66333" stroke-linecap="round" stroke-linejoin="round"/>
<path d="M38.2855 200.929C38.3878 200.983 41.6389 202.685 41.6512 202.475C41.6662 202.221 41.485 201.999 41.6108 201.748C42.1608 200.648 42.8725 201.175 43.8192 201.601C44.5577 201.933 43.437 198.253 45.6638 199.807C46.8144 200.61 47.1213 200.482 46.9322 199.135C46.7891 198.115 47.1413 198.112 48.0187 198.22C48.6152 198.294 49.0427 198.424 49.3832 197.856C49.7964 197.168 50.2619 196.776 51.1065 197.073C51.8068 197.319 52.4287 198.012 52.9106 197.129C53.1227 196.74 52.9438 195.576 53.6131 195.799C54.0326 195.939 54.5853 196.487 55.0635 196.315C55.4257 196.185 55.7041 195.061 56.1146 195.239C56.5428 195.424 56.9793 196.237 57.5195 196.042C57.7803 195.948 58.2641 195.096 57.752 195.198" stroke="#00ADB5" stroke-opacity="0.5" stroke-width="1.66333" stroke-linecap="round" stroke-linejoin="round"/>
<path d="M51.1115 199.292C52.239 200.209 56.4617 205.109 57.7013 201.449C57.9233 200.794 57.9586 199.496 58.5807 200.57C59.0933 201.456 59.8651 202.07 60.7032 201.232C61.2585 200.677 61.5058 199.734 62.3001 199.443C63.0289 199.176 63.5641 200.547 64.1699 199.746C64.6585 199.101 64.4221 197.991 63.705 197.604C63.4698 197.476 63.4041 197.915 63.3007 198.018" stroke="#00ADB5" stroke-opacity="0.5" stroke-width="1.66333" stroke-linecap="round" stroke-linejoin="round"/>
<path d="M60.8448 193.652C62.6016 193.35 64.8147 192.736 66.1511 194.309C66.7706 195.038 66.7119 195.969 66.3027 196.795C66.0036 197.399 65.1991 197.7 64.6856 197.108C64.2643 196.623 65.133 195.823 65.4436 195.527C66.5083 194.511 68.0868 196.137 68.4202 197.24C68.6987 198.161 66.1803 200.296 66.4847 199.382" stroke="#00ADB5" stroke-opacity="0.5" stroke-width="1.66333" stroke-linecap="round" stroke-linejoin="round"/>
<path d="M90.4082 196.745C90.9303 196.565 94.2869 195.484 93.6425 197.27C93.3119 198.186 92.0469 198.678 91.2168 198.978C90.8241 199.12 89.8102 199.096 90.4688 198.523C91.0391 198.028 91.8425 197.795 92.5913 197.856C95.5103 198.094 91.4283 201.447 90.5901 201.909C88.9615 202.808 86.746 203.753 85.0413 202.657" stroke="#00ADB5" stroke-opacity="0.5" stroke-width="1.66333" stroke-linecap="round" stroke-linejoin="round"/>
<path d="M72.4882 191.378C73.1807 192.504 74.014 193.636 74.6057 194.819C74.8093 195.226 73.9282 194.184 73.7213 193.778C73.6665 193.671 73.2873 192.476 73.2513 192.484C72.8082 192.583 72.7041 194.611 72.5842 194.986C72.0175 196.757 70.6172 196.078 69.2438 195.946C67.5811 195.786 66.8375 197.426 65.9185 198.473C65.1832 199.311 64.8943 199.568 65.393 200.565C65.7965 201.372 65.9643 202.155 65.393 202.885C64.9471 203.454 64.389 203.814 63.8516 204.285C63.3592 204.715 64.0653 204.644 63.9729 204.386C63.7206 203.679 62.1634 203.826 61.6533 203.86C59.7602 203.985 57.8317 203.51 55.9731 203.628C54.9856 203.69 54.0561 204.241 53.0774 204.386C52.0833 204.533 53.3973 205.396 53.7697 205.644C54.4105 206.071 52.5151 204.735 51.819 204.406C50.6515 203.853 49.5731 203.425 48.9688 202.202C48.3631 200.977 47.8297 200.141 46.8058 199.241C46.4528 198.931 46.4111 198.459 46.5835 198.038C46.9829 197.064 47.8686 196.271 48.7464 195.744" stroke="#00ADB5" stroke-opacity="0.5" stroke-width="1.66333" stroke-linecap="round" stroke-linejoin="round"/>
<path d="M72.3064 195.016C70.0262 193.425 68.1447 192.739 65.4638 192.378C64.5214 192.251 63.5162 191.599 62.9017 190.877C62.3563 190.237 62.6654 190.406 62.0223 191.277C61.1439 192.465 60.4916 191.398 59.3692 191.711C57.649 192.191 56.1725 193.79 54.4268 194.086C53.9487 194.168 54.064 193.368 53.4666 193.712C52.4606 194.293 51.6912 194.842 50.5153 195.026C49.8042 195.138 48.4564 195.606 48.5646 196.472" stroke="#00ADB5" stroke-opacity="0.5" stroke-width="1.66333" stroke-linecap="round" stroke-linejoin="round"/>
<path d="M87.7703 195.016C89.9705 195.228 92.1999 195.201 94.3905 195.436C95.1618 195.518 95.556 195.83 96.0986 196.335C96.588 196.791 97.352 197.863 98.0543 197.922C99.067 198.006 99.5902 197.586 100.536 197.29C101.105 197.112 102.921 197.29 102.325 197.29" stroke="#00ADB5" stroke-opacity="0.5" stroke-width="1.66333" stroke-linecap="round" stroke-linejoin="round"/>
<path d="M86.1329 197.472C83.7677 199.031 82.5043 201.395 79.9726 202.814C79.4713 203.095 77.9368 203.639 78.0522 204.562C78.1357 205.231 83.2603 203.138 84.0407 202.748" stroke="#00ADB5" stroke-opacity="0.5" stroke-width="1.66333" stroke-linecap="round" stroke-linejoin="round"/>
<path d="M94.9565 199.655C96.2426 200.613 97.3514 201.981 98.959 201.495C99.394 201.363 100.304 201.312 100.596 201.02" stroke="#00ADB5" stroke-opacity="0.5" stroke-width="1.66333" stroke-linecap="round" stroke-linejoin="round"/>
<path d="M149.041 150.165C148.104 151.495 146.883 152.635 146.231 154.124C145.997 154.659 145.92 155.239 145.671 155.756C145.418 156.282 145.114 156.898 144.926 157.445C144.555 158.524 143.684 159.368 143.088 160.304C142.738 160.855 142.158 161.712 141.62 162.106C141.345 162.307 140.609 163.27 140.935 163.351C141.693 163.541 142.336 163.944 143.01 164.341C143.938 164.887 144.862 165.299 145.689 165.998C146.734 166.881 147.975 167.51 148.999 168.424C149.801 169.141 150.498 169.972 151.312 170.684C152.014 171.299 152.86 171.752 153.575 172.355C153.628 172.4 154.136 172.827 154.075 172.919C154.012 173.014 153.253 172.04 153.192 171.94" stroke="#00ADB5" stroke-opacity="0.5" stroke-width="1.66333" stroke-linecap="round" stroke-linejoin="round"/>
<path d="M165.261 149.08C163.766 152.632 162.132 156.121 160.649 159.68C159.729 161.887 158.956 164.118 158.173 166.381C157.557 168.16 156.794 169.895 156.129 171.653C155.898 172.263 155.739 172.886 155.604 173.522C155.383 174.563 155.405 173.351 155.427 172.898" stroke="#00ADB5" stroke-opacity="0.5" stroke-width="1.66333" stroke-linecap="round" stroke-linejoin="round"/>
<path d="M168.581 148.313C169.883 149.796 171.129 151.288 172.512 152.691C173.642 153.838 174.142 155.495 174.775 156.934C175.432 158.427 176.09 159.663 177.06 160.957C177.175 161.11 177.514 161.489 177.514 161.688C177.514 161.783 177.056 161.781 176.982 161.791C176.729 161.824 176.427 162.039 176.215 162.17C172.37 164.557 169.771 168.006 167.51 171.827C167.123 172.479 166.837 173.424 166.279 173.927C165.918 174.251 165.624 174.678 165.197 174.892C164.795 175.093 165.08 174.381 165.133 173.983" stroke="#00ADB5" stroke-opacity="0.5" stroke-width="1.66333" stroke-linecap="round" stroke-linejoin="round"/>
<path d="M135.074 73.5063C128.431 74.7815 123.602 76.6993 119.392 82.1125C116.723 85.543 117.308 90.9427 119.057 94.5795C121.938 100.572 129.019 103.956 135.409 104.25C142.852 104.592 153.199 102.405 154.725 93.5277C155.543 88.7689 150.996 84.2698 148.868 80.3674C147.136 77.1926 144.528 72.9129 140.883 71.5699C139.395 71.0217 135.941 71.212 134.859 72.6935C134.375 73.3553 133.753 74.0539 133.401 74.7972C133.115 75.3995 133.421 73.2645 133.353 72.6457" stroke="#00ADB5" stroke-opacity="0.5" stroke-width="1.66333" stroke-linecap="round" stroke-linejoin="round"/>
<path d="M137.871 89.8582C136.078 90.7793 133.17 91.39 134.739 93.4082C135.097 93.8681 135.607 93.843 136.042 93.4082C136.414 93.0366 138.288 91.0848 136.903 90.6231C134.08 89.6821 135.112 95.3154 137.13 92.8225C138.214 91.4837 136.697 90.1659 135.337 90.9817C133.717 91.9538 134.999 93.6511 136.269 92.177C137.227 91.0662 136.462 90.215 135.421 91.2567C134.488 92.1897 135.435 93.6778 136.353 92.4161C137.294 91.122 136.221 90.026 135.086 91.161C133.772 92.4749 135.194 92.3369 136.126 91.4718C137.065 90.5997 135.399 90.7284 134.859 91.4121C133.603 93 135.57 92.7742 135.887 91.4121C136.352 89.411 134.288 94.0084 135.289 90.5036" stroke="#00ADB5" stroke-opacity="0.5" stroke-width="1.66333" stroke-linecap="round" stroke-linejoin="round"/>
<path d="M130.556 83.1884C132.467 85.7102 134.426 88.1015 136.03 90.6232C136.475 91.322 136.12 92.0233 136.365 92.0097C137.27 91.9594 138.198 91.7946 139.162 91.7946C141.369 91.7946 143.107 90.7188 145.234 90.7188C147.81 90.7188 151.594 90.0499 147.338 87.9218" stroke="#00ADB5" stroke-opacity="0.5" stroke-width="1.66333" stroke-linecap="round" stroke-linejoin="round"/>
<path d="M128.404 73.2912C128.002 71.257 126.038 66.3261 129.695 66.8485C131.007 67.0359 131.888 68.3934 132.659 69.2511C134.668 71.4824 134.453 74.1757 131.201 74.367C130.349 74.4171 129.15 76.1062 128.189 74.9049C127.101 73.5446 128.212 73.636 128.404 72.0003C128.53 70.93 127.832 71.0189 127.532 69.9682C127.301 69.1623 127.78 68.2798 127.974 67.6972" stroke="#00ADB5" stroke-opacity="0.5" stroke-width="1.66333" stroke-linecap="round" stroke-linejoin="round"/>
<path d="M129.695 70.9245C129.676 71.4384 128.883 76.0691 130.568 75.3113C131.132 75.0575 131.618 74.6886 131.847 74.104C132.068 73.5376 131.833 73.1992 131.584 72.6457C130.942 71.2197 129.08 69.0033 129.647 72.2154C130.005 74.2421 132.268 73.7685 132.444 71.8329C132.579 70.3548 130.715 68.3746 129.528 70.0639C128.688 71.2588 130.183 73.8937 131.058 72.0481C131.502 71.111 130.44 68.7287 129.313 69.8965C128.156 71.094 129.894 73.6199 131.034 72.5979C132.161 71.5874 131.395 68.505 130.173 69.6814C129.056 70.7574 130.732 72.8987 131.584 71.2592C132.533 69.4304 130.441 68.0524 129.791 69.9682C129.21 71.6786 131.021 73.5183 131.44 71.1875C131.759 69.4133 128.5 68.47 128.5 70.5898C128.5 72.5427 130.245 72.3429 130.245 70.5659C130.245 68.7138 128.38 69.1307 129.157 70.6854C129.935 72.2402 130.977 69.4808 130.101 68.6056C129.08 67.584 127.727 69.1635 128.93 70.1475C129.75 70.8183 130.871 68.035 129.492 67.5179C128.301 67.0713 128.96 69.5025 129.372 68.9522C130.012 68.0993 129.031 67.5283 129.707 67.6972C130.302 67.846 131.749 68.1641 132.157 68.6893C132.479 69.1027 133.783 71.4031 133.783 72.0003C133.783 73.8279 130.988 74.8132 129.384 74.355C128.233 74.0262 127.893 74.8392 128.297 74.5702C129.276 73.9175 129.48 72.2152 129.48 72.8609" stroke="#00ADB5" stroke-opacity="0.5" stroke-width="1.66333" stroke-linecap="round" stroke-linejoin="round"/>
<path d="M129.48 104.058C128.372 106.409 127.389 108.77 126.085 110.991C125.792 111.491 125.242 112.512 125.177 113.095C125.002 114.665 126.579 109.351 126.898 108.577" stroke="#00ADB5" stroke-opacity="0.5" stroke-width="1.66333" stroke-linecap="round" stroke-linejoin="round"/>
<path d="M151.211 99.5402C153.936 102.981 156.94 105.434 159.064 109.21C159.273 109.582 159.636 109.877 159.924 110.166C160.891 111.133 158.13 108.104 157.235 107.071" stroke="#00ADB5" stroke-opacity="0.5" stroke-width="1.66333" stroke-linecap="round" stroke-linejoin="round"/>
<path d="M110.712 143.486C105.428 142.121 100.473 141.769 96.5162 146.166C95.8335 146.925 94.0814 149.062 94.2984 150.255C95.2992 155.759 99.0235 156.255 104.013 155.707C109.201 155.138 115.042 150.899 114.547 144.965C114.334 142.403 114.215 140.97 111.267 140.183C109.953 139.832 108.354 139.95 107.224 140.772C106.374 141.39 107.549 140.733 107.801 140.575" stroke="#00ADB5" stroke-opacity="0.5" stroke-width="1.66333" stroke-linecap="round" stroke-linejoin="round"/>
<path d="M178.729 63.5666C180.004 59.9201 180.962 55.9092 182.521 52.4005C182.659 52.091 183.497 50.2703 183.785 50.2703C185.035 50.2703 184.836 58.2058 185.143 59.587C186.309 64.8346 185.409 63.5618 189.263 60.2893C191.169 58.6707 203.827 53.0555 198.954 58.2761C195.96 61.4846 191.88 64.7186 187.835 66.5161C187.194 66.801 189.247 67.5382 189.591 67.9675C190.778 69.4513 191.765 71.067 192.845 72.6259C195.662 76.6947 190.345 73.924 188.397 73.0472C186.501 72.1941 184.089 71.7271 182.521 70.3084C182.252 70.0644 181.257 68.592 181.257 69.0443C181.257 74.8493 180.399 76.0095 176.201 79.5783C173.264 82.0745 174.253 73.1844 174.422 72.3215C174.766 70.5606 175.391 69.037 175.99 67.3588C176.231 66.6851 177.66 65.3506 176.95 65.4393C173.157 65.9134 177.18 70.2269 171.542 66.7034C164.747 62.4561 167.106 54.5981 174.469 60.383C176.588 62.0479 176.29 64.5249 178.916 65.2754C182.088 66.1816 179.388 63.6212 178.308 61.4598" stroke="#00ADB5" stroke-opacity="0.5" stroke-width="1.66333" stroke-linecap="round" stroke-linejoin="round"/>
<path d="M195.583 186.604C197.114 185.844 205.046 180.114 202.934 184.942C202.25 186.505 201.07 188.236 199.891 189.46C197.965 191.46 196.274 199.955 200.125 196.389C201.618 195.007 205.286 186.748 207.803 189.132C211.38 192.521 207.347 193.974 205.064 195.242C201.758 197.079 202.391 202.965 206.539 200.299C208.08 199.307 211.414 194.791 213.07 197.77C214.814 200.909 208.696 202.855 209.09 206.01C209.391 208.414 211.625 207.228 212.859 206.502C213.64 206.043 212.604 204.165 213.281 203.037" stroke="#00ADB5" stroke-opacity="0.5" stroke-width="1.66333" stroke-linecap="round" stroke-linejoin="round"/>
<path d="M170.302 11.739C171.815 7.40324 172.645 1.51329 178.214 1.39222C179.932 1.35486 181.714 2.3234 182.755 3.63948C184.553 5.91327 183.828 9.43632 182.521 11.739C180.823 14.7306 174.797 15.6074 181.163 13.0031C184.841 11.4985 187.577 14.6214 187.577 18.3872C187.577 27.7304 178.324 27.6548 173.345 21.4303C170.382 17.7264 170.723 14.5338 170.723 10.4749" stroke="#00ADB5" stroke-opacity="0.5" stroke-width="1.66333" stroke-linecap="round" stroke-linejoin="round"/>
<path d="M5.54909 173.542C11.6278 171.78 15.4201 170.592 21.3502 170.592C24.1033 170.592 23.2432 168.904 21.4672 172.278C20.2029 174.68 18.3446 177.105 16.6918 179.23C15.9371 180.201 15.3765 183.476 14.7254 183.982C14.4163 184.223 12.5108 181.318 12.0802 181.126C10.6432 180.488 9.49243 179.131 7.9134 178.645C6.94267 178.346 0.344159 176.754 0.914109 176.398C3.26286 174.93 4.43594 175.358 7.02386 174.783C11.4789 173.793 9.56651 174.117 5.54909 174.385" stroke="#00ADB5" stroke-opacity="0.5" stroke-width="1.66333" stroke-linecap="round" stroke-linejoin="round"/>
</svg>
