<svg width="141" height="199" viewBox="0 0 141 199" fill="none" xmlns="http://www.w3.org/2000/svg">
<path d="M83.9703 9.98676C81.9034 10.2925 79.4715 10.4539 78.9792 12.9151C78.5977 14.8225 78.7421 16.7856 79.8855 18.4404C81.8392 21.2681 84.7418 22.9185 88.2377 22.3359C91.3634 21.8149 95.6566 18.9824 95.6566 15.4647C95.6566 13.481 94.2281 11.4847 93.0461 10.0003C91.7792 8.40926 90.6846 6.73634 89.0898 5.43532C86.9387 3.68049 85.2011 3.50822 83.2669 5.57734C82.2085 6.70957 81.2076 8.25417 80.7443 9.73654C80.516 10.4673 80.6835 11.0531 80.6835 11.7857C80.6835 12.7621 80.5023 11.322 80.6835 10.8389" stroke="#00ADB5" stroke-opacity="0.5" stroke-width="1.66333" stroke-linecap="round" stroke-linejoin="round"/>
<path d="M94.6826 15.5758C96.4415 17.1375 97.9323 18.55 101.043 18.6262C103.22 18.6796 105.397 18.136 107.438 17.551C108.899 17.1322 113.583 14.9137 109.787 14.7344" stroke="#00ADB5" stroke-opacity="0.5" stroke-width="1.66333" stroke-linecap="round" stroke-linejoin="round"/>
<path d="M112.821 1.95246C110.5 4.51564 107.296 9.53842 108.499 13.3886C108.922 14.7425 109.537 15.654 110.332 16.8106C111.932 19.1383 114.413 18.4128 116.662 17.8048C118.293 17.364 120.231 15.9754 120.855 14.3962C121.717 12.2167 119.921 8.80928 118.421 7.3087C116.745 5.63327 115.418 3.59496 113.551 2.1283C113.055 1.73804 112.677 1.31481 112.03 1.45877C111.301 1.6206 111.002 2.31766 111.969 2.31766" stroke="#00ADB5" stroke-opacity="0.5" stroke-width="1.66333" stroke-linecap="round" stroke-linejoin="round"/>
<path d="M130.739 60.1798C131.287 58.5173 131.59 57.3676 133.17 56.5685C133.755 56.2729 134.181 56.1361 134.502 56.7672C134.934 57.6129 134.761 58.7489 134.608 59.6539C134.249 61.7631 134.307 63.9629 134.023 66.0935C133.808 67.7061 133.208 73.0289 135.367 73.7485C136.208 74.0289 137.975 72.813 137.868 71.8552C137.82 71.4175 137.622 69.4745 136.735 70.0905C135.192 71.162 137.13 74.2789 137.681 75.56C138.846 78.2671 139.743 82.4802 139.446 85.4473C139.294 86.9712 138.513 88.1064 137.553 89.2106C136.924 89.9338 136.072 92.1334 134.689 91.4545C133.338 90.791 132.085 88.8975 132.34 87.364C132.497 86.4252 132.897 87.6577 132.317 86.2654" stroke="#00ADB5" stroke-opacity="0.5" stroke-width="1.66333" stroke-linecap="round" stroke-linejoin="round"/>
<path d="M113.699 61.9679C113.183 60.7503 112.991 59.7384 111.736 59.3149C111.023 59.0742 110.376 58.8903 109.621 58.8358C107.951 58.7153 106.525 60.058 106.968 61.7575C107.668 64.4498 108.934 66.6511 108.966 69.5411C108.984 71.1915 109.001 72.8609 108.674 74.4848C108.375 75.9677 108.246 78.2127 107.131 79.37C106.491 80.0347 105.317 81.1522 104.315 80.7958C103.369 80.4597 103.772 79.1796 104.233 78.5402C105.136 77.2852 106.414 80.2728 106.547 81.0062C106.984 83.4083 107.348 85.8869 107.645 88.3106C107.864 90.0896 107.885 91.9798 108.703 93.6165C109.251 94.7122 110.292 96.7405 111.789 96.6084C112.619 96.5352 113.919 95.7639 114.161 94.9313C114.526 93.6753 114.039 93.5002 113.279 92.8919" stroke="#00ADB5" stroke-opacity="0.5" stroke-width="1.66333" stroke-linecap="round" stroke-linejoin="round"/>
<path d="M83.4205 192.039C83.6281 188.772 83.4517 187.304 80.3734 186.192C79.2222 185.776 77.5008 185.996 76.6361 186.886C74.8723 188.702 75.4356 190.78 76.1479 192.943C78.1768 199.104 88.1307 199.263 91.1141 193.545C92.564 190.766 93.3067 187.325 94.3295 184.36C95.5987 180.681 97.6638 177.277 98.8749 173.569C100.124 169.743 101 165.831 102.36 162.041C102.981 160.308 103.503 156.57 104.952 155.29C108.129 152.484 110.932 157.445 111.139 160.125C111.339 162.714 112.057 165.534 112.057 168.031C112.057 168.973 111.675 169.892 111.299 170.733C110.992 171.42 109.611 171.087 109.489 170.423C109.134 168.482 111.658 165.565 107.814 165.99" stroke="#00ADB5" stroke-opacity="0.5" stroke-width="1.66333" stroke-linecap="round" stroke-linejoin="round"/>
<path d="M30.7764 145.15C37.1041 145.417 43.9748 145.028 50.2768 144.251C53.6489 143.836 57.0502 143.747 60.3837 143.234C60.8534 143.162 62.3525 142.445 62.59 143.062C62.965 144.037 63.0443 145.43 62.9996 146.458C62.8698 149.444 63.2377 152.702 63.8848 155.613C64.398 157.923 64.7832 159.848 64.7832 162.219C64.7832 163.516 65.4735 165.648 64.6775 166.672C62.4581 169.525 57.5903 170.691 54.2138 171.547C49.2523 172.804 44.345 174.11 39.2186 174.387C36.0387 174.559 32.9791 173.925 29.8383 173.925C26.9453 173.925 27.2205 173.865 26.2051 171.124C25.2051 168.424 25.0689 165.992 25.0689 163.091C25.0689 161.581 24.4046 159.928 23.9988 158.467C23.6914 157.361 24.1843 156.006 24.3423 154.9C24.508 153.74 26.2479 151.077 25.6635 150.025C25.0906 148.994 24.7867 147.229 25.7295 146.286C26.4993 145.516 37.8362 144.588 27.447 146.814" stroke="#00ADB5" stroke-opacity="0.5" stroke-width="1.66333" stroke-linecap="round" stroke-linejoin="round"/>
<path d="M25.5446 148.003C26.8644 149.777 27.9106 151.878 29.2438 153.592C29.6869 154.162 30.7469 154.655 31.0142 155.257C31.7379 156.885 35.9045 158.316 37.435 159.299C39.1627 160.41 42.7176 165.313 45.1639 162.867C49.7623 158.268 54.4958 153.772 59.0757 149.192C59.941 148.327 60.2409 147.182 61.031 146.392C63.4363 143.986 59.4327 144.198 58.1245 144.198" stroke="#00ADB5" stroke-opacity="0.5" stroke-width="1.66333" stroke-linecap="round" stroke-linejoin="round"/>
<path d="M15.0278 66.7294C22.6477 65.9396 30.2319 64.6283 37.8415 63.9942C41.1971 63.7145 44.4322 63.661 47.7905 63.6185C48.4465 63.6102 52.9249 62.439 53.276 63.2728C53.7078 64.2983 53.3827 66.2311 53.524 67.3456C53.7883 69.4308 54.2518 71.4216 54.4182 73.5224C54.6111 75.9574 56.0825 81.4632 53.246 82.9304C51.4932 83.837 49.3994 84.5646 47.4899 85.0419C45.1419 85.629 42.7821 86.6613 40.3964 87.0182C37.2922 87.4826 34.1118 88.2912 30.9959 88.5061C28.8651 88.653 26.8869 89.0248 24.8567 89.6933C21.8539 90.6821 18.3348 90.8055 15.2232 90.8055C13.9127 90.8055 12.6216 90.9223 11.3157 90.9407C10.4221 90.9533 9.26934 91.4741 8.40017 91.1361C6.53516 90.4108 6.48853 86.562 6.15337 84.9893C5.44564 81.6684 4.60448 78.38 4.20715 75.0027C4.06787 73.8189 3.58839 71.631 4.40252 70.5843C5.95686 68.5858 8.96632 68.5875 11.2331 67.8791C12.1959 67.5782 13.0561 67.1285 14.0059 66.8572C16.1606 66.2415 13.3034 66.4073 12.3227 66.5942" stroke="#00ADB5" stroke-opacity="0.5" stroke-width="1.66333" stroke-linecap="round" stroke-linejoin="round"/>
<path d="M6.64183 73.0866C12.1916 72.2644 17.9203 71.3146 26.9306 68.4878C29.1355 67.7961 31.9843 67.5575 34.2947 67.3982C36.4172 67.2518 38.5064 66.8298 40.5918 67.1277C43.1171 67.4884 45.9579 65.6553 48.3767 66.8647C50.9373 68.145 51.2772 72.405 51.2772 74.905C51.2772 76.0832 51.8183 77.2146 51.8183 78.3917C51.8183 79.231 51.5421 81.1902 50.7362 81.6379C49.2837 82.4449 47.8061 83.6923 46.1299 84.0275C44.4817 84.3571 42.3528 83.4581 40.8548 83.9824C37.8057 85.0496 34.4513 85.5739 31.2589 85.9286C28.1237 86.277 25.3216 86.3755 22.3018 87.454C19.5675 88.4306 16.6386 88.1096 13.8105 88.5136C13.0277 88.6254 11.2163 89.6146 10.7297 88.6413C10.2855 87.7531 10.3935 86.7015 9.99324 85.8009C9.5068 84.7064 8.97443 82.4049 8.00193 81.6755C7.15986 81.0439 6.72477 79.491 6.77709 78.4969C6.82562 77.5749 6.64183 76.8174 6.64183 75.927C6.64183 75.5706 6.45009 75.2332 6.37883 74.9126C6.28202 74.4769 6.75227 74.2508 6.63432 73.838C6.48102 73.3015 8.80517 74.1173 9.21175 74.5819C9.77622 75.227 10.0122 76.1777 10.5343 76.8738C11.1256 77.6623 11.9392 78.8562 12.3227 79.7443C13.0284 81.3786 13.6753 83.1162 13.6753 84.9142C13.6753 85.8404 13.8671 87.089 15.0279 87.1535C15.7057 87.1911 15.8828 88.3096 15.9747 86.7477C15.9818 86.627 15.939 85.7666 16.2452 85.9963C16.426 86.1318 15.9266 83.7271 15.8469 83.5015C15.3141 81.9917 15.3016 80.1013 14.547 78.6998C13.9056 77.5087 12.0553 73.6997 13.2395 72.5155C13.3684 72.3866 14.0938 72.5549 14.4192 72.4103C14.7151 72.2787 14.98 71.734 15.2308 71.734C15.4572 71.734 16.2474 71.6974 16.3805 71.5311C16.5601 71.3066 16.6669 72.2014 16.681 72.275C16.8053 72.9212 17.1791 73.5452 17.3949 74.1686C18.4307 77.1611 19.3562 79.6452 19.3562 82.8853C19.3562 84.2097 19.3701 85.411 20.0024 86.6124C20.2267 87.0386 21.1018 86.9361 21.0845 86.913C20.9018 86.6695 21.6946 86.6231 21.7908 86.3344C22.2759 84.8792 21.3127 83.3049 20.829 81.961C20.1122 79.9699 19.7618 77.8128 19.1533 75.7842C18.8601 74.8071 18.6855 73.7693 18.8226 72.7409C18.8748 72.3495 18.9988 71.3813 19.3562 71.1629C20.5967 70.4048 20.7306 71.3063 21.5504 72.5756C23.2199 75.1607 24.402 77.762 25.5931 80.616C26.2703 82.2387 27.0583 84.052 27.4717 85.7708C27.591 86.2668 28.0849 87.5988 28.6214 86.9431C29.4885 85.8833 28.6689 83.9681 28.2081 82.8928C26.6918 79.3549 24.9113 76.3559 25.9162 72.4478C26.2205 71.2645 26.5133 70.1313 26.9306 68.9837C27.1561 68.3637 28.2071 70.2846 28.2231 70.3213C28.8887 71.8496 29.5264 73.4417 29.974 75.0478C30.6523 77.4818 31.886 79.5484 33.2953 81.6154C34.4056 83.2439 35.9605 83.1428 35.8352 80.6986C35.6735 77.5457 33.0892 74.971 33.0173 71.734C33.0039 71.1296 32.6042 69.8627 33.0924 69.3745C33.9043 68.5626 34.9262 70.0594 35.3017 70.5768C36.3451 72.0146 37.1396 73.3745 37.7438 75.0628C38.3296 76.6996 38.5111 78.4757 39.2692 80.0449C39.7952 81.1336 40.9378 83.0358 42.0796 83.6067C42.6173 83.8755 42.7295 82.5022 42.7559 82.3142C42.9987 80.5841 42.3065 79.2613 41.5987 77.7304C40.7212 75.8327 39.2057 72.9691 39.7201 70.7646C40.0634 69.2932 40.6633 69.2205 41.749 70.2687C43.5613 72.0185 44.4282 75.8749 45.3183 78.2114C45.7376 79.3119 46.08 80.5134 47.2195 81.0668C48.4728 81.6756 48.8867 79.7755 48.8125 78.9177C48.597 76.4276 46.7225 74.1967 45.6264 72.0045C45.0845 70.9207 43.8583 69.5523 44.7097 68.3225C44.7897 68.2068 51.2094 68.576 46.6559 70.5768C42.2863 72.4967 37.1212 73.3807 32.4687 74.3715C29.9743 74.9027 27.5882 75.5416 25.1873 76.4079C23.2364 77.1118 21.3201 77.0914 19.3036 77.3622C16.958 77.6773 15.0151 78.9092 12.7435 79.3686C11.5287 79.6143 10.1806 79.7471 9.07649 80.3605C8.73615 80.5496 7.84995 81.4756 7.85916 81.9084C7.94676 86.0257 14.8458 83.5154 16.9816 82.9003C22.828 81.2166 28.8807 79.9421 34.5953 77.8131C37.0655 76.8928 39.2967 75.3721 41.8617 74.7172C43.1732 74.3823 50.5665 73.8544 47.9408 77.2044C45.6875 80.0793 41.2694 79.8843 37.9918 80.5558C33.2587 81.5256 28.8804 81.9851 24.3156 83.6969C22.6195 84.3329 20.9986 84.9055 19.3486 85.6506C18.0726 86.2269 16.781 85.9751 15.4337 86.1015C15.1239 86.1305 10.3376 86.6349 11.5412 87.7997C14.4749 90.6387 20.0776 87.4984 23.0382 86.4621C25.2056 85.7036 27.5118 85.4815 29.711 84.839C31.8956 84.2008 34.0145 83.3579 36.1884 82.6899C39.6069 81.6396 42.9651 79.9371 46.4079 79.068C47.0822 78.8978 48.0022 78.673 48.6998 78.6998C48.8709 78.7064 49.1879 78.6322 48.7599 78.6547C47.2628 78.7335 45.724 79.0892 44.2438 79.3085" stroke="#00ADB5" stroke-opacity="0.5" stroke-width="1.66333" stroke-linecap="round" stroke-linejoin="round"/>
<path d="M73.0549 104.784C70.3894 124.411 79.4566 105.527 73.1485 105.814C71.3937 105.894 70.6273 110.168 72.2824 110.168C74.3755 110.168 75.5005 107.123 75.068 105.393C74.4809 103.044 72.1669 107.812 72.0717 108.342C71.2284 113.04 75.024 108.403 75.8639 106.891C77.4342 104.064 74.1488 106.677 73.523 107.546C73.0581 108.192 72.4278 112.059 73.921 110.566C74.4535 110.034 76.0841 105.399 74.9744 106.001C73.3815 106.866 71.3616 110.628 72.891 112.275C75.6384 115.234 79.1424 101.085 73.1251 109.208C72.4309 110.145 71.4054 113.717 73.8039 113.118C74.7656 112.877 77.6833 108.785 76.1683 108.436C72.6241 107.618 72.1912 115.949 73.0549 107.312" stroke="#00ADB5" stroke-opacity="0.5" stroke-width="1.66333" stroke-linecap="round" stroke-linejoin="round"/>
<path d="M6.05813 126.695C6.02999 126.858 4.00193 135.458 5.63677 135.356C6.87567 135.279 7.92422 132.594 8.21176 131.704C9.3215 128.271 5.23835 129.481 3.95132 131.096C3.63517 131.492 0.532663 136.157 1.18906 136.527C2.08937 137.033 5.03987 132.669 5.35586 132.009C6.89846 128.783 0.16547 138.227 3.34268 136.714C5.41394 135.728 7.54563 132.602 8.23517 130.534C8.81673 128.789 6.09895 133.648 5.7304 135.45C5.02222 138.912 10.5469 128.59 7.88403 131.189C6.38992 132.648 5.99001 134.352 5.2154 136.199C4.3687 138.218 8.53948 132.723 8.53948 130.534C8.53948 128.409 3.35077 137.212 4.81745 133.179C5.42638 131.505 8.03856 126.843 7.43926 128.521C6.80656 130.292 6.04913 132.191 5.2154 133.858" stroke="#00ADB5" stroke-opacity="0.5" stroke-width="1.66333" stroke-linecap="round" stroke-linejoin="round"/>
</svg>
