<svg width="279" height="238" viewBox="0 0 279 238" fill="none" xmlns="http://www.w3.org/2000/svg">
<path d="M8.25671 38.4246C11.9608 29.6906 10.4437 22.0801 10.4437 13.0287C10.4437 11.268 10.1242 5.9044 11.9746 4.94445C14.8928 3.43054 17.6197 2.42034 21.0628 2.42034C23.3518 2.42034 25.6516 2.48628 27.9397 2.42034C30.228 2.35439 32.4447 1.42352 34.7072 1.14638C38.9169 0.630722 43.2954 1.34878 47.4525 1.34878C50.7532 1.34878 54.1677 1.77741 57.3426 1.77741C57.9062 1.77741 60.2042 2.04617 60.5744 2.37272C61.7077 3.37214 61.3831 4.9749 62.2754 5.84932" stroke="#00ADB5" stroke-opacity="0.5" stroke-width="1.66333" stroke-linecap="round" stroke-linejoin="round"/>
<path d="M62.0576 6.62329C62.2017 9.2007 62.2557 12.8175 63.3161 15.336C64.0033 16.968 63.4554 19.14 63.5944 20.8782C63.8614 24.2149 63.3645 27.4671 63.3645 30.7042C63.3645 35.0467 63.5824 39.3335 63.5824 43.6523C63.5824 47.3591 59.9605 46.7384 57.0962 46.2177C54.6218 45.7678 51.3013 46.6699 48.7224 46.7017C43.7471 46.7631 38.7486 47.1373 33.7656 47.1373C29.6039 47.1373 26.5135 45.9288 22.6811 44.4751C20.6346 43.6989 19.3976 43.8701 17.1993 43.8701C15.1174 43.8701 13.4053 43.5446 11.3183 44.1968C10.0972 44.5784 7.91056 44.249 7.21603 42.9988C6.38324 41.4998 8.0389 40.8497 8.0389 39.6226C8.0389 38.5924 7.9094 35.6461 8.25672 38.4246" stroke="#00ADB5" stroke-opacity="0.5" stroke-width="1.66333" stroke-linecap="round" stroke-linejoin="round"/>
<path d="M33.0881 12.2865C33.0881 12.2865 33.9594 12.7221 34.8306 13.5934C35.7019 14.2469 37.5359 13.9202 39.0781 13.9202C39.8895 13.9202 40.7465 13.2876 41.4741 12.9642C42.948 12.3091 42.0689 13.5413 41.7161 14.2469C41.3255 15.028 41.7715 16.4803 42.4785 16.9697C43.6448 17.7771 44.7986 17.0802 45.9393 16.5098C46.4129 16.273 46.2829 16.1632 46.4294 16.4856C46.6282 16.9229 46.5928 17.5574 46.5928 18.0345C46.5928 19.1204 46.5215 20.9245 45.9393 21.8705C45.1735 23.115 44.3997 23.9205 43.1682 24.8353C41.9516 25.739 40.3443 27.316 38.7272 27.316C35.5671 27.316 32.2129 26.6273 30.6316 23.5526C29.9613 22.2492 28.7317 21.1821 28.7317 19.6923C28.7317 18.4493 28.3205 16.9598 28.7317 15.7716C29.2303 14.3313 30.4743 12.9642 30.0387 12.9642C30.2608 13.0277 32.2168 11.8509 33.0881 12.2865Z" stroke="#00ADB5" stroke-opacity="0.5" stroke-width="1.66333" stroke-linecap="round" stroke-linejoin="round"/>
<path d="M36.682 11.5242C37.9075 11.0706 40.7063 10.1204 41.3651 8.63809C41.8743 7.49255 40.1914 7.27673 39.2959 7.27673C38.2097 7.27673 36.9226 8.77785 36.6336 9.72718C36.473 10.2551 36.3203 10.7954 36.1617 11.3306C36.0853 11.5885 36.1873 11.7756 36.2404 12.0143C36.2808 12.1961 37.9425 11.3236 37.88 11.0737" stroke="#00ADB5" stroke-opacity="0.5" stroke-width="1.66333" stroke-linecap="round" stroke-linejoin="round"/>
<path d="M58.2473 36.0332L10.4655 37.0827C5.36392 37.1947 1.28674 41.3624 1.28674 46.4652C1.28674 51.6483 5.48846 55.85 10.6715 55.85H58.4649C63.9378 55.85 68.3745 51.4133 68.3745 45.9404C68.3745 40.3823 63.8041 35.9112 58.2473 36.0332Z" fill="#00ADB5" fill-opacity="0.5" stroke="#00ADB5" stroke-opacity="0.5" stroke-width="1.66333"/>
<path d="M21.0288 36.8196C21.7522 37.9413 22.3768 39.2874 23.2068 40.325C23.6243 40.8469 23.5573 40.7408 24.3667 40.441C25.7178 39.9406 27.2487 40.2992 28.6583 40.2992C29.8958 40.2992 31.3347 39.6532 32.5375 39.9771C33.9309 40.3522 35.5735 39.636 36.945 39.6033C38.5976 39.564 40.173 39.7193 41.8166 39.7193C42.8075 39.7193 43.7734 39.1394 44.6905 39.1394C45.2226 39.1394 46.7393 39.5611 46.7783 38.5852C46.7973 38.1098 47.0103 37.648 47.0103 37.1676C47.0103 36.5177 46.6213 36.7991 45.9664 36.4716" stroke="#00ADB5" stroke-opacity="0.5" stroke-width="1.66333" stroke-linecap="round" stroke-linejoin="round"/>
<path d="M248.994 9.46509C248.057 10.7948 246.836 11.9354 246.185 13.4242C245.951 13.9588 245.873 14.5391 245.624 15.056C245.371 15.582 245.067 16.1981 244.879 16.7447C244.508 17.8244 243.637 18.6676 243.042 19.604C242.691 20.1548 242.112 21.0124 241.573 21.4062C241.298 21.6067 240.563 22.57 240.888 22.6513C241.646 22.8408 242.289 23.2439 242.963 23.6411C243.891 24.1873 244.815 24.5995 245.642 25.2978C246.688 26.1808 247.928 26.8097 248.952 27.7244C249.754 28.4414 250.451 29.2723 251.265 29.9841C251.967 30.5988 252.813 31.0519 253.528 31.655C253.581 31.6995 254.09 32.127 254.028 32.2191C253.965 32.3141 253.206 31.3396 253.145 31.24" stroke="#00ADB5" stroke-opacity="0.5" stroke-width="1.66333" stroke-linecap="round" stroke-linejoin="round"/>
<path d="M265.214 8.37958C263.719 11.9316 262.085 15.4211 260.602 18.9797C259.682 21.187 258.909 23.4183 258.126 25.681C257.51 27.4596 256.747 29.1952 256.082 30.9527C255.851 31.563 255.693 32.1862 255.557 32.8222C255.336 33.8633 255.358 32.651 255.38 32.1979" stroke="#00ADB5" stroke-opacity="0.5" stroke-width="1.66333" stroke-linecap="round" stroke-linejoin="round"/>
<path d="M268.534 7.61334C269.836 9.096 271.082 10.5877 272.465 11.991C273.595 13.1379 274.095 14.7951 274.728 16.2339C275.385 17.727 276.043 18.9634 277.013 20.2568C277.128 20.4098 277.467 20.7887 277.467 20.9876C277.467 21.0832 277.009 21.0806 276.935 21.0905C276.682 21.1242 276.381 21.3385 276.169 21.4701C272.324 23.8567 269.724 27.3062 267.463 31.1265C267.077 31.7794 266.79 32.724 266.232 33.2267C265.871 33.5512 265.577 33.978 265.15 34.1916C264.748 34.3926 265.033 33.6815 265.086 33.2834" stroke="#00ADB5" stroke-opacity="0.5" stroke-width="1.66333" stroke-linecap="round" stroke-linejoin="round"/>
<path d="M98.5426 148.311C102.642 140.881 102.4 138.759 101.465 131.28C100.95 127.161 100.753 123.138 99.7116 119.086C97.8485 111.84 97.2438 102.084 103.078 96.2497C114.557 84.7706 135.934 101.096 129.461 115.659C126.998 121.202 122.741 125.306 119.666 130.534C118.432 132.631 117.741 134.904 116.138 136.863C114.601 138.742 112.692 141.08 112.692 143.414C112.692 145.384 113.279 147.94 111.886 149.682C109.96 152.089 110.645 150.851 107.794 150.851C105.834 150.851 102.945 149.293 101.364 148.029C100.236 147.127 99.631 149.737 99.631 147.223C99.631 145.065 100.326 146.86 98.9054 146.86" stroke="#00ADB5" stroke-opacity="0.5" stroke-width="1.66333" stroke-linecap="round" stroke-linejoin="round"/>
<path d="M107.613 155.205C103.733 154.048 92.9934 151.465 95.479 154.66C98.4779 158.516 99.7605 156.584 103.44 157.401C105.322 157.82 107.157 163.628 105.073 163.75C102.097 163.926 100.123 159.921 97.0914 159.921C94.3323 159.921 94.5299 163.552 96.1844 164.839C98.3692 166.538 100.882 164.712 102.352 167.358C104.676 171.541 98.3285 170.86 96.527 169.878C94.7121 168.888 92.9854 167.342 91.6494 166.451" stroke="#00ADB5" stroke-opacity="0.5" stroke-width="1.66333" stroke-linecap="round" stroke-linejoin="round"/>
<path d="M98.5426 147.132C98.592 147.448 98.6433 149.581 99.4949 149.581C99.9535 149.581 100.164 149.303 100.583 149.536C101.076 149.809 101.538 150.454 102.009 150.831C102.425 151.163 103.657 151.122 103.894 151.536C104.281 152.213 105.066 152.583 105.799 152.665C106.749 152.77 107.1 153.247 108.111 153.023C108.421 152.954 108.452 152.756 108.741 152.756C109.188 152.756 109.381 152.969 109.719 152.594C110.092 152.179 110.703 151.985 110.883 151.355C111.128 150.498 112.025 150.047 110.696 150.579" stroke="#00ADB5" stroke-opacity="0.5" stroke-width="1.66333" stroke-linecap="round" stroke-linejoin="round"/>
<path d="M116.048 111.215C114.425 111.224 113.083 111.328 112.53 113.049C112.154 114.22 112.147 115.371 112.147 116.587C112.147 117.769 112.873 118.719 112.873 119.832C112.873 121.302 111.697 121.062 110.701 121.51C109.761 121.933 109.08 122.286 108.57 123.233C108.065 124.17 108.446 125.983 108.514 127.002C108.573 127.879 108.99 129.743 108.383 130.484C108.054 130.887 106.253 131.509 107.431 130.625" stroke="#00ADB5" stroke-opacity="0.5" stroke-width="1.66333" stroke-linecap="round" stroke-linejoin="round"/>
<path d="M129.743 127.632C131.043 128.495 132.367 129.218 133.82 129.763C134.429 129.992 135.231 130.399 135.095 129.446" stroke="#00ADB5" stroke-opacity="0.5" stroke-width="1.66333" stroke-linecap="round" stroke-linejoin="round"/>
<path d="M134.459 115.115C136.762 115.67 139.05 116.294 141.332 116.909C141.712 117.011 140.841 116.051 140.808 116.022" stroke="#00ADB5" stroke-opacity="0.5" stroke-width="1.66333" stroke-linecap="round" stroke-linejoin="round"/>
<path d="M135.094 103.234C137.479 102.887 139.857 102.457 142.23 102.034C143.322 101.84 143.784 101.983 143.167 101.057" stroke="#00ADB5" stroke-opacity="0.5" stroke-width="1.66333" stroke-linecap="round" stroke-linejoin="round"/>
<path d="M122.215 90.6263C124.099 90.2952 125.733 89.9761 127.435 89.1247C128.233 88.7262 129 88.2471 129.834 87.9254C130.825 87.5432 130.845 87.6596 129.743 86.9983" stroke="#00ADB5" stroke-opacity="0.5" stroke-width="1.66333" stroke-linecap="round" stroke-linejoin="round"/>
<path d="M105.798 82.4633C105.523 84.3883 105.614 85.5413 106.393 87.2855C106.813 88.2258 107.168 89.4143 107.376 90.4298C107.447 90.7795 107.487 90.9785 107.723 91.241C107.812 91.3393 107.487 90.1711 107.431 89.9914" stroke="#00ADB5" stroke-opacity="0.5" stroke-width="1.66333" stroke-linecap="round" stroke-linejoin="round"/>
<path d="M91.9214 90.1728C92.5235 92.1775 93.3817 94.1005 93.8966 96.1086C94.1571 97.1245 93.9943 97.1863 93.554 96.159" stroke="#00ADB5" stroke-opacity="0.5" stroke-width="1.66333" stroke-linecap="round" stroke-linejoin="round"/>
<path d="M86.1167 104.594C88.1774 106.378 89.8674 108.591 91.468 110.782C91.6686 111.056 91.9005 111.154 92.123 111.376C92.6286 111.882 91.7559 110.74 91.6494 110.58" stroke="#00ADB5" stroke-opacity="0.5" stroke-width="1.66333" stroke-linecap="round" stroke-linejoin="round"/>
<path d="M88.9972 232.853C89.8918 231.716 91.6049 229.612 89.2038 229.239C88.6606 229.155 88.1533 228.836 87.6203 229.078C85.9787 229.822 84.4534 231.46 84.4534 233.407C84.4534 236.518 87.8651 237.192 90.3436 237.152C94.5251 237.084 95.7972 233.01 97.2741 229.709C98.7659 226.376 100.423 223.096 101.971 219.787C103.722 216.042 106.595 213.058 108.412 209.347C109.191 207.756 110.208 206.355 111.212 204.902C112.768 202.648 113.878 200.375 114.991 197.876C115.904 195.826 116.916 193.954 118.035 192.013C118.488 191.228 118.317 190.026 119.183 190.865C119.839 191.502 120.884 191.921 121.768 192.083C125.633 192.79 129.186 193.539 133.166 193.223C137.191 192.903 141.214 192.326 145.176 191.559C146.523 191.298 145.949 191.612 145.314 192.429C144.236 193.816 143.316 195.285 142.284 196.69C140.938 198.522 140.465 200.728 139.668 202.822C138.793 205.124 137.751 207.323 136.914 209.663C135.298 214.186 132.94 218.31 130.022 222.105C128.331 224.305 126.242 228.147 123.076 227.991C118.176 227.751 121.485 218.106 123.826 216.22C125.086 215.204 126.464 216.297 126.618 217.66C126.829 219.533 126.187 222.099 124.369 223.015C122.451 223.98 120.981 223.864 122.457 221.374C123.35 219.866 123.881 221.525 124.247 220.788" stroke="#00ADB5" stroke-opacity="0.5" stroke-width="1.66333" stroke-linecap="round" stroke-linejoin="round"/>
<path d="M201.761 110.783C195.118 112.058 190.289 113.976 186.078 119.389C183.41 122.82 183.995 128.219 185.744 131.856C188.625 137.849 195.706 141.232 202.095 141.526C209.539 141.868 219.886 139.681 221.412 130.804C222.229 126.046 217.683 121.547 215.555 117.644C213.823 114.469 211.215 110.19 207.57 108.847C206.082 108.298 202.628 108.489 201.546 109.97C201.062 110.632 200.439 111.331 200.087 112.074C199.802 112.676 200.108 110.541 200.04 109.922" stroke="#00ADB5" stroke-opacity="0.5" stroke-width="1.66333" stroke-linecap="round" stroke-linejoin="round"/>
<path d="M204.558 127.135C202.765 128.056 199.856 128.667 201.426 130.685C201.784 131.145 202.294 131.12 202.729 130.685C203.1 130.313 204.974 128.361 203.589 127.9C200.766 126.959 201.798 132.592 203.816 130.099C204.9 128.76 203.383 127.443 202.023 128.258C200.403 129.23 201.685 130.928 202.956 129.454C203.913 128.343 203.149 127.492 202.107 128.533C201.174 129.466 202.122 130.954 203.039 129.693C203.981 128.399 202.907 127.303 201.772 128.438C200.459 129.751 201.881 129.613 202.812 128.748C203.752 127.876 202.086 128.005 201.545 128.689C200.29 130.277 202.257 130.051 202.573 128.689C203.039 126.688 200.974 131.285 201.976 127.78" stroke="#00ADB5" stroke-opacity="0.5" stroke-width="1.66333" stroke-linecap="round" stroke-linejoin="round"/>
<path d="M197.242 120.465C199.154 122.987 201.112 125.378 202.717 127.9C203.162 128.599 202.807 129.3 203.052 129.286C203.957 129.236 204.884 129.071 205.849 129.071C208.056 129.071 209.794 127.995 211.921 127.995C214.497 127.995 218.281 127.327 214.025 125.198" stroke="#00ADB5" stroke-opacity="0.5" stroke-width="1.66333" stroke-linecap="round" stroke-linejoin="round"/>
<path d="M195.091 110.568C194.689 108.534 192.725 103.603 196.382 104.125C197.694 104.313 198.574 105.67 199.346 106.528C201.355 108.759 201.14 111.452 197.888 111.644C197.036 111.694 195.837 113.383 194.876 112.182C193.788 110.821 194.899 110.913 195.091 109.277C195.217 108.207 194.519 108.296 194.218 107.245C193.988 106.439 194.466 105.557 194.661 104.974" stroke="#00ADB5" stroke-opacity="0.5" stroke-width="1.66333" stroke-linecap="round" stroke-linejoin="round"/>
<path d="M196.382 108.201C196.363 108.715 195.57 113.346 197.254 112.588C197.818 112.334 198.305 111.965 198.533 111.381C198.754 110.814 198.519 110.476 198.27 109.922C197.629 108.496 195.767 106.28 196.334 109.492C196.692 111.519 198.955 111.045 199.131 109.11C199.265 107.631 197.401 105.651 196.214 107.341C195.375 108.535 196.87 111.17 197.744 109.325C198.188 108.388 197.127 106.005 195.999 107.173C194.843 108.371 196.581 110.897 197.72 109.875C198.848 108.864 198.081 105.782 196.86 106.958C195.742 108.034 197.419 110.175 198.27 108.536C199.22 106.707 197.128 105.329 196.477 107.245C195.896 108.955 197.708 110.795 198.127 108.464C198.446 106.69 195.186 105.747 195.186 107.866C195.186 109.819 196.932 109.62 196.932 107.843C196.932 105.99 195.066 106.407 195.844 107.962C196.621 109.517 197.663 106.757 196.788 105.882C195.766 104.861 194.414 106.44 195.617 107.424C196.437 108.095 197.557 105.312 196.179 104.795C194.988 104.348 195.646 106.779 196.059 106.229C196.699 105.376 195.718 104.805 196.394 104.974C196.989 105.123 198.436 105.441 198.844 105.966C199.166 106.379 200.47 108.68 200.47 109.277C200.47 111.105 197.674 112.09 196.071 111.632C194.92 111.303 194.58 112.116 194.983 111.847C195.962 111.194 196.167 109.492 196.167 110.138" stroke="#00ADB5" stroke-opacity="0.5" stroke-width="1.66333" stroke-linecap="round" stroke-linejoin="round"/>
<path d="M196.166 141.335C195.059 143.685 194.075 146.047 192.772 148.268C192.478 148.768 191.928 149.789 191.863 150.372C191.689 151.941 193.266 146.628 193.585 145.853" stroke="#00ADB5" stroke-opacity="0.5" stroke-width="1.66333" stroke-linecap="round" stroke-linejoin="round"/>
<path d="M217.897 136.817C220.622 140.258 223.627 142.711 225.75 146.487C225.96 146.859 226.322 147.154 226.611 147.443C227.578 148.41 224.817 145.38 223.922 144.347" stroke="#00ADB5" stroke-opacity="0.5" stroke-width="1.66333" stroke-linecap="round" stroke-linejoin="round"/>
<path d="M248.549 182.542C254.628 180.78 258.42 179.592 264.35 179.592C267.103 179.592 266.243 177.904 264.467 181.278C263.203 183.68 261.345 186.105 259.692 188.23C258.937 189.201 258.377 192.476 257.725 192.982C257.416 193.223 255.511 190.318 255.08 190.126C253.643 189.488 252.492 188.131 250.913 187.645C249.943 187.346 243.344 185.754 243.914 185.398C246.263 183.93 247.436 184.358 250.024 183.783C254.479 182.793 252.567 183.117 248.549 183.385" stroke="#00ADB5" stroke-opacity="0.5" stroke-width="1.66333" stroke-linecap="round" stroke-linejoin="round"/>
<path d="M245.6 153.468C244.397 158.336 242.976 162.818 241.058 167.373C239.833 170.283 242.417 167.284 243.914 166.952C248.408 165.953 253.544 163.468 257.819 161.568C259.731 160.718 253.624 155.659 252.131 154.498C249.555 152.495 247.283 152.625 244.336 152.625" stroke="#00ADB5" stroke-opacity="0.5" stroke-width="1.66333" stroke-linecap="round" stroke-linejoin="round"/>
<path d="M162.17 155.575C156.837 162.872 156.753 163.473 163.832 166.718C166.707 168.035 170.419 167.526 172.61 165.173C177.139 160.308 172.73 154.231 168.678 151.221C167.214 150.133 163.013 148.639 163.013 151.783C163.013 156.953 164.897 155.205 162.591 151.361" stroke="#00ADB5" stroke-opacity="0.5" stroke-width="1.66333" stroke-linecap="round" stroke-linejoin="round"/>
</svg>
