<svg width="78" height="58" viewBox="0 0 78 58" fill="none" xmlns="http://www.w3.org/2000/svg">
<path d="M2.10046 31.0199C2.4809 32.9764 3.44803 34.2475 4.19771 36.028C4.70813 37.2403 5.66243 38.179 6.19388 39.3684C6.76782 40.653 7.62725 42.1619 8.42756 43.3052C9.11365 44.2853 9.56323 45.214 10.4288 46.0796C11.9589 47.6097 13.1165 49.433 14.6536 50.9411C16.888 53.1334 20.6716 55.9937 23.9269 55.8128C24.9726 55.7547 26.1305 56.0788 27.1562 55.924C28.036 55.7912 29.1046 55.7467 29.9862 55.8987C31.435 56.1485 33.0071 55.8972 34.3929 56.1969C35.1409 56.3586 35.9551 56.1223 36.7125 56.2626C37.6945 56.4444 38.845 56.49 39.8458 56.49C43.1211 56.49 46.388 56.4702 49.6548 56.0554C51.4247 55.8306 53.1785 56.4174 54.9307 56.1059C56.5754 55.8135 58.7661 56.1155 60.3128 55.4388C62.2139 54.6071 64.1051 53.2991 65.5736 51.8306C66.3101 51.094 66.869 50.2142 67.3676 49.3038C68.0226 48.1078 68.3872 46.8178 69.0454 45.6248C71.3411 41.4639 72.6496 36.8326 74.5084 32.4955C74.9464 31.4733 75.6666 30.6452 76.1912 29.7009C76.3239 29.462 76.3841 29.1569 76.6006 28.9277C77.4109 28.0697 75.8586 27.9785 75.1451 27.6542" stroke="#eeeeee" stroke-opacity="0.5" stroke-width="1.66333" stroke-linecap="round" stroke-linejoin="round"/>
<path d="M1.73669 31.2018C3.36232 29.0748 4.74134 27.5125 7.10361 26.3099C9.08179 25.3028 11.1331 24.1067 12.9203 22.7926C15.6668 20.7731 19.4463 19.8731 22.79 19.2652C26.4293 18.6035 30.0115 17.83 33.7158 17.83C34.8619 17.83 35.9961 18.175 37.1422 18.1938C38.5144 18.2163 39.89 18.2595 41.2558 18.3757C43.352 18.5541 45.5036 18.512 47.6031 18.5577C50.5323 18.6214 53.3362 20.1376 56.265 20.3719C58.0071 20.5113 60.0388 20.7718 61.733 21.2462C62.3675 21.4238 63.0914 21.5447 63.6837 21.8324C64.4205 22.1903 64.9371 22.7958 65.6141 23.2171C67.7995 24.5769 70.2425 25.2164 72.6032 26.2492C73.3268 26.5658 74.5713 27.1084 75.3726 27.1084C76.4757 27.1084 76.4187 29.1447 76.4187 27.1084" stroke="#eeeeee" stroke-opacity="0.5" stroke-width="1.66333" stroke-linecap="round" stroke-linejoin="round"/>
<path d="M76.2367 28.3819C74.8875 30.1901 73.9259 30.8786 72.0118 31.9346C70.5092 32.7636 68.8447 33.35 67.1604 33.6578C65.5887 33.9451 63.8717 34.1722 62.2786 34.2997C60.9525 34.4057 59.6001 34.2515 58.2459 34.4058C55.1834 34.7547 52.0931 35.5441 49.1393 36.407C44.9223 37.6389 40.8503 37.7678 36.4952 38.0039C31.7408 38.2617 26.9735 37.8984 22.3148 36.9326C20.7437 36.6069 19.0829 36.8993 17.4836 36.8366C15.7221 36.7675 13.9964 36.2822 12.339 35.7096C11.6415 35.4686 10.9986 35.098 10.267 34.9314C9.41053 34.7362 8.53991 34.8131 7.6897 34.6079C6.50503 34.322 5.12205 33.8045 4.12186 33.1121C3.68666 32.8108 3.03322 32.5618 2.6917 32.1064C2.59207 31.9736 2.46428 31.6781 2.46428 31.5202C2.46428 31.1436 2.1558 31.2387 2.64621 31.5657" stroke="#eeeeee" stroke-opacity="0.5" stroke-width="1.66333" stroke-linecap="round" stroke-linejoin="round"/>
<path d="M37.1219 46.8477C38.229 46.7247 39.6921 46.7458 39.2343 45.3215C39.0874 44.8643 38.7171 44.8155 38.3247 44.6847C37.1546 44.2947 35.0602 45.0499 34.6204 46.2716C33.8312 48.4638 35.3248 50.8315 37.6728 50.0719C38.3115 49.8652 39.4448 49.4138 39.8509 48.8337C40.3384 48.1373 39.6065 48.343 39.1231 47.6664" stroke="#eeeeee" stroke-opacity="0.5" stroke-width="1.66333" stroke-linecap="round" stroke-linejoin="round"/>
<path d="M33.7563 44.4826C35.521 43.7746 36.4239 43.482 38.2086 43.482C38.9279 43.482 39.2877 43.4313 39.9217 43.8459C40.9692 44.5308 41.3297 45.8326 41.2205 46.9791C41.1283 47.9472 40.8079 49.2741 40.4675 50.1932C40.2143 50.8768 39.5877 50.9948 38.9464 51.123C38.3602 51.2403 37.0825 50.9125 36.6217 51.1685C36.1326 51.4403 34.6353 51.5319 34.2566 51.027C33.9083 50.5625 33.5348 50.3623 33.2813 49.799C33.0393 49.2612 32.9301 48.7473 32.7355 48.2122C32.4683 47.4773 31.988 45.4707 32.9831 45.0284C33.5664 44.7692 33.8161 44.614 34.4841 44.614C34.6736 44.614 34.8361 44.7555 35.0298 44.7555C35.3094 44.7555 34.4907 44.5736 34.2112 44.5736" stroke="#eeeeee" stroke-opacity="0.5" stroke-width="1.66333" stroke-linecap="round" stroke-linejoin="round"/>
<path d="M36.9399 37.2054C38.223 35.5463 39.3939 33.8354 40.72 32.2226C41.4324 31.3561 42.3174 30.6109 43.0851 29.7817C45.2835 27.4075 47.5237 24.809 49.2 22.0345C50.8512 19.3014 53.1048 16.325 55.5523 14.2722C56.8452 13.1879 58.0005 11.9895 59.1252 10.7397C60.2165 9.5272 60.7192 7.83144 61.7531 6.55031C62.5537 5.5582 67.7946 -1.19339 68.7068 2.91173C69.0653 4.52469 67.4917 5.65309 66.5035 6.64128C65.3821 7.76268 64.2553 9.1874 63.2995 10.4618C62.3781 11.6904 61.2582 12.7704 60.3634 14.0094C59.1458 15.6952 56.9306 16.9011 56.0425 18.8103C55.31 20.3854 54.0945 21.6512 53.1822 23.1109C51.9178 25.1339 50.4365 26.8235 48.9473 28.6749C47.7672 30.142 45.9177 31.3481 45.0813 33.021C44.3826 34.4184 43.1441 35.0074 42.0138 35.9117C41.5217 36.3054 40.9237 36.5239 40.4876 37.069C40.3425 37.2503 40.0828 37.4599 39.9468 37.256C39.8693 37.1397 39.5734 37.4004 39.6285 37.5288C39.8224 37.9813 39.3507 36.4404 39.305 36.2958" stroke="#eeeeee" stroke-opacity="0.5" stroke-width="1.66333" stroke-linecap="round" stroke-linejoin="round"/>
<path d="M36.2122 37.6602C36.5608 37.837 38.7592 39.5059 38.7592 38.1605C38.7592 37.7533 39.2823 37.0745 39.4667 36.6596C39.6061 36.346 38.3499 36.6465 38.1628 36.887C37.9185 37.2012 37.4448 37.4563 38.2134 37.4783C38.8039 37.4952 39.2654 37.2412 39.7143 36.8921C39.8433 36.7917 41.5788 37.0664 40.0327 37.0235C39.2105 37.0006 38.4114 37.0235 37.6221 37.0235C36.9398 37.0235 38.3224 36.8415 38.5217 36.8415C38.6807 36.8415 37.3686 37.622 37.142 37.3671C37.0869 37.3051 36.9912 37.1342 37.2128 37.0235" stroke="#eeeeee" stroke-opacity="0.5" stroke-width="1.66333" stroke-linecap="round" stroke-linejoin="round"/>
<path d="M7.28552 30.9289C7.38784 30.9831 10.6389 32.6853 10.6512 32.4753C10.6662 32.2209 10.485 31.9992 10.6108 31.7476C11.1608 30.6475 11.8725 31.175 12.8192 31.601C13.5577 31.9333 12.437 28.2534 14.6638 29.807C15.8144 30.6097 16.1213 30.4819 15.9322 29.1349C15.7891 28.1149 16.1413 28.112 17.0187 28.2202C17.6152 28.2937 18.0427 28.4239 18.3832 27.8563C18.7964 27.1677 19.2619 26.7758 20.1065 27.073C20.8068 27.3194 21.4287 28.0121 21.9106 27.1286C22.1227 26.7398 21.9438 25.5764 22.6131 25.7995C23.0326 25.9393 23.5853 26.4871 24.0635 26.3149C24.4257 26.1845 24.7041 25.061 25.1146 25.2385C25.5428 25.4237 25.9793 26.2365 26.5195 26.0421C26.7803 25.9481 27.2641 25.0957 26.752 25.1981" stroke="#eeeeee" stroke-opacity="0.5" stroke-width="1.66333" stroke-linecap="round" stroke-linejoin="round"/>
<path d="M20.1115 29.2915C21.239 30.2089 25.4617 35.1093 26.7013 31.4494C26.9233 30.794 26.9586 29.4957 27.5807 30.5701C28.0933 31.4556 28.8651 32.0702 29.7032 31.2321C30.2585 30.6768 30.5058 29.734 31.3001 29.4431C32.0289 29.1762 32.5641 30.5466 33.1699 29.7464C33.6585 29.101 33.4221 27.9913 32.705 27.6036C32.4698 27.4765 32.4041 27.9146 32.3007 28.018" stroke="#eeeeee" stroke-opacity="0.5" stroke-width="1.66333" stroke-linecap="round" stroke-linejoin="round"/>
<path d="M29.8448 23.6517C31.6016 23.35 33.8147 22.7356 35.1511 24.3087C35.7706 25.0379 35.7119 25.9689 35.3027 26.7951C35.0036 27.3989 34.1991 27.7001 33.6856 27.1084C33.2643 26.623 34.133 25.8228 34.4436 25.5266C35.5083 24.5114 37.0868 26.137 37.4202 27.2398C37.6987 28.1611 35.1803 30.2956 35.4847 29.3825" stroke="#eeeeee" stroke-opacity="0.5" stroke-width="1.66333" stroke-linecap="round" stroke-linejoin="round"/>
<path d="M59.4082 26.7445C59.9303 26.5651 63.2869 25.4842 62.6425 27.2701C62.3119 28.1863 61.0469 28.6779 60.2168 28.9782C59.8241 29.1202 58.8102 29.0957 59.4688 28.5234C60.0391 28.0279 60.8425 27.7954 61.5913 27.8563C64.5103 28.0936 60.4283 31.4468 59.5901 31.9093C57.9615 32.8078 55.746 33.7531 54.0413 32.6572" stroke="#eeeeee" stroke-opacity="0.5" stroke-width="1.66333" stroke-linecap="round" stroke-linejoin="round"/>
<path d="M41.4882 21.3776C42.1807 22.5041 43.014 23.6359 43.6057 24.8191C43.8093 25.2264 42.9282 24.1837 42.7213 23.7781C42.6665 23.6707 42.2873 22.4764 42.2513 22.4844C41.8082 22.5828 41.7041 24.6114 41.5842 24.9859C41.0175 26.7569 39.6172 26.0785 38.2438 25.9461C36.5811 25.7858 35.8375 27.4259 34.9185 28.4729C34.1832 29.3106 33.8943 29.5677 34.393 30.5651C34.7965 31.3721 34.9643 32.1546 34.393 32.8847C33.9471 33.4543 33.389 33.8143 32.8516 34.2845C32.3592 34.7153 33.0653 34.6444 32.9729 34.3856C32.7206 33.6791 31.1634 33.8263 30.6533 33.86C28.7602 33.9852 26.8317 33.5103 24.9731 33.6275C23.9856 33.6898 23.0561 34.2406 22.0774 34.3856C21.0833 34.5328 22.3973 35.3957 22.7697 35.6439C23.4105 36.0711 21.5151 34.7353 20.819 34.4058C19.6515 33.8532 18.5731 33.4254 17.9688 32.2024C17.3631 30.9766 16.8297 30.1408 15.8058 29.241C15.4528 28.9308 15.4111 28.4589 15.5835 28.0383C15.9829 27.0638 16.8686 26.2706 17.7464 25.7439" stroke="#eeeeee" stroke-opacity="0.5" stroke-width="1.66333" stroke-linecap="round" stroke-linejoin="round"/>
<path d="M41.3064 25.0162C39.0262 23.4248 37.1447 22.7395 34.4638 22.3782C33.5214 22.2512 32.5162 21.5987 31.9017 20.8773C31.3563 20.2371 31.6654 20.4065 31.0223 21.2765C30.1439 22.465 29.4916 21.3982 28.3692 21.7112C26.649 22.1908 25.1725 23.7899 23.4268 24.0863C22.9487 24.1675 23.064 23.3677 22.4666 23.7124C21.4606 24.2928 20.6912 24.8419 19.5153 25.0263C18.8042 25.1379 17.4564 25.6062 17.5646 26.4716" stroke="#eeeeee" stroke-opacity="0.5" stroke-width="1.66333" stroke-linecap="round" stroke-linejoin="round"/>
<path d="M56.7703 25.0162C58.9705 25.2282 61.1999 25.2009 63.3905 25.4356C64.1618 25.5183 64.556 25.83 65.0986 26.3352C65.588 26.7908 66.352 27.8635 67.0543 27.922C68.067 28.0064 68.5902 27.5857 69.5356 27.2903C70.1048 27.1124 71.9209 27.2903 71.3246 27.2903" stroke="#eeeeee" stroke-opacity="0.5" stroke-width="1.66333" stroke-linecap="round" stroke-linejoin="round"/>
<path d="M55.1329 27.4722C52.7677 29.0308 51.5043 31.3946 48.9726 32.8139C48.4713 33.0949 46.9368 33.6389 47.0522 34.5624C47.1357 35.2308 52.2603 33.1384 53.0407 32.7482" stroke="#eeeeee" stroke-opacity="0.5" stroke-width="1.66333" stroke-linecap="round" stroke-linejoin="round"/>
<path d="M63.9565 29.6554C65.2426 30.6127 66.3514 31.9809 67.959 31.4949C68.394 31.3634 69.3042 31.312 69.5964 31.0199" stroke="#eeeeee" stroke-opacity="0.5" stroke-width="1.66333" stroke-linecap="round" stroke-linejoin="round"/>
</svg>
