<svg width="64" height="49" viewBox="0 0 64 49" fill="none" xmlns="http://www.w3.org/2000/svg">
<path d="M5.99723 43.8527C6.89178 42.7156 8.60491 40.6115 6.20377 40.2395C5.66062 40.1553 5.15327 39.8362 4.6203 40.0777C2.97866 40.8217 1.45337 42.4598 1.45337 44.4074C1.45337 47.5182 4.86513 48.1919 7.34356 48.1516C11.5251 48.0837 12.7972 44.0096 14.2741 40.7094C15.7659 37.3758 17.423 34.0963 18.9709 30.7865C20.7224 27.0415 23.5949 24.0582 25.4119 20.3475C26.191 18.7563 27.2085 17.355 28.2117 15.9022C29.7678 13.6485 30.8775 11.3749 31.9906 8.87603C32.9037 6.82585 33.9163 4.95368 35.0351 3.01319C35.4875 2.22848 35.3175 1.02635 36.1825 1.86528C36.8393 2.50224 37.8842 2.92067 38.7681 3.08253C42.6325 3.79016 46.1863 4.53916 50.166 4.22274C54.191 3.90271 58.2138 3.32601 62.1759 2.55865C63.5228 2.29777 62.9487 2.61183 62.3135 3.42921C61.2362 4.8156 60.3165 6.28485 59.2843 7.68959C57.9383 9.5215 57.4646 11.7277 56.6681 13.8221C55.7927 16.1243 54.7507 18.3233 53.9143 20.6633C52.2978 25.1857 49.9397 29.3099 47.022 33.1055C45.3311 35.3052 43.2424 39.147 40.0762 38.9914C35.1764 38.7507 38.485 29.1056 40.8258 27.2195C42.086 26.2042 43.4642 27.2973 43.6179 28.6602C43.8292 30.5329 43.1868 33.0991 41.369 34.0146C39.451 34.9804 37.9806 34.8645 39.4566 32.3736C40.3496 30.8665 40.8806 32.5251 41.2466 31.7881" stroke="#00ADB5" stroke-opacity="0.5" stroke-width="1.66333" stroke-linecap="round" stroke-linejoin="round"/>
</svg>
